SplineFontDB: 3.2
FontName: SeriousSansLightItalic
FullName: Serious Sans Light Italic
FamilyName: Serious Sans Light Italic
Weight: Light
Copyright: https://github.com/kaBeech/serious-sans/blob/main/LICENSE
Version: 0.1.2
ItalicAngle: 0
UnderlinePosition: 0
UnderlineWidth: 0
Ascent: 1638
Descent: 410
InvalidEm: 0
LayerCount: 2
Layer: 0 1 "Back" 1
Layer: 1 1 "Fore" 0
XUID: [1021 107 -322497659 2235226]
StyleMap: 0x0040
FSType: 4
OS2Version: 3
OS2_WeightWidthSlopeOnly: 0
OS2_UseTypoMetrics: 0
CreationTime: 1532631502
ModificationTime: 1679190937
PfmFamily: 81
TTFWeight: 400
TTFWidth: 5
LineGap: 0
VLineGap: 0
Panose: 0 0 0 0 0 0 0 0 0 0
OS2TypoAscent: 1255
OS2TypoAOffset: 0
OS2TypoDescent: -386
OS2TypoDOffset: 0
OS2TypoLinegap: 200
OS2WinAscent: 1594
OS2WinAOffset: 0
OS2WinDescent: 631
OS2WinDOffset: 0
HheadAscent: 1630
HheadAOffset: 0
HheadDescent: -650
HheadDOffset: 0
OS2SubXSize: 650
OS2SubYSize: 600
OS2SubXOff: 0
OS2SubYOff: 75
OS2SupXSize: 650
OS2SupYSize: 600
OS2SupXOff: 0
OS2SupYOff: 350
OS2StrikeYSize: 0
OS2StrikeYPos: 270
OS2CapHeight: 1180
OS2XHeight: 993
OS2Vendor: 'NONE'
OS2CodePages: 00000001.00000000
OS2UnicodeRanges: 00000001.00000000.00000000.00000000
MarkAttachClasses: 1
DEI: 91125
TtTable: prep
PUSHW_1
 511
SCANCTRL
PUSHB_1
 1
SCANTYPE
SVTCA[y-axis]
MPPEM
PUSHB_1
 8
LT
IF
PUSHB_2
 1
 1
INSTCTRL
EIF
PUSHB_2
 70
 6
CALL
IF
POP
PUSHB_1
 16
EIF
MPPEM
PUSHB_1
 20
GT
IF
POP
PUSHB_1
 128
EIF
SCVTCI
PUSHB_1
 6
CALL
NOT
IF
EIF
PUSHB_1
 20
CALL
EndTTInstrs
TtTable: fpgm
PUSHB_1
 0
FDEF
PUSHB_1
 0
SZP0
MPPEM
PUSHB_1
 42
LT
IF
PUSHB_1
 74
SROUND
EIF
PUSHB_1
 0
SWAP
MIAP[rnd]
RTG
PUSHB_1
 6
CALL
IF
RTDG
EIF
MPPEM
PUSHB_1
 42
LT
IF
RDTG
EIF
DUP
MDRP[rp0,rnd,grey]
PUSHB_1
 1
SZP0
MDAP[no-rnd]
RTG
ENDF
PUSHB_1
 1
FDEF
DUP
MDRP[rp0,min,white]
PUSHB_1
 12
CALL
ENDF
PUSHB_1
 2
FDEF
MPPEM
GT
IF
RCVT
SWAP
EIF
POP
ENDF
PUSHB_1
 3
FDEF
ROUND[Black]
RTG
DUP
PUSHB_1
 64
LT
IF
POP
PUSHB_1
 64
EIF
ENDF
PUSHB_1
 4
FDEF
PUSHB_1
 6
CALL
IF
POP
SWAP
POP
ROFF
IF

StartChar: .notdef
Encoding: 65536 -1 0
Width: 1033
GlyphClass: 1
Flags: W
LayerCount: 2
Fore
SplineSet
482.896660037 1509 m 1,0,-1
 14.4240375589 -523 l 1,1,-1
 778.112640489 -523 l 1,2,-1
 1247.5612476 1509 l 1,3,-1
 482.896660037 1509 l 1,0,-1
1182.43589121 1449 m 1,4,-1
 740.889167254 -463 l 1,5,-1
 78.5641087929 -463 l 1,6,-1
 520.110832746 1449 l 1,7,-1
 1182.43589121 1449 l 1,4,-1
EndSplineSet
Validated: 524297
EndChar

StartChar: exclam
Encoding: 33 33 4
Width: 1022
GlyphClass: 2
Flags: W
LayerCount: 2
Fore
SplineSet
713.789361871 560.463112413 m 1,0,1
 726.946544532 626.989732275 726.946544532 626.989732275 737.407710131 656.380626408 c 128,-1,2
 747.86887573 685.771520541 747.86887573 685.771520541 780.263282958 841.261690293 c 128,-1,3
 812.657690187 996.751860045 812.657690187 996.751860045 878.660176837 1247.76131685 c 128,-1,4
 944.662663487 1498.77077366 944.662663487 1498.77077366 949.013871426 1518.880208 c 128,-1,5
 953.365079365 1538.98964234 953.365079365 1538.98964234 953.365079365 1554.70228547 c 128,-1,6
 953.365079365 1570.4149286 953.365079365 1570.4149286 947.251495908 1578.84175985 c 0,7,8
 937.599795835 1592.14545455 937.599795835 1592.14545455 913.844628099 1592.14545455 c 2,9,-1
 908 1592 l 2,10,11
 878.170330846 1592 878.170330846 1592 851.696052643 1569.53697607 c 128,-1,12
 825.22177444 1547.07395214 825.22177444 1547.07395214 812.233232336 1498.82787921 c 0,13,14
 806.139091506 1473.47148283 806.139091506 1473.47148283 779.185257582 1368.65058353 c 128,-1,15
 752.231423659 1263.82968422 752.231423659 1263.82968422 744.779099721 1234.51732394 c 128,-1,16
 737.326775783 1205.20496366 737.326775783 1205.20496366 716.900445322 1116.03136761 c 128,-1,17
 696.474114862 1026.85777155 696.474114862 1026.85777155 677.950926764 929.738273967 c 128,-1,18
 659.427738666 832.61877638 659.427738666 832.61877638 641.265339505 759.464668648 c 128,-1,19
 623.100556556 686.300959549 623.100556556 686.300959549 616.866478408 666.040205569 c 128,-1,20
 610.63240026 645.779451589 610.63240026 645.779451589 599.115052375 616.234950492 c 128,-1,21
 587.59770449 586.690449396 587.59770449 586.690449396 577.845578164 557.464369879 c 0,22,23
 572.480799878 532.921753312 572.480799878 532.921753312 572.382190984 521.615880619 c 128,-1,24
 572.28358209 510.310007925 572.28358209 510.310007925 578.257812286 501.429395471 c 0,25,26
 589.310314694 485 589.310314694 485 614 485 c 2,27,-1
 614.650906469 485 l 2,28,29
 617.495372854 484.854129929 617.495372854 484.854129929 619.651570248 484.854545455 c 0,30,31
 647.408788823 484.854545455 647.408788823 484.854545455 674.346009314 504.480234669 c 128,-1,32
 701.283229804 524.105923883 701.283229804 524.105923883 713.789361871 560.463112413 c 1,0,1
673.891304348 152.810491493 m 0,33,34
 673.891304348 184.899836987 673.891304348 184.899836987 657.398022654 208.84169751 c 0,35,36
 635.804247606 240.1875 635.804247606 240.1875 587.35546875 240.1875 c 0,37,38
 529.598527241 240.1875 529.598527241 240.1875 472.559703528 197.04889383 c 0,39,40
 420.378755482 157.584311274 420.378755482 157.584311274 408.387063287 104.478245842 c 0,41,42
 403.775510204 84.5909231707 403.775510204 84.5909231707 403.775510204 67.0179092045 c 0,43,44
 403.775510204 32.4032441777 403.775510204 32.4032441777 421.816174571 5.34224762686 c 0,45,46
 442.786368641 -26.1130434783 442.786368641 -26.1130434783 486.720151229 -26.1130434783 c 0,47,48
 494.580743985 -26.1130434783 494.580743985 -26.1130434783 503.213394292 -25.1538601109 c 0,49,50
 566.455030069 -18.0280419951 566.455030069 -18.0280419951 611.45444974 21.2361575219 c 128,-1,51
 656.453869411 60.5003570388 656.453869411 60.5003570388 669.638990107 117.635880053 c 0,52,53
 673.891304348 136.346062714 673.891304348 136.346062714 673.891304348 152.810491493 c 0,33,34
EndSplineSet
Validated: 524297
EndChar

StartChar: quotedbl
Encoding: 34 34 5
Width: 1026
GlyphClass: 2
Flags: W
LayerCount: 2
Fore
SplineSet
736 1579 m 2,0,-1
 735.295126209 1579 l 2,1,2
 730.795126209 1579.25 730.795126209 1579.25 723.192039537 1579.25 c 0,3,4
 700.067095325 1579.25 700.067095325 1579.25 672.165338074 1568.23614845 c 0,5,6
 659.31177283 1563.1623727 659.31177283 1563.1623727 648.977860201 1550.33406737 c 0,7,8
 638.978764861 1537.92139729 638.978764861 1537.92139729 635.56640895 1518.34394231 c 0,9,10
 615.503471782 1412.01037533 615.503471782 1412.01037533 579.867564164 1247.88443461 c 128,-1,11
 544.231656546 1083.75849388 544.231656546 1083.75849388 512.825139717 978.394695492 c 0,12,13
 508.303797468 965.132091563 508.303797468 965.132091563 508.303797468 954.258976645 c 128,-1,14
 508.303797468 943.385861728 508.303797468 943.385861728 515.989662028 935.856851547 c 0,15,16
 533.738784271 918.469956289 533.738784271 918.469956289 562.332709036 916.96501288 c 2,17,-1
 562.508771923 916.955746413 l 2,18,19
 564.453663767 916.826086957 564.453663767 916.826086957 566.236294896 916.826086957 c 0,20,21
 586.454062375 916.826086957 586.454062375 916.826086957 610.88944578 932.615103926 c 128,-1,22
 635.324829185 948.404120895 635.324829185 948.404120895 647.445138146 981.39330607 c 0,23,24
 672.084654011 1052.43190782 672.084654011 1052.43190782 719.825888304 1242.89954408 c 128,-1,25
 767.567122596 1433.36718034 767.567122596 1433.36718034 785.497252615 1516.98912823 c 0,26,27
 789.349302523 1537.21952165 789.349302523 1537.21952165 786.143307446 1549.40230295 c 128,-1,28
 782.937312368 1561.58508424 782.937312368 1561.58508424 777.500694877 1565.88907309 c 0,29,30
 760.939524042 1579 760.939524042 1579 736 1579 c 2,0,-1
1025.74439452 1243.07440219 m 0,31,32
 1093.27272727 1513.18773322 1093.27272727 1513.18773322 1093.27272727 1537.07962435 c 0,33,34
 1093.27272727 1558.07615944 1093.27272727 1558.07615944 1083.73107817 1565.32781276 c 128,-1,35
 1074.18942906 1572.57946608 1074.18942906 1572.57946608 1064.59846952 1575.77645259 c 128,-1,36
 1054.9278273 1579 1054.9278273 1579 1041 1579 c 2,37,-1
 1040.29512621 1579 l 2,38,39
 1035.79512621 1579.25 1035.79512621 1579.25 1028.28372409 1579.25 c 0,40,41
 1006.06709532 1579.25 1006.06709532 1579.25 978.165338074 1568.23614845 c 0,42,43
 965.31177283 1563.1623727 965.31177283 1563.1623727 954.83258391 1550.15372438 c 128,-1,44
 944.353394989 1537.14507607 944.353394989 1537.14507607 940.53984221 1518.20315053 c 0,45,46
 920.479972489 1411.90214768 920.479972489 1411.90214768 884.867475671 1247.88402779 c 128,-1,47
 849.254978854 1083.8659079 849.254978854 1083.8659079 818.860570849 978.498626811 c 0,48,49
 814.303797468 965.132091563 814.303797468 965.132091563 814.303797468 954.258976645 c 128,-1,50
 814.303797468 943.385861728 814.303797468 943.385861728 821.989662028 935.856851547 c 0,51,52
 839.753213168 918.45582186 839.753213168 918.45582186 867.36844477 916.963106638 c 2,53,-1
 867.630752988 916.947556483 l 2,54,55
 869.513530647 916.826086957 869.513530647 916.826086957 871.402646503 916.826086957 c 0,56,57
 892.454062375 916.826086957 892.454062375 916.826086957 916.889445927 932.615104021 c 128,-1,58
 941.32482948 948.404121086 941.32482948 948.404121086 953.445138167 981.393306651 c 0,59,60
 978.082182436 1052.42554552 978.082182436 1052.42554552 1025.74439452 1243.07440219 c 0,31,32
EndSplineSet
Validated: 524297
EndChar

StartChar: numbersign
Encoding: 35 35 6
Width: 1037
GlyphClass: 2
Flags: W
LayerCount: 2
Fore
SplineSet
456 415 m 1,0,-1
 683 417 l 1,1,-1
 720.132195765 417 l 1,2,3
 636.949052074 212.056022791 636.949052074 212.056022791 598.499717078 129.086405168 c 1,4,5
 581.405797101 95.5560236755 581.405797101 95.5560236755 581.405797101 69.0938878387 c 0,6,7
 581.405797101 61.0935275907 581.405797101 61.0935275907 583.514393417 51.0466863247 c 0,8,9
 588.229123377 28.5823847462 588.229123377 28.5823847462 605.902364638 24.2979626225 c 2,10,-1
 607.017243661 24.0276889199 l 2,11,12
 616.355249387 20.8260869565 616.355249387 20.8260869565 625.436672968 20.8260869565 c 0,13,14
 644.278883631 20.8260869565 644.278883631 20.8260869565 667.642684472 32.773485114 c 0,15,16
 704.524531853 51.6335207067 704.524531853 51.6335207067 726.661008519 88.3512297768 c 1,17,18
 762.705074878 172.619249884 762.705074878 172.619249884 859.98846119 419 c 1,19,-1
 983 419 l 2,20,21
 1017.29979671 419 1017.29979671 419 1036.38700273 439.021544773 c 0,22,23
 1052.67785171 456.109847896 1052.67785171 456.109847896 1060.481525 488.967821695 c 0,24,25
 1064.7306649 514.581191113 1064.7306649 514.581191113 1057.27805493 527.623258565 c 0,26,27
 1052.49134553 536 1052.49134553 536 1022 536 c 2,28,-1
 907.557273772 536 l 1,29,-1
 1061.84298806 936 l 1,30,-1
 1148.43991129 936 l 1,31,32
 1186.14879389 937.725758234 1186.14879389 937.725758234 1208.22026784 957.473919133 c 128,-1,33
 1230.29174179 977.222080031 1230.29174179 977.222080031 1237.53957893 1006.24353687 c 0,34,35
 1238.18032775 1009.92642627 1238.18032775 1009.92642627 1238.18032787 1013.39666756 c 0,36,37
 1238.18032787 1028.66651808 1238.18032787 1028.66651808 1224.98329999 1043.21018146 c 0,38,39
 1207.93327946 1062 1207.93327946 1062 1173 1062 c 2,40,-1
 1151 1062 l 1,41,-1
 1114.43795793 1062 l 1,42,43
 1195.0928387 1269.22100136 1195.0928387 1269.22100136 1233.46098332 1349.82233254 c 0,44,45
 1247.9 1379.81105948 1247.9 1379.81105948 1247.9 1399.905 c 0,46,47
 1247.9 1408.56184102 1247.9 1408.56184102 1245.08391119 1414.99861545 c 0,48,49
 1236.16562533 1435.38326884 1236.16562533 1435.38326884 1208.49682778 1441.60874829 c 0,50,51
 1197.81765191 1444.33333333 1197.81765191 1444.33333333 1190.44444444 1444.33333333 c 0,52,53
 1172.99362487 1444.33333333 1172.99362487 1444.33333333 1153.86182065 1433.99181754 c 0,54,55
 1124.1324009 1417.92186092 1124.1324009 1417.92186092 1100.8329702 1371.7551214 c 1,56,-1
 975.940824406 1059 l 1,57,-1
 705.431716433 1059 l 1,58,-1
 833.05242855 1363.93444488 l 2,59,60
 845.29533934 1392.14636975 845.29533934 1392.14636975 845.297297297 1411.97041636 c 0,61,62
 845.297297297 1422.03796145 845.297297297 1422.03796145 842.027849674 1429.62775058 c 0,63,64
 833.044488451 1450.48198199 833.044488451 1450.48198199 806.364119947 1456.63899011 c 0,65,66
 797.803859785 1458.79310345 797.803859785 1458.79310345 791.180142687 1458.79310345 c 0,67,68
 774.075014879 1458.79310345 774.075014879 1458.79310345 754.487053719 1448.05997405 c 0,69,70
 725.024605164 1431.91616662 725.024605164 1431.91616662 701.729767872 1387.51515565 c 1,71,-1
 566.841544356 1055 l 1,72,-1
 550 1055 l 2,73,74
 475.685917569 1055 475.685917569 1055 439.36844477 1053.03689336 c 2,75,-1
 439.014664537 1053.02025796 l 2,76,77
 397.745412626 1051.36948789 397.745412626 1051.36948789 374.464824801 1031.19297844 c 128,-1,78
 351.184236976 1011.01646899 351.184236976 1011.01646899 346.537484205 983.135952362 c 0,79,80
 344.672727273 974.977640785 344.672727273 974.977640785 344.672727273 968.567272727 c 0,81,82
 344.672727273 954.887985996 344.672727273 954.887985996 352.91146717 944.74799843 c 0,83,84
 363.394215895 931.846153846 363.394215895 931.846153846 393.784023669 931.846153846 c 2,85,-1
 401 932 l 1,86,-1
 480 934 l 1,87,-1
 517.496011197 934 l 1,88,-1
 350.098887119 532.019151023 l 1,89,90
 318.193854173 530.025086464 318.193854173 530.025086464 286.720019123 529.025917097 c 128,-1,91
 255.246184074 528.026747731 255.246184074 528.026747731 240.684554938 527.055972455 c 0,92,93
 199.039548431 524.557272065 199.039548431 524.557272065 176.973811982 505.201362898 c 128,-1,94
 154.968641025 485.898581357 154.968641025 485.898581357 149.462270226 456.793478562 c 0,95,96
 147.714285714 449.364544389 147.714285714 449.364544389 147.714285714 443.714285714 c 0,97,98
 147.714285714 432.634120536 147.714285714 432.634120536 154.674203125 425.674203125 c 0,99,100
 167.34840625 413 167.34840625 413 205 413 c 2,101,-1
 300.134152748 413 l 1,102,103
 204.637278679 193.357189642 204.637278679 193.357189642 176.29391396 137.68272323 c 0,104,105
 157.558823529 100.906434607 157.558823529 100.906434607 157.558823529 70.4991349481 c 0,106,107
 157.558823529 46.8428666931 157.558823529 46.8428666931 166.212385135 33.7847976827 c 0,108,109
 171.082318574 26.4361556076 171.082318574 26.4361556076 181.439110355 23.9254182062 c 1,110,111
 189.54224591 20.8271604938 189.54224591 20.8271604938 197.218106996 20.8271604938 c 0,112,113
 216.531471136 20.8271604938 216.531471136 20.8271604938 243.00088614 36.1515586541 c 0,114,115
 283.975906703 59.8739389802 283.975906703 59.8739389802 304.591661293 96.1585054188 c 1,116,117
 340.644748043 178.355850878 340.644748043 178.355850878 439.334908888 415 c 1,118,-1
 456 415 l 1,0,-1
927.665785574 936 m 1,119,120
 843.201740263 720.676166179 843.201740263 720.676166179 767.724761422 538 c 1,121,-1
 751 538 l 2,122,123
 604.326175011 538 604.326175011 538 488.070158558 535.019076501 c 1,124,-1
 655.336486646 936 l 1,125,-1
 927.665785574 936 l 1,119,120
EndSplineSet
Validated: 524297
EndChar

StartChar: dollar
Encoding: 36 36 7
Width: 935
GlyphClass: 2
Flags: W
LayerCount: 2
Fore
SplineSet
288.631835938 -17.3505859375 m 128,-1,1
 339.96875 -34 339.96875 -34 400.275264432 -34 c 2,2,-1
 407.577772006 -34 l 1,3,-1
 436.216402478 -34 l 1,4,5
 412.298729051 -148.46484375 412.298729051 -148.46484375 398.285616373 -198.611328125 c 0,6,7
 390.265516197 -224.96875 390.265516197 -224.96875 390.265516197 -242.545898438 c 0,8,9
 390.265516197 -262.693359375 390.265516197 -262.693359375 400.554278699 -268.15234375 c 0,10,11
 405.921514795 -271 405.921514795 -271 414.88027958 -271 c 2,12,-1
 415.474856308 -271.008789062 l 2,13,14
 416.549016662 -271.038085938 416.549016662 -271.038085938 417.612479985 -271.038085938 c 0,15,16
 444.296227752 -271.038085938 444.296227752 -271.038085938 468.925253846 -251.486328125 c 128,-1,17
 493.555171359 -231.934570312 493.555171359 -231.934570312 504.956425249 -195.854492188 c 1,18,19
 511.713384161 -152.416015625 511.713384161 -152.416015625 539.925916169 -16.646484375 c 1,20,-1
 553.325732312 -12.8095703125 l 2,21,22
 630.90685251 9.4033203125 630.90685251 9.4033203125 701.897709219 52.3955078125 c 128,-1,23
 772.985730641 95.4462890625 772.985730641 95.4462890625 832.324844614 155.15625 c 0,24,25
 892.32421875 214.866210938 892.32421875 214.866210938 939.422851562 295.125976562 c 128,-1,26
 986.513671875 375.373046875 986.513671875 375.373046875 1007.65625 465.7109375 c 0,27,28
 1021.63671875 525.932617188 1021.63671875 525.932617188 1021.63671875 573.131835938 c 128,-1,29
 1021.63671875 620.331054688 1021.63671875 620.331054688 1008.46582031 666.8671875 c 128,-1,30
 995.294921875 713.404296875 995.294921875 713.404296875 966.02734375 750.326171875 c 128,-1,31
 936.760742188 787.247070312 936.760742188 787.247070312 880.375914958 816.581054688 c 0,32,33
 828.523832371 845.9140625 828.523832371 845.9140625 755.498756633 858.294921875 c 2,34,-1
 731.017706157 862.4453125 l 1,35,36
 796.178680111 1158.96972656 796.178680111 1158.96972656 838.144030337 1342.86328125 c 1,37,-1
 856.775586831 1341.9765625 l 2,38,39
 903.538085938 1339.82714844 903.538085938 1339.82714844 936.9296875 1328.87890625 c 128,-1,40
 970.3203125 1317.93066406 970.3203125 1317.93066406 992.854492188 1304.70507812 c 128,-1,41
 1015.38769531 1291.47851562 1015.38769531 1291.47851562 1029.83496094 1288.07910156 c 1,42,43
 1048.25976562 1281.9375 1048.25976562 1281.9375 1066.3515625 1281.9375 c 0,44,45
 1075.23730469 1281.9375 1075.23730469 1281.9375 1085.84472656 1283.37109375 c 128,-1,46
 1096.45117188 1284.8046875 1096.45117188 1284.8046875 1106.89257812 1293.61425781 c 128,-1,47
 1117.49609375 1302.56054688 1117.49609375 1302.56054688 1123.27636719 1319.90136719 c 0,48,49
 1130.52148438 1339.97851562 1130.52148438 1339.97851562 1130.52148438 1351.63769531 c 128,-1,50
 1130.52148438 1363.296875 1130.52148438 1363.296875 1127.98730469 1372.02636719 c 0,51,52
 1122.36035156 1391.40917969 1122.36035156 1391.40917969 1099.92871094 1401.11425781 c 0,53,54
 1067.73632812 1415.31738281 1067.73632812 1415.31738281 999.30859375 1433.2734375 c 128,-1,55
 930.880859375 1451.22949219 930.880859375 1451.22949219 891.196289062 1454.06445312 c 2,56,-1
 864.078985824 1456.14257812 l 1,57,-1
 893.631835938 1593.60351562 l 2,58,59
 898.630859375 1615.39941406 898.630859375 1615.39941406 898.630859375 1632.98242188 c 128,-1,60
 898.630859375 1650.56542969 898.630859375 1650.56542969 891.291015625 1659.82324219 c 128,-1,61
 884.021820229 1669.08007812 884.021820229 1669.08007812 863.553048389 1669.08007812 c 0,62,63
 861.927990857 1669.08007812 861.927990857 1669.08007812 860.228945515 1669.015625 c 2,64,-1
 859.825132536 1669 l 1,65,66
 832.96577515 1669 832.96577515 1669 815.533177724 1644.75 c 128,-1,67
 798.101471717 1620.5 798.101471717 1620.5 787.536369207 1575.90234375 c 0,68,69
 771.936530029 1505.54003906 771.936530029 1505.54003906 755.191216946 1441.33691406 c 1,70,-1
 741.414330404 1438.44628906 l 2,71,72
 658.935752124 1421.14355469 658.935752124 1421.14355469 589.483485268 1380.94726562 c 128,-1,73
 520.030326991 1340.75 520.030326991 1340.75 471.25453269 1285.40722656 c 128,-1,74
 422.478738389 1230.06445312 422.478738389 1230.06445312 390.178157097 1165.50976562 c 0,75,76
 357.595703125 1101.03417969 357.595703125 1101.03417969 341.366210938 1030.38769531 c 0,77,78
 335.458984375 1004.61132812 335.458984375 1004.61132812 335.458984375 982.69921875 c 0,79,80
 335.458984375 915.013671875 335.458984375 915.013671875 367.132291826 858.930664062 c 0,81,82
 387.109891586 820.849609375 387.109891586 820.849609375 426.724568903 793.556640625 c 128,-1,83
 466.340137639 766.264648438 466.340137639 766.264648438 521.236417415 758.880859375 c 0,84,85
 533.906161085 757.77734375 533.906161085 757.77734375 553.915851943 754.290039062 c 128,-1,86
 573.925542801 750.802734375 573.925542801 750.802734375 608.16139557 747.051757812 c 1,87,88
 545.713902213 450.23046875 545.713902213 450.23046875 465.69029291 89 c 1,89,-1
 447.741563662 89 l 1,90,-1
 444.090309875 89 l 2,91,92
 367.70190881 89 367.70190881 89 321.158203125 132.030273438 c 0,93,94
 276.833984375 172.4765625 276.833984375 172.4765625 250.734375 240.834960938 c 0,95,96
 241.403320312 263.658203125 241.403320312 263.658203125 233.485351562 272.526367188 c 128,-1,97
 225.567382812 281.39453125 225.567382812 281.39453125 220.403320312 282.060546875 c 128,-1,98
 215.239257812 282.727539062 215.239257812 282.727539062 209.840820312 282.727539062 c 128,-1,99
 204.443359375 282.727539062 204.443359375 282.727539062 194.741210938 280.463867188 c 128,-1,100
 185.040039062 278.200195312 185.040039062 278.200195312 162.364257812 268.243164062 c 0,101,102
 134.883789062 255.168945312 134.883789062 255.168945312 122.75 228.626953125 c 0,103,104
 115.518554688 212.80859375 115.518554688 212.80859375 115.518554688 193.538085938 c 128,-1,105
 115.518554688 174.267578125 115.518554688 174.267578125 119.34375 154.787109375 c 0,106,107
 140.0390625 80.568359375 140.0390625 80.568359375 204.515625 26.69140625 c 0,108,0
 237.295898438 -0.701171875 237.295898438 -0.701171875 288.631835938 -17.3505859375 c 128,-1,1
493.782483301 958.086914062 m 0,109,110
 465.660876071 999.4453125 465.660876071 999.4453125 465.660876071 1050.49316406 c 0,111,112
 465.660876071 1070.93359375 465.660876071 1070.93359375 470.212463433 1092.54199219 c 0,113,114
 487.370503689 1175.46972656 487.370503689 1175.46972656 549.116449993 1234.45410156 c 128,-1,115
 610.863287715 1293.43945312 610.863287715 1293.43945312 695.948376267 1320.97949219 c 2,116,-1
 733.423647068 1333.109375 l 1,117,118
 671.674135087 1039.19140625 671.674135087 1039.19140625 634.123985058 872.29296875 c 1,119,-1
 611.654868126 878.8359375 l 2,120,121
 531.871942056 902.0703125 531.871942056 902.0703125 493.782483301 958.086914062 c 0,109,110
880.506953607 494.145507812 m 128,-1,123
 880.506062188 457.233398438 880.506062188 457.233398438 872.51716169 419.305664062 c 0,124,125
 851.778289778 321.935546875 851.778289778 321.935546875 777.84485769 246.234375 c 128,-1,126
 703.911425602 170.533203125 703.911425602 170.533203125 606.853683337 127.79296875 c 2,127,-1
 565.218158282 109.458984375 l 1,128,129
 589.657312047 215.27734375 589.657312047 215.27734375 626.603079735 385.6484375 c 0,130,131
 692.992429597 691.791015625 692.992429597 691.791015625 692.992429597 691.791992188 c 2,132,-1
 699.087063909 719.896484375 l 1,133,-1
 723.594856967 709.25 l 2,134,135
 780.012789626 684.740234375 780.012789626 684.740234375 816.697371436 650.69140625 c 128,-1,136
 853.381953246 616.642578125 853.381953246 616.642578125 866.384196345 575.62109375 c 0,137,122
 880.507845027 531.057617188 880.507845027 531.057617188 880.506953607 494.145507812 c 128,-1,123
EndSplineSet
Validated: 524329
EndChar

StartChar: percent
Encoding: 37 37 8
Width: 936
GlyphClass: 2
Flags: W
LayerCount: 2
Fore
SplineSet
337.102555942 943.829101562 m 128,-1,1
 370.302340223 910.85546875 370.302340223 910.85546875 423.426506524 909.997070312 c 2,2,-1
 426.592644397 909.984375 l 2,3,4
 532.081248277 909.984375 532.081248277 909.984375 596.295468895 969.037109375 c 128,-1,5
 660.509689513 1028.08886719 660.509689513 1028.08886719 690.94846442 1145.74609375 c 0,6,7
 708.894123057 1213.30761719 708.894123057 1213.30761719 708.894123057 1265.27929688 c 0,8,9
 708.894123057 1327.34277344 708.894123057 1327.34277344 687.328474352 1360.6875 c 0,10,11
 649.614529976 1419 649.614529976 1419 570.906814728 1419 c 0,12,13
 469.351295769 1419 469.351295769 1419 397.108492993 1343.58691406 c 128,-1,14
 324.865690216 1268.17285156 324.865690216 1268.17285156 299.364257812 1149.37792969 c 0,15,16
 289.859375 1109.18945312 289.859375 1109.18945312 289.859375 1080.23828125 c 128,-1,17
 289.859375 1051.28710938 289.859375 1051.28710938 294.060546875 1029.18945312 c 0,18,0
 303.902771662 976.801757812 303.902771662 976.801757812 337.102555942 943.829101562 c 128,-1,1
85.5146484375 24.7158203125 m 0,19,20
 56.748046875 -16.501953125 56.748046875 -16.501953125 56.748046875 -42.2490234375 c 0,21,22
 56.748046875 -53.048828125 56.748046875 -53.048828125 62.287109375 -60.6376953125 c 128,-1,23
 67.826171875 -68.2265625 67.826171875 -68.2265625 78.1044921875 -74.21875 c 128,-1,24
 88.3837890625 -80.2109375 88.3837890625 -80.2109375 99.669921875 -80.2109375 c 128,-1,25
 110.956054688 -80.2109375 110.956054688 -80.2109375 126.584960938 -70.0009765625 c 0,26,27
 150.00390625 -54.703125 150.00390625 -54.703125 176.708007812 -18.400390625 c 0,28,29
 304.788821076 162.962890625 304.788821076 162.962890625 659.594766799 674.978515625 c 0,30,31
 1023.01464844 1187.01464844 1023.01464844 1187.01464844 1123.359375 1312.46191406 c 0,32,33
 1155.69238281 1354.08007812 1155.69238281 1354.08007812 1155.69238281 1378.26074219 c 0,34,35
 1155.69238281 1385.7265625 1155.69238281 1385.7265625 1151.98242188 1390.83496094 c 128,-1,36
 1148.27246094 1395.94335938 1148.27246094 1395.94335938 1139.56054688 1400.87988281 c 1,37,38
 1125.68261719 1410.79296875 1125.68261719 1410.79296875 1109.14746094 1410.79296875 c 0,39,40
 1100.97070312 1410.79296875 1100.97070312 1410.79296875 1091.63574219 1408.63867188 c 0,41,42
 1061.34179688 1401.64746094 1061.34179688 1401.64746094 1036.15820312 1372.12890625 c 1,43,44
 956.34375 1248.13476562 956.34375 1248.13476562 753.358103748 961.96484375 c 2,45,-1
 355.104156599 393.416992188 l 2,46,47
 152.705078125 122.116210938 152.705078125 122.116210938 85.5146484375 24.7158203125 c 0,19,20
472.907223201 1013.08398438 m 0,48,49
 403.508440537 1019.24121094 403.508440537 1019.24121094 383.855648 1062.49121094 c 0,50,51
 374.568370392 1082.9296875 374.568370392 1082.9296875 374.568370392 1109.34179688 c 128,-1,52
 374.568370392 1135.75292969 374.568370392 1135.75292969 382.37318447 1167.85058594 c 1,53,54
 401.586561463 1235.70898438 401.586561463 1235.70898438 435.612843974 1275.88378906 c 0,55,56
 472.976699581 1320 472.976699581 1320 525.633479328 1320 c 0,57,58
 585.597911009 1320 585.597911009 1320 611.331240202 1275.16601562 c 0,59,60
 624.880036526 1251.56054688 624.880036526 1251.56054688 624.880036526 1216.3671875 c 0,61,62
 624.880036526 1188.54589844 624.880036526 1188.54589844 616.255942542 1152.24707031 c 1,63,64
 598.757820065 1089.86328125 598.757820065 1089.86328125 563.77420718 1051.41699219 c 128,-1,65
 528.789692004 1012.97070312 528.789692004 1012.97070312 477.359125243 1012.97070312 c 0,66,67
 474.947302349 1012.97070312 474.947302349 1012.97070312 472.907223201 1013.08398438 c 0,48,49
607.781628805 1.8662109375 m 128,-1,69
 641.018407001 -31.14453125 641.018407001 -31.14453125 694.142573303 -32.0029296875 c 2,70,-1
 700.649893434 -32.0595703125 l 2,71,72
 803.714944641 -32.0595703125 803.714944641 -32.0595703125 865.361246084 25.443359375 c 0,73,74
 931.875976562 85.9296875 931.875976562 85.9296875 963.873046875 203.568359375 c 1,75,-1
 964.049804688 204.185546875 l 2,76,77
 984.736328125 273.138671875 984.736328125 273.138671875 984.736328125 325.911132812 c 0,78,79
 984.736328125 386.162109375 984.736328125 386.162109375 962.65234375 417.079101562 c 128,-1,80
 940.568359375 447.99609375 940.568359375 447.99609375 908.682024528 462.498046875 c 0,81,82
 879.125689873 477 879.125689873 477 839.774990266 477 c 0,83,84
 739.143416928 477 739.143416928 477 666.900614151 401.586914062 c 128,-1,85
 594.657811374 326.172851562 594.657811374 326.172851562 569.395477898 207.377929688 c 0,86,87
 560.774993076 167.928710938 560.774993076 167.928710938 560.774993076 138.969726562 c 128,-1,88
 560.774993076 110.009765625 560.774993076 110.009765625 564.92192088 87.3837890625 c 0,89,68
 574.544850608 34.8759765625 574.544850608 34.8759765625 607.781628805 1.8662109375 c 128,-1,69
743.418470003 74.0322265625 m 0,90,91
 675.358686657 77.7783203125 675.358686657 77.7783203125 655.495660399 121.491210938 c 0,92,93
 646.208382791 141.9296875 646.208382791 141.9296875 646.208382791 168.119140625 c 128,-1,94
 646.208382791 194.30859375 646.208382791 194.30859375 653.964473175 225.6484375 c 0,95,96
 671.228902375 291.598632812 671.228902375 291.598632812 705.985138017 332.022460938 c 0,97,98
 743.796529784 376 743.796529784 376 795.425600486 376 c 0,99,100
 836.547496629 376 836.547496629 376 861.254921359 355.669921875 c 0,101,102
 893.54700125 329.096679688 893.54700125 329.096679688 893.54700125 273.833007812 c 0,103,104
 893.54700125 246.170898438 893.54700125 246.170898438 885.13855473 210.303710938 c 1,105,106
 868.562573292 150.875976562 868.562573292 150.875976562 833.52662755 112.381835938 c 128,-1,107
 798.491584098 73.8876953125 798.491584098 73.8876953125 749.35915161 73.8876953125 c 0,108,109
 746.507010881 73.8876953125 746.507010881 73.8876953125 743.418470003 74.0322265625 c 0,90,91
EndSplineSet
Validated: 524297
EndChar

StartChar: ampersand
Encoding: 38 38 9
Width: 1036
GlyphClass: 2
Flags: W
LayerCount: 2
Fore
SplineSet
964.216683214 11.2198907097 m 0,0,1
 973.314285714 39.2309299877 973.314285714 39.2309299877 973.314285714 62.2276334177 c 128,-1,2
 973.314285714 85.2243368478 973.314285714 85.2243368478 968.185392452 101.507432613 c 128,-1,3
 963.056499189 117.790528378 963.056499189 117.790528378 941.61101539 190.605426858 c 128,-1,4
 920.165531592 263.420325337 920.165531592 263.420325337 902.804143298 314.168998811 c 1,5,6
 956.405203362 378.733912071 956.405203362 378.733912071 1017.68691431 441.498245054 c 128,-1,7
 1078.96862525 504.262578037 1078.96862525 504.262578037 1092.56253683 522.406409672 c 0,8,9
 1128.28125 575.684822539 1128.28125 575.684822539 1128.28125 615.012695312 c 0,10,11
 1128.28125 638.269871483 1128.28125 638.269871483 1114.0776194 646.596137698 c 0,12,13
 1100.13913202 655.307692308 1100.13913202 655.307692308 1087.04733728 655.307692308 c 0,14,15
 1078.90965954 655.307692308 1078.90965954 655.307692308 1070.22908325 652.068671304 c 0,16,17
 1042.80734874 641.836680814 1042.80734874 641.836680814 1001.03734122 592.802324164 c 0,18,19
 992.134087119 582.634621195 992.134087119 582.634621195 977.028427684 559.976132042 c 128,-1,20
 961.922768249 537.31764289 961.922768249 537.31764289 937.394936537 499.274475337 c 128,-1,21
 912.867104825 461.231307783 912.867104825 461.231307783 865.802474265 391.872904853 c 1,22,-1
 849.396109545 438.748232625 l 2,23,24
 835.673866341 477.954641779 835.673866341 477.954641779 782.102287368 603.12188237 c 128,-1,25
 728.530708395 728.289122962 728.530708395 728.289122962 708.166340404 792.436882135 c 2,26,-1
 701.465172562 813.545560836 l 1,27,-1
 721.638677343 822.755204323 l 2,28,29
 766.41477055 843.196464265 766.41477055 843.196464265 799.756148191 863.008007501 c 128,-1,30
 832.926282679 882.717797559 832.926282679 882.717797559 875.797172528 915.954779576 c 128,-1,31
 918.668062376 949.191761593 918.668062376 949.191761593 949.375409949 985.095737218 c 128,-1,32
 980.082757523 1020.99971284 980.082757523 1020.99971284 1007.74371755 1074.89089359 c 128,-1,33
 1035.31071182 1128.5990031 1035.31071182 1128.5990031 1049.61618179 1190.53708284 c 0,34,35
 1064.40062848 1257.14389409 1064.40062848 1257.14389409 1053.24477641 1309.35328174 c 128,-1,36
 1042.08892435 1361.5626694 1042.08892435 1361.5626694 1011.06217132 1392.58942243 c 128,-1,37
 980.035418295 1423.61617546 980.035418295 1423.61617546 936.150800126 1440.80808773 c 128,-1,38
 892.266181957 1458 892.266181957 1458 841 1458 c 0,39,40
 777.806664548 1458 777.806664548 1458 723.549880212 1441.16168762 c 128,-1,41
 669.293095875 1424.32337524 669.293095875 1424.32337524 632.75668459 1397.96166077 c 128,-1,42
 596.220273305 1371.5999463 596.220273305 1371.5999463 567.15996701 1336.44634997 c 0,43,44
 512.755180896 1270.6341087 512.755180896 1270.6341087 497.405581135 1201.56090978 c 0,45,46
 485 1145.73579467 485 1145.73579467 485 1092.5 c 0,47,48
 485 1075.09682413 485 1075.09682413 491.512325712 1049.04752128 c 128,-1,49
 498.024651424 1022.99821843 498.024651424 1022.99821843 503.832389785 1005.57500335 c 0,50,51
 509.043763916 989.940880953 509.043763916 989.940880953 558.44261472 851.244160451 c 1,52,-1
 536.804802088 841.998913426 l 2,53,54
 218.518473471 706.003845744 218.518473471 706.003845744 132.36521594 331.382377604 c 0,55,56
 120.364485981 279.686925475 120.364485981 279.686925475 120.364485981 230.650083883 c 128,-1,57
 120.364485981 181.613242292 120.364485981 181.613242292 133.546556237 135.356159394 c 0,58,59
 158.815505246 46.6851201435 158.815505246 46.6851201435 227.203402774 -6.65743992825 c 128,-1,60
 295.591300302 -60 295.591300302 -60 394 -60 c 0,61,62
 425.43306046 -60 425.43306046 -60 457.430248784 -53.4123435804 c 128,-1,63
 489.427437108 -46.8246871608 489.427437108 -46.8246871608 513.865864225 -38.5248439888 c 128,-1,64
 538.304291343 -30.2250008168 538.304291343 -30.2250008168 566.851347042 -12.6209831358 c 128,-1,65
 595.398402741 4.98303454513 595.398402741 4.98303454513 613.390068791 17.2931218428 c 0,66,67
 637.865075537 34.0391790899 637.865075537 34.0391790899 696.192885635 90.0338767841 c 0,68,69
 708.151283166 101.513938414 708.151283166 101.513938414 732.279486256 127.611790736 c 128,-1,70
 756.407689346 153.709643058 756.407689346 153.709643058 763.180782764 161.450321249 c 2,71,-1
 795.886468731 198.828248069 l 1,72,-1
 806.430140312 150.327358801 l 2,73,74
 811.631778515 126.399823065 811.631778515 126.399823065 818.412751917 77.4799435227 c 128,-1,75
 825.193725319 28.5600639809 825.193725319 28.5600639809 827.324888643 16.9197256025 c 0,76,77
 841.677510989 -31.123383824 841.677510989 -31.123383824 871.323501746 -49.84716685 c 0,78,79
 884.636409553 -58.2553191489 884.636409553 -58.2553191489 897.192992009 -58.2553191489 c 0,80,81
 908.981357604 -58.2553191489 908.981357604 -58.2553191489 924.576191128 -49.7606430047 c 0,82,83
 948.396517929 -37.4895655616 948.396517929 -37.4895655616 964.216683214 11.2198907097 c 0,0,1
799 1346 m 0,84,85
 871.461095634 1346 871.461095634 1346 912.953217743 1297.79591696 c 0,86,87
 941.230769231 1264.94405567 941.230769231 1264.94405567 941.230769231 1214.24186391 c 0,88,89
 941.230769231 1189.44974624 941.230769231 1189.44974624 934.374479686 1160.41948028 c 0,90,91
 922.568110545 1106.86524875 922.568110545 1106.86524875 899.888473692 1067.03759375 c 128,-1,92
 877.208836839 1027.20993875 877.208836839 1027.20993875 842.639468475 1000.87137238 c 128,-1,93
 808.070100112 974.532806005 808.070100112 974.532806005 773.56436662 958.076225417 c 128,-1,94
 739.058633129 941.619644828 739.058633129 941.619644828 691.280055935 927.078338726 c 2,95,-1
 672.102161097 921.241588123 l 1,96,-1
 662.220106043 938.725223987 l 2,97,98
 634.175729635 988.342197633 634.175729635 988.342197633 621.919475471 1054.41939399 c 0,99,100
 615.872340426 1087.02133946 615.872340426 1087.02133946 615.872340426 1117.94874615 c 128,-1,101
 615.872340426 1148.87615284 615.872340426 1148.87615284 622.625379188 1177.57656758 c 0,102,103
 639.110878213 1249.82184272 639.110878213 1249.82184272 674.870889783 1291.31905241 c 0,104,105
 721.991921129 1346 721.991921129 1346 799 1346 c 0,84,85
292.92039474 167.699324876 m 0,106,107
 267.157480315 215.544737379 267.157480315 215.544737379 267.157480315 278.250542501 c 0,108,109
 267.157480315 317.774774421 267.157480315 317.774774421 277.673934638 362.785198923 c 0,110,111
 292.107039739 423.610427565 292.107039739 423.610427565 312.964596378 475.232880246 c 128,-1,112
 333.822153017 526.855332927 333.822153017 526.855332927 368.132551903 577.00130053 c 128,-1,113
 402.44295079 627.147268134 402.44295079 627.147268134 454.327337098 668.972436688 c 128,-1,114
 506.012719018 710.637183338 506.012719018 710.637183338 572.170117021 738.990353911 c 2,115,-1
 596.692811393 749.50008007 l 1,116,-1
 605.582360423 724.313024486 l 2,117,118
 623.325491302 674.040820327 623.325491302 674.040820327 668.460483176 567.72283947 c 128,-1,119
 713.595475049 461.404858613 713.595475049 461.404858613 726.145135674 411.514913447 c 0,120,121
 739.420948672 365.431933334 739.420948672 365.431933334 757.004010395 271.655604145 c 1,122,-1
 747.674203125 262.325796875 l 2,123,124
 744.223316006 258.874909756 744.223316006 258.874909756 725.357826117 237.527118566 c 128,-1,125
 706.492336229 216.179327377 706.492336229 216.179327377 698.619160868 207.781273659 c 128,-1,126
 690.745985507 199.38321994 690.745985507 199.38321994 669.197142383 178.885539895 c 128,-1,127
 647.648299258 158.387859849 647.648299258 158.387859849 633.164251581 148.731828065 c 128,-1,128
 618.680203905 139.075796281 618.680203905 139.075796281 594.698868037 123.62115761 c 128,-1,129
 570.717532169 108.16651894 570.717532169 108.16651894 548.05318472 100.980262432 c 0,130,131
 488.192357051 82 488.192357051 82 442.085883503 82 c 0,132,133
 339.066185058 82 339.066185058 82 292.92039474 167.699324876 c 0,106,107
EndSplineSet
Validated: 524329
EndChar

StartChar: quotesingle
Encoding: 39 39 10
Width: 1019
GlyphClass: 2
Flags: W
LayerCount: 2
Fore
SplineSet
890 1557 m 2,0,-1
 889.295126209 1557 l 2,1,2
 884.795126209 1557.25 884.795126209 1557.25 877.283724089 1557.25 c 0,3,4
 855.304021987 1557.25 855.304021987 1557.25 826.462087315 1546.1569482 c 0,5,6
 813.453196446 1541.15352864 813.453196446 1541.15352864 803.432519395 1528.269801 c 128,-1,7
 793.411842345 1515.38607337 793.411842345 1515.38607337 789.551564514 1496.26133088 c 0,8,9
 769.481422577 1386.90509561 769.481422577 1386.90509561 738.861574197 1247.86086504 c 128,-1,10
 708.241725816 1108.81663448 708.241725816 1108.81663448 677.0165433 1001.0393916 c 0,11,12
 672.842105263 987.302922378 672.842105263 987.302922378 672.842105263 976.404611682 c 128,-1,13
 672.842105263 965.506300987 672.842105263 965.506300987 680.674203125 957.674203125 c 0,14,15
 697.886209166 940.462197084 697.886209166 940.462197084 726.332709036 938.96501288 c 2,16,-1
 726.630752988 938.947556483 l 2,17,18
 728.573434029 938.822222222 728.573434029 938.822222222 730.522962963 938.822222222 c 0,19,20
 751.664546233 938.822222222 751.664546233 938.822222222 775.991534637 954.166937985 c 128,-1,21
 800.318523042 969.511653748 800.318523042 969.511653748 812.412815323 1003.3001404 c 0,22,23
 837.051333093 1074.2951175 837.051333093 1074.2951175 879.813789553 1244.35046616 c 128,-1,24
 922.576246012 1414.40581482 922.576246012 1414.40581482 939.488038048 1494.94067939 c 0,25,26
 943.480392886 1515.8450117 943.480392886 1515.8450117 940.992690732 1527.66159693 c 128,-1,27
 938.504988578 1539.47818216 938.504988578 1539.47818216 933.271734277 1543.30248338 c 0,28,29
 914.527764166 1557 914.527764166 1557 890 1557 c 2,0,-1
EndSplineSet
Validated: 524297
EndChar

StartChar: parenleft
Encoding: 40 40 11
Width: 1027
GlyphClass: 2
Flags: W
LayerCount: 2
Fore
SplineSet
718 -121 m 0,0,1
 661.28185634 -121 661.28185634 -121 616.277238151 -59.1936576864 c 0,2,3
 576.032939919 -3.92482144805 576.032939919 -3.92482144805 552.571764899 84.1849247364 c 0,4,5
 524.303852549 190.346640007 524.303852549 190.346640007 524.304347826 335.883742911 c 0,6,7
 524.304347826 436.488953101 524.304347826 436.488953101 541.413775549 547.910560134 c 128,-1,8
 558.523203272 659.332167168 558.523203272 659.332167168 611.490322319 846.98710322 c 128,-1,9
 664.457441367 1034.64203927 664.457441367 1034.64203927 714.256963982 1143.3879356 c 0,10,11
 784.898422324 1299.65540405 784.898422324 1299.65540405 871.936214437 1402.16658143 c 0,12,13
 919.496903332 1458.1825039 919.496903332 1458.1825039 974.188432442 1492.09125195 c 128,-1,14
 1028.87996155 1526 1028.87996155 1526 1085 1526 c 0,15,16
 1111.15623724 1526 1111.15623724 1526 1131.95880816 1540.48750475 c 128,-1,17
 1152.76137908 1554.9750095 1152.76137908 1554.9750095 1160.62058452 1589.55551344 c 0,18,19
 1163.76041667 1603.27162228 1163.76041667 1603.27162228 1163.76041667 1613.60297309 c 0,20,21
 1163.76041667 1630.1647975 1163.76041667 1630.1647975 1155.20484859 1636.08239875 c 128,-1,22
 1146.64928052 1642 1146.64928052 1642 1127 1642 c 0,23,24
 1068.50934511 1642 1068.50934511 1642 999.030182231 1609.85997908 c 128,-1,25
 929.551019357 1577.71995816 929.551019357 1577.71995816 866.11849781 1523.97179104 c 128,-1,26
 802.685976264 1470.22362393 802.685976264 1470.22362393 747.497565649 1405.75574605 c 128,-1,27
 692.441241495 1341.44216385 692.441241495 1341.44216385 653.564273409 1275.3513181 c 0,28,29
 565.033896872 1122.88233629 565.033896872 1122.88233629 490.753786352 885.681183362 c 128,-1,30
 416.473675832 648.480030434 416.473675832 648.480030434 395.757643802 500.508373073 c 0,31,32
 378.035087719 374.788990865 378.035087719 374.788990865 378.035087719 265.66943675 c 0,33,34
 378.035087719 180.83597032 378.035087719 180.83597032 388.746441258 106.070722621 c 0,35,36
 412.75920655 -61.5383791186 412.75920655 -61.5383791186 489.317614399 -154.637183725 c 0,37,38
 562.803788189 -244 562.803788189 -244 678 -244 c 0,39,40
 696.671816338 -244 696.671816338 -244 719.695663194 -226.732114858 c 128,-1,41
 742.719510051 -209.464229715 742.719510051 -209.464229715 748.64841204 -185.317430834 c 0,42,43
 753.210345028 -157.819132502 753.210345028 -157.819132502 753.27183918 -146.936450552 c 128,-1,44
 753.333333333 -136.053768602 753.333333333 -136.053768602 749.811542954 -131.240655084 c 0,45,46
 742.318380697 -121 742.318380697 -121 718 -121 c 0,0,1
EndSplineSet
Validated: 524329
EndChar

StartChar: parenright
Encoding: 41 41 12
Width: 1027
GlyphClass: 2
Flags: W
LayerCount: 2
Fore
SplineSet
982.623853211 1169.65659456 m 0,0,1
 982.623853211 1232.41871114 982.623853211 1232.41871114 976.186699459 1284.93233385 c 0,2,3
 968.559414678 1349.76425449 968.559414678 1349.76425449 943.226681362 1412.85709973 c 128,-1,4
 917.893948047 1475.94994497 917.893948047 1475.94994497 880.803819957 1528.06392241 c 128,-1,5
 843.713691868 1580.17789985 843.713691868 1580.17789985 791.437651302 1611.08894993 c 128,-1,6
 739.161610736 1642 739.161610736 1642 681 1642 c 0,7,8
 660.316068312 1642 660.316068312 1642 640.550529324 1631.09487504 c 0,9,10
 631.49080481 1626.09640634 631.49080481 1626.09640634 622.925647803 1613.06247177 c 128,-1,11
 614.360490796 1600.02853719 614.360490796 1600.02853719 610.456107467 1583.01589991 c 128,-1,12
 606.551724138 1566.00326262 606.551724138 1566.00326262 606.551724138 1554.71889502 c 128,-1,13
 606.551724138 1543.43452741 606.551724138 1543.43452741 611.903975257 1537.94142757 c 0,14,15
 623.539212381 1526 623.539212381 1526 648 1526 c 0,16,17
 705.273848031 1526 705.273848031 1526 747.212419448 1489.88623017 c 128,-1,18
 789.150990866 1453.77246034 789.150990866 1453.77246034 810.758774838 1396.51183281 c 128,-1,19
 832.36655881 1339.25120528 832.36655881 1339.25120528 841.233279405 1276.69156553 c 128,-1,20
 850.1 1214.13192578 850.1 1214.13192578 850.1 1147.505 c 0,21,22
 850.1 1030.10763258 850.1 1030.10763258 816.727818641 839.116071575 c 128,-1,23
 783.355637282 648.124510566 783.355637282 648.124510566 745.875361922 529.568718031 c 0,24,25
 707.282830435 403.66670414 707.282830435 403.66670414 647.394048632 283.381608966 c 128,-1,26
 587.461087954 163.007781163 587.461087954 163.007781163 524.44921514 76.4304924993 c 128,-1,27
 461.437342325 -10.1467961641 461.437342325 -10.1467961641 398.112951545 -63.6091916588 c 0,28,29
 330.135489238 -121 330.135489238 -121 276 -121 c 0,30,31
 247.933116316 -121 247.933116316 -121 229.735450814 -135.922085712 c 128,-1,32
 211.537785312 -150.844171424 211.537785312 -150.844171424 201.353986323 -196.671266873 c 0,33,34
 199.714285714 -203.435031884 199.714285714 -203.435031884 199.714285714 -209 c 0,35,36
 199.714285714 -220.930474527 199.714285714 -220.930474527 207.689136985 -229.902182207 c 0,37,38
 220.220530579 -244 220.220530579 -244 236 -244 c 0,39,40
 355.420361784 -244 355.420361784 -244 476.695154901 -149.568639351 c 128,-1,41
 597.969948018 -55.1372787028 597.969948018 -55.1372787028 701.022627851 116.126460639 c 128,-1,42
 804.075307684 287.39019998 804.075307684 287.39019998 876.194588579 511.651525504 c 0,43,44
 924.578663572 659.766040789 924.578663572 659.766040789 959.771022868 897.190549276 c 0,45,46
 982.623853211 1051.36668638 982.623853211 1051.36668638 982.623853211 1169.65659456 c 0,0,1
EndSplineSet
Validated: 524297
EndChar

StartChar: asterisk
Encoding: 42 42 13
Width: 1036
GlyphClass: 2
Flags: W
LayerCount: 2
Fore
SplineSet
775.5625 264.75 m 0,0,1
 802.422354685 264.75 802.422354685 264.75 822.060897117 275.972024247 c 128,-1,2
 841.69943955 287.194048495 841.69943955 287.194048495 852.043831527 315.162219395 c 0,3,4
 857.93877551 331.100401275 857.93877551 331.100401275 857.93877551 348.357346656 c 128,-1,5
 857.93877551 365.614292038 857.93877551 365.614292038 853.853846589 383.436767369 c 1,6,-1
 770.216693235 651.301704464 l 1,7,8
 848.911349558 652.941176471 848.911349558 652.941176471 887.100346021 652.941176471 c 0,9,10
 1014.58732137 652.941176471 1014.58732137 652.941176471 1062.55551344 642.379415478 c 0,11,12
 1067.41114844 641.275862069 1067.41114844 641.275862069 1073.8327889 641.275862069 c 128,-1,13
 1080.25442937 641.275862069 1080.25442937 641.275862069 1088.2961454 645.095677187 c 0,14,15
 1113.20852054 656.929055376 1113.20852054 656.929055376 1131.66693696 698.189045023 c 0,16,17
 1143.22033787 724.014294107 1143.22033787 724.014294107 1143.22033842 740.747906188 c 128,-1,18
 1143.22033898 757.481518269 1143.22033898 757.481518269 1129.80907104 774.602285859 c 0,19,20
 1121.30813435 785.454545455 1121.30813435 785.454545455 1106.99483471 785.454545455 c 0,21,22
 1098.65175039 785.454545455 1098.65175039 785.454545455 1086.95520498 781.981891889 c 0,23,24
 1007.56321482 759 1007.56321482 759 838 759 c 2,25,-1
 788.073735942 759 l 1,26,-1
 817.971248438 798.956488662 l 2,27,28
 925.502494914 942.66647227 925.502494914 942.66647227 1009.08282391 1039.33769617 c 0,29,30
 1039.25 1074.33162043 1039.25 1074.33162043 1039.25 1112.75 c 0,31,32
 1039.25 1122.1778273 1039.25 1122.1778273 1036.77645259 1129.59846952 c 0,33,34
 1032.11923262 1143.57012943 1032.11923262 1143.57012943 1023.77648753 1148.78434512 c 2,35,-1
 1022.11922947 1149.8201314 l 1,36,37
 1011.46580394 1159.05310019 1011.46580394 1159.05310019 995.796326531 1159.05714286 c 128,-1,38
 979.958255979 1159.05714286 979.958255979 1159.05714286 957.276061331 1146.15175625 c 128,-1,39
 934.593866682 1133.24636964 934.593866682 1133.24636964 916.91636046 1106.3092173 c 0,40,41
 855.392727777 1012.51089206 855.392727777 1012.51089206 746.805400577 871.749541987 c 2,42,-1
 715.413647699 831.056528996 l 1,43,44
 655.677578668 1066.18786454 655.677578668 1066.18786454 645.515534401 1116.92679216 c 0,45,46
 640.540880895 1140.22503517 640.540880895 1140.22503517 624.667933803 1151.36987053 c 128,-1,47
 608.794986711 1162.51470588 608.794986711 1162.51470588 591.998269896 1162.51470588 c 0,48,49
 572.942225517 1162.51470588 572.942225517 1162.51470588 555.656283506 1151.81388464 c 1,50,-1
 554.071530113 1151.11472873 l 2,51,52
 530.131717543 1140.55304671 530.131717543 1140.55304671 518.171448651 1105.44387029 c 0,53,54
 511.873015873 1086.95492246 511.873015873 1086.95492246 511.873015873 1068.22996534 c 128,-1,55
 511.873015873 1049.50500822 511.873015873 1049.50500822 518.337551291 1030.04890581 c 0,56,57
 553.737665955 949.867582553 553.737665955 949.867582553 600.847421563 800.51962899 c 2,58,-1
 611.917363441 765.42555793 l 1,59,60
 408.045270935 780.075049607 408.045270935 780.075049607 320.800895734 788.095317607 c 0,61,62
 316.535099009 788.330899117 316.535099009 788.330899117 315.055555556 788.333333333 c 0,63,64
 300.756186016 788.333333333 300.756186016 788.333333333 285.848756282 781.557228909 c 0,65,66
 259.726543215 769.683495697 259.726543215 769.683495697 240.607136301 729.320303322 c 0,67,68
 233.089934742 713.450655587 233.089934742 713.450655587 230.521450958 698.039752881 c 0,69,70
 228.054545455 687.623929645 228.054545455 687.623929645 228.054545455 678.716363636 c 0,71,72
 228.054545455 660.981702105 228.054545455 660.981702105 237.242470915 644.840751972 c 0,73,74
 243.340498155 634.128001415 243.340498155 634.128001415 254.013238271 629.564000708 c 128,-1,75
 264.685978388 625 264.685978388 625 280 625 c 0,76,77
 353.123357901 625 353.123357901 625 511.252558956 635.939756048 c 2,78,-1
 568.024973674 639.867407381 l 1,79,-1
 354.955873988 372.932524066 l 1,80,81
 336.13444672 346.569118208 336.13444672 346.569118208 333.856788429 325.310974157 c 0,82,83
 333.181818182 319.011251849 333.181818182 319.011251849 333.181818182 309.316190551 c 128,-1,84
 333.181818182 299.621129253 333.181818182 299.621129253 337.876195316 288.178584988 c 128,-1,85
 342.57057245 276.736040723 342.57057245 276.736040723 351.201310202 269.846688105 c 0,86,87
 359.026930886 264.08460519 359.026930886 264.08460519 371.608318802 261.104802595 c 128,-1,88
 384.189706718 258.125 384.189706718 258.125 392.912830089 258.125 c 128,-1,89
 401.635953459 258.125 401.635953459 258.125 406.277563714 258.441473426 c 0,90,91
 422.25390344 259.530769317 422.25390344 259.530769317 438.252072419 269.204080793 c 0,92,93
 453.817140491 278.615517301 453.817140491 278.615517301 464.299951286 297.414981743 c 0,94,95
 499.897122011 359.455765007 499.897122011 359.455765007 634.592152357 549.436069002 c 2,96,-1
 666.004058909 593.740922273 l 1,97,-1
 679.246449591 541.110908025 l 2,98,99
 718.811456384 383.865368203 718.811456384 383.865368203 723.953119774 299.542088618 c 0,100,101
 724.505787634 290.69940285 724.505787634 290.69940285 727.809324901 284.440069082 c 128,-1,102
 731.112862167 278.180735314 731.112862167 278.180735314 738.826455278 274.0272621 c 0,103,104
 756.055656322 264.75 756.055656322 264.75 775.5625 264.75 c 0,0,1
EndSplineSet
Validated: 524297
EndChar

StartChar: plus
Encoding: 43 43 14
Width: 1031
GlyphClass: 2
Flags: W
LayerCount: 2
Fore
SplineSet
408 755 m 2,0,-1
 600 757 l 1,1,-1
 631.355572487 757 l 1,2,-1
 574.3198965 507.183739173 l 2,3,4
 570.760775074 492.269325581 570.760775074 492.269325581 570.759615385 481.049556213 c 0,5,6
 570.759615385 463.174904291 570.759615385 463.174904291 580.390029993 456.655854402 c 128,-1,7
 590.020444601 450.136804513 590.020444601 450.136804513 611.226100299 450.002447141 c 0,8,9
 635.902287639 451.678848256 635.902287639 451.678848256 653.244807537 465.408346304 c 0,10,11
 670.081315886 478.737251785 670.081315886 478.737251785 679.744394516 519.074402191 c 0,12,13
 683.654676272 534.715529215 683.654676272 534.715529215 700.132322168 610.113242251 c 128,-1,14
 716.609968063 685.510955287 716.609968063 685.510955287 734.021495856 760.514459625 c 1,15,16
 818.485881055 762.6 818.485881055 762.6 877.541029139 762.6 c 128,-1,17
 936.596177223 762.6 936.596177223 762.6 967.546116319 758.876605735 c 0,18,19
 973.418538312 758.558727364 973.418538312 758.558727364 975.395061728 758.555555556 c 0,20,21
 1004.05436266 758.555555556 1004.05436266 758.555555556 1017.90285484 776.016697878 c 0,22,23
 1027.57295171 788.209428715 1027.57295171 788.209428715 1033.33200204 800.550250835 c 0,24,25
 1043.94594548 823.294415352 1043.94594548 823.294415352 1043.94594595 845.177501826 c 0,26,27
 1043.94594595 858.62853411 1043.94594595 858.62853411 1038.95464537 866.814267055 c 128,-1,28
 1033.96334479 875 1033.96334479 875 1003 875 c 2,29,-1
 761.547345383 875 l 1,30,31
 793.791209782 1014.2934942 793.791209782 1014.2934942 827.973396136 1132.92578802 c 0,32,33
 833.338028169 1151.16553693 833.338028169 1151.16553693 833.338028169 1162.43739997 c 128,-1,34
 833.338028169 1173.70926302 833.338028169 1173.70926302 829.761177133 1176.93715298 c 0,35,36
 818.394238542 1187.19512195 818.394238542 1187.19512195 795.248066627 1187.19512195 c 2,37,-1
 788 1187 l 2,38,39
 750.843017065 1187 750.843017065 1187 732.05028093 1167.49810401 c 0,40,41
 716.362263861 1151.2180863 716.362263861 1151.2180863 710.596453336 1119.50612841 c 0,42,43
 688.473491981 1000.84660842 688.473491981 1000.84660842 659.849039535 878 c 1,44,-1
 640 878 l 2,45,46
 579.617559511 878 579.617559511 878 446.236081569 882.011473021 c 2,47,-1
 445.943299851 882.021974414 l 2,48,49
 443.160340951 882.137931034 443.160340951 882.137931034 440.469678954 882.137931034 c 0,50,51
 406.829304276 882.137931034 406.829304276 882.137931034 387.027237206 863.701523762 c 0,52,53
 364.094067539 842.349952003 364.094067539 842.349952003 358.586089798 812.449501408 c 0,54,55
 356.490196078 802.132026433 356.490196078 802.132026433 356.490196078 795.445213379 c 0,56,57
 356.490196078 780.749825031 356.490196078 780.749825031 364.127202519 769.621615647 c 0,58,59
 374.161644629 755 374.161644629 755 408 755 c 2,0,-1
EndSplineSet
Validated: 524297
EndChar

StartChar: comma
Encoding: 44 44 15
Width: 1023
GlyphClass: 2
Flags: W
LayerCount: 2
Fore
SplineSet
214.068965517 -378.385255648 m 0,0,1
 214.068965517 -391.536938792 214.068965517 -391.536938792 220.552676437 -401.262505172 c 128,-1,2
 227.036387357 -410.988071552 227.036387357 -410.988071552 238.232289893 -414.720039064 c 0,3,4
 246.083145926 -418.365079365 246.083145926 -418.365079365 256.028470648 -418.365079365 c 0,5,6
 273.639934791 -418.365079365 273.639934791 -418.365079365 299.483987986 -408.990275755 c 0,7,8
 344.831361853 -392.540738176 344.831361853 -392.540738176 381.708726298 -352.965029991 c 0,9,10
 424.40797172 -306.470296087 424.40797172 -306.470296087 534.302852347 -99.5511064373 c 128,-1,11
 644.197732975 107.368083212 644.197732975 107.368083212 686.848471349 206.455312066 c 0,12,13
 693.367699704 229.528747126 693.367699704 229.528747126 693.522832903 238.679139355 c 128,-1,14
 693.677966102 247.829531583 693.677966102 247.829531583 689.892863699 255.820303322 c 0,15,16
 681.052213151 274.483898923 681.052213151 274.483898923 664.662599648 281.033921587 c 0,17,18
 649.100040016 284.545454471 649.100040016 284.545454471 631.752066116 284.545454545 c 0,19,20
 629.910210777 284.545454545 629.910210777 284.545454545 628.041038688 284.505750776 c 0,21,22
 611.744540297 284.159016768 611.744540297 284.159016768 592.8887031 271.714164217 c 128,-1,23
 574.032865902 259.269311667 574.032865902 259.269311667 564.990353911 238.170117021 c 0,24,25
 529.475204222 153.948476329 529.475204222 153.948476329 410.087169259 -56.1140155676 c 128,-1,26
 290.699134296 -266.176507465 290.699134296 -266.176507465 236.056111228 -329.177726517 c 0,27,28
 216.15721645 -353.125875104 216.15721645 -353.125875104 214.388617995 -371.873054024 c 0,29,30
 214.068965517 -375.261370286 214.068965517 -375.261370286 214.068965517 -378.385255648 c 0,0,1
EndSplineSet
Validated: 524297
EndChar

StartChar: hyphen
Encoding: 45 45 16
Width: 1028
GlyphClass: 2
Flags: W
LayerCount: 2
Fore
SplineSet
454 650 m 0,0,1
 418.261648385 650 418.261648385 650 400.013455149 630.260367894 c 0,2,3
 384.448604441 613.423389965 384.448604441 613.423389965 378.510259978 580.020202364 c 0,4,5
 375.078431373 564.920156498 375.078431373 564.920156498 375.078431373 553.873510188 c 0,6,7
 375.078431373 535.39620784 375.078431373 535.39620784 384.783070575 528.69810392 c 128,-1,8
 394.487709778 522 394.487709778 522 416 522 c 0,9,10
 482.324179797 522 482.324179797 522 651.324179797 531 c 128,-1,11
 820.324179798 540 820.324179798 540 846 540 c 0,12,13
 880.299796714 540 880.299796714 540 899.387002731 560.021544773 c 0,14,15
 915.677623688 577.109608714 915.677623688 577.109608714 923.481310748 609.966919084 c 0,16,17
 927.659424584 635.178429143 927.659424584 635.178429143 920.139251927 647.511512301 c 0,18,19
 914.963344794 656 914.963344794 656 884 656 c 0,20,21
 864.25285032 656 864.25285032 656 713.25285032 653 c 128,-1,22
 562.25285032 650 562.25285032 650 454 650 c 0,0,1
EndSplineSet
Validated: 524297
EndChar

StartChar: period
Encoding: 46 46 17
Width: 1022
GlyphClass: 2
Flags: W
LayerCount: 2
Fore
SplineSet
678.891304348 174.810491493 m 0,0,1
 678.891304348 206.899836987 678.891304348 206.899836987 662.398022654 230.84169751 c 0,2,3
 640.804247606 262.1875 640.804247606 262.1875 592.35546875 262.1875 c 0,4,5
 534.619551641 262.1875 534.619551641 262.1875 478.141034291 219.110664733 c 0,6,7
 426.260898686 179.541069781 426.260898686 179.541069781 413.321682355 125.19636119 c 0,8,9
 408.775510204 105.875129548 408.775510204 105.875129548 408.775510204 88.5643481883 c 0,10,11
 408.775510204 54.4032441777 408.775510204 54.4032441777 426.816174571 27.3422476269 c 0,12,13
 447.786368641 -4.11304347826 447.786368641 -4.11304347826 491.720151229 -4.11304347826 c 0,14,15
 499.580743985 -4.11304347826 499.580743985 -4.11304347826 508.213394292 -3.15386011089 c 0,16,17
 571.455030069 3.97195800486 571.455030069 3.97195800486 616.45444974 43.2361575219 c 128,-1,18
 661.453869411 82.5003570388 661.453869411 82.5003570388 674.638990107 139.635880053 c 0,19,20
 678.891304348 158.346062714 678.891304348 158.346062714 678.891304348 174.810491493 c 0,0,1
EndSplineSet
Validated: 524297
EndChar

StartChar: slash
Encoding: 47 47 18
Width: 1036
GlyphClass: 2
Flags: W
LayerCount: 2
Fore
SplineSet
52.0606060606 -64.4247015611 m 0,0,1
 52.0606060606 -87.8910334422 52.0606060606 -87.8910334422 60.0330292797 -93.3122812312 c 2,2,-1
 61.0111797195 -93.9774235303 l 1,3,4
 69.805303592 -101.255319149 69.805303592 -101.255319149 83.1845878726 -101.255319149 c 128,-1,5
 96.5638721531 -101.255319149 96.5638721531 -101.255319149 117.487239811 -92.0888914132 c 0,6,7
 164.125902661 -71.6567153076 164.125902661 -71.6567153076 204.199423227 -19.7432909373 c 0,8,9
 228.689056362 12.5830248014 228.689056362 12.5830248014 332.069186052 163.408141547 c 128,-1,10
 435.449315741 314.233258292 435.449315741 314.233258292 480.650771514 378.519773168 c 1,11,12
 553.06606844 478.090806441 553.06606844 478.090806441 875.723189563 886.157165508 c 128,-1,13
 1198.38031069 1294.22352458 1198.38031069 1294.22352458 1272.29608468 1399.01629463 c 0,14,15
 1301.50724334 1443.82316881 1301.50724334 1443.82316881 1301.50724638 1473.4099979 c 0,16,17
 1301.50724638 1497.4327106 1301.50724638 1497.4327106 1283.68838271 1509.19272066 c 0,18,19
 1265.35050094 1518.0509 1265.35050094 1518.0509 1247.24403731 1518.05247702 c 128,-1,20
 1229.13757367 1518.05405405 1229.13757367 1518.05405405 1205.19874952 1504.08973997 c 128,-1,21
 1181.25992538 1490.12542588 1181.25992538 1490.12542588 1161.42781026 1462.59063777 c 0,22,23
 954.225195081 1164.30545584 954.225195081 1164.30545584 774.975006123 928.971432234 c 0,24,25
 489.672000143 546.56985549 489.672000143 546.56985549 96.5427261658 54.414931239 c 0,26,27
 60.8382442798 9.78432888154 60.8382442798 9.78432888154 53.7685442217 -41.9128527936 c 0,28,29
 52.0606060606 -54.4021505966 52.0606060606 -54.4021505966 52.0606060606 -64.4247015611 c 0,0,1
EndSplineSet
Validated: 524297
EndChar

StartChar: zero
Encoding: 48 48 19
Width: 934
GlyphClass: 2
Flags: W
LayerCount: 2
Fore
SplineSet
184.255859375 431.92578125 m 0,0,1
 163.810546875 350.876953125 163.810546875 350.876953125 163.810546875 281.166992188 c 0,2,3
 163.810546875 258.999023438 163.810546875 258.999023438 165.87890625 237.97265625 c 0,4,5
 174.296875 152.388671875 174.296875 152.388671875 210.362304688 95.779296875 c 128,-1,6
 246.427734375 39.1708984375 246.427734375 39.1708984375 308.264648438 7.5654296875 c 128,-1,7
 370.102539062 -24.041015625 370.102539062 -24.041015625 448.854105351 -25 c 0,8,9
 499.302949149 -25 499.302949149 -25 536.429769591 -22.0927734375 c 128,-1,10
 573.555709646 -19.1865234375 573.555709646 -19.1865234375 611.669444454 -10.16015625 c 128,-1,11
 649.784059649 -1.134765625 649.784059649 -1.134765625 679.675855776 14.2763671875 c 128,-1,12
 709.567651903 29.6875 709.567651903 29.6875 741.376051575 55.091796875 c 128,-1,13
 773.185331635 80.4951171875 773.185331635 80.4951171875 801.502114559 117.616210938 c 0,14,15
 860.735464637 195.267578125 860.735464637 195.267578125 922.432617188 325.763671875 c 0,16,17
 954.549804688 392.91796875 954.549804688 392.91796875 992.663085938 524.580078125 c 128,-1,18
 1030.77539062 656.2421875 1030.77539062 656.2421875 1059.59863281 785.458984375 c 128,-1,19
 1088.42578125 914.68359375 1088.42578125 914.68359375 1104.30273438 1015.8984375 c 0,20,21
 1113.03125 1074.43066406 1113.03125 1074.43066406 1113.03125 1122.66113281 c 128,-1,22
 1113.03125 1170.89160156 1113.03125 1170.89160156 1106.35253906 1210.29882812 c 0,23,24
 1092.37792969 1292.74707031 1092.37792969 1292.74707031 1054.11914062 1342.84765625 c 128,-1,25
 1015.86621094 1392.94042969 1015.86621094 1392.94042969 960.153320312 1418.97070312 c 128,-1,26
 904.44140625 1445 904.44140625 1445 836.375143051 1445 c 0,27,28
 700.556005652 1445 700.556005652 1445 593.596850253 1380.67480469 c 128,-1,29
 486.637694854 1316.35058594 486.637694854 1316.35058594 420.426393605 1192.43164062 c 0,30,31
 391.41015625 1139.79589844 391.41015625 1139.79589844 361.9140625 1069.98730469 c 128,-1,32
 332.416992188 1000.1796875 332.416992188 1000.1796875 312.223632812 939.598632812 c 128,-1,33
 291.970703125 878.83984375 291.970703125 878.83984375 269.608398438 794.358398438 c 128,-1,34
 247.245117188 709.877929688 247.245117188 709.877929688 235.813476562 662.162109375 c 128,-1,35
 224.377929688 614.432617188 224.377929688 614.432617188 206.865234375 533.373046875 c 128,-1,36
 189.352539062 452.313476562 189.352539062 452.313476562 184.255859375 431.92578125 c 0,0,1
599.419733049 1261.19238281 m 128,-1,38
 671.222375188 1329 671.222375188 1329 775.072002005 1329 c 0,39,40
 834.985011219 1329 834.985011219 1329 881.301757812 1296.34375 c 0,41,42
 931.145507812 1263.6875 931.145507812 1263.6875 956.100585938 1203.56835938 c 2,43,-1
 961.569335938 1190.39257812 l 1,44,-1
 952.987304688 1178.98828125 l 2,45,46
 675.248387136 782.037109375 675.248387136 782.037109375 362.499023438 406.190429688 c 2,47,-1
 290.6015625 327.125 l 1,48,-1
 319.958007812 429.872070312 l 2,49,50
 321.537109375 435.399414062 321.537109375 435.399414062 323.9609375 450.913085938 c 128,-1,51
 326.385742188 466.427734375 326.385742188 466.427734375 328.528320312 476.138671875 c 2,52,-1
 356.485351562 617.921875 l 2,53,54
 364.536132812 658.174804688 364.536132812 658.174804688 386.166992188 755.768554688 c 128,-1,55
 407.798828125 853.362304688 407.798828125 853.362304688 427.244114254 923.595703125 c 128,-1,56
 446.514035428 993.828125 446.514035428 993.828125 468.779034811 1046.37109375 c 0,57,37
 527.617090911 1193.38574219 527.617090911 1193.38574219 599.419733049 1261.19238281 c 128,-1,38
574.74599352 107.668945312 m 128,-1,59
 534.068570368 98 534.068570368 98 484.78359882 98 c 0,60,61
 426.084643942 98 426.084643942 98 385.107421875 127.48828125 c 0,62,63
 331.025390625 164.765625 331.025390625 164.765625 316.400390625 245.5234375 c 2,64,-1
 313.875976562 259.463867188 l 1,65,-1
 324.534179688 268.805664062 l 2,66,67
 644.488528953 571.716796875 644.488528953 571.716796875 927.362304688 1020.10546875 c 2,68,-1
 989.233398438 1110.40917969 l 1,69,-1
 972.712890625 1002.20214844 l 2,70,71
 952.521484375 869.951171875 952.521484375 869.951171875 915.291015625 726.060546875 c 128,-1,72
 878.060546875 582.168945312 878.060546875 582.168945312 845.972246976 470.825195312 c 0,73,74
 814.945631387 359.481445312 814.945631387 359.481445312 802.33320034 332.576171875 c 0,75,76
 737.584222696 193.15625 737.584222696 193.15625 656.234658719 142.666992188 c 0,77,58
 615.423416671 117.337890625 615.423416671 117.337890625 574.74599352 107.668945312 c 128,-1,59
EndSplineSet
Validated: 524297
EndChar

StartChar: one
Encoding: 49 49 20
Width: 935
GlyphClass: 2
Flags: W
LayerCount: 2
Fore
SplineSet
912.674804688 95.5224609375 m 0,0,1
 912.674804688 110.220703125 912.674804688 110.220703125 906.048828125 119.625 c 0,2,3
 903.588867188 123.1171875 903.588867188 123.1171875 893.215820312 127.05859375 c 128,-1,4
 882.842773438 131 882.842773438 131 863.2578125 131 c 128,-1,5
 843.673828125 131 843.673828125 131 774.024414062 132.75390625 c 0,6,7
 650.940067611 135.912109375 650.940067611 135.912109375 572.630829471 137.544921875 c 1,8,9
 602.022132572 312.05859375 602.022132572 312.05859375 617.814805057 388.55078125 c 0,10,11
 644.012993653 526.712890625 644.012993653 526.712890625 687.63671875 730.626953125 c 0,12,13
 698.720703125 780 698.720703125 780 779.978515625 1082.86914062 c 0,14,15
 864.923828125 1399.48339844 864.923828125 1399.48339844 864.923828125 1403.54785156 c 0,16,17
 864.923828125 1403.80175781 864.923828125 1403.80175781 864.900390625 1404.04785156 c 0,18,19
 864.900390625 1417.81445312 864.900390625 1417.81445312 842.58984375 1442.09375 c 0,20,21
 816.02734375 1471 816.02734375 1471 786 1471 c 0,22,23
 770.305664062 1471 770.305664062 1471 741.364257812 1455.41601562 c 128,-1,24
 712.422851562 1439.83203125 712.422851562 1439.83203125 680.880859375 1416.41503906 c 2,25,-1
 586.624660176 1337.89746094 l 2,26,27
 522.699342483 1283.67871094 522.699342483 1283.67871094 464.882591668 1237.47558594 c 0,28,29
 432.678894837 1211.62890625 432.678894837 1211.62890625 417.352967284 1189.34179688 c 128,-1,30
 402.026188007 1167.05371094 402.026188007 1167.05371094 396.874107548 1140.05175781 c 0,31,32
 395.336745137 1133.52734375 395.336745137 1133.52734375 395.336745137 1127.75878906 c 0,33,34
 395.336745137 1109.05175781 395.336745137 1109.05175781 410.303245023 1088.515625 c 0,35,36
 422.249530444 1072.12402344 422.249530444 1072.12402344 434.979402246 1072.12402344 c 0,37,38
 440.771127675 1072.12402344 440.771127675 1072.12402344 448.278225899 1075.41699219 c 0,39,40
 508.217473738 1101.18847656 508.217473738 1101.18847656 654.024161401 1225.09667969 c 2,41,-1
 711.270507812 1268.92675781 l 1,42,43
 651.326750455 1051.12988281 651.326750455 1051.12988281 606.997906095 853.270507812 c 0,44,45
 594.762886127 798.657226562 594.762886127 798.657226562 569.054439019 688.247070312 c 128,-1,46
 543.346843635 577.8359375 543.346843635 577.8359375 534.686510671 536.630859375 c 2,47,-1
 506.774652727 404.118164062 l 2,48,49
 487.891924382 314.565429688 487.891924382 314.565429688 486.231913667 298.379882812 c 0,50,51
 478.172046354 244.990234375 478.172046354 244.990234375 457.432558974 143.614257812 c 1,52,53
 249.75390625 148 249.75390625 148 164 148 c 0,54,55
 129.62109375 148 129.62109375 148 109.375976562 126.991210938 c 0,56,57
 89.458984375 106.323242188 89.458984375 106.323242188 82.4638671875 71.83203125 c 0,58,59
 80.0234375 60.2373046875 80.0234375 60.2373046875 80.0234375 48.1279296875 c 128,-1,60
 80.0234375 36.01953125 80.0234375 36.01953125 85.5126953125 25.8525390625 c 0,61,62
 91.9130859375 14 91.9130859375 14 120 14 c 0,63,64
 190.130859375 14 190.130859375 14 814.12890625 7 c 0,65,66
 861.075195312 7.0283203125 861.075195312 7.0283203125 882.986328125 27.787109375 c 128,-1,67
 904.8984375 48.544921875 904.8984375 48.544921875 911.407226562 81.525390625 c 0,68,69
 912.6484375 91.98828125 912.6484375 91.98828125 912.674804688 95.5224609375 c 0,0,1
EndSplineSet
Validated: 524297
EndChar

StartChar: two
Encoding: 50 50 21
Width: 934
GlyphClass: 2
Flags: W
LayerCount: 2
Fore
SplineSet
449.542516013 -11.0087890625 m 0,0,1
 702.561225104 1 702.561225104 1 826.087445584 1 c 0,2,3
 838.073371271 1 838.073371271 1 850.904629505 16.064453125 c 0,4,5
 868.411132812 35.5078125 868.411132812 35.5078125 877.9921875 60.3291015625 c 0,6,7
 887.286132812 84.4091796875 887.286132812 84.4091796875 890.251953125 106.560546875 c 0,8,9
 890.888671875 111.017578125 890.888671875 111.017578125 890.888671875 114.865234375 c 0,10,11
 890.888671875 121.065429688 890.888671875 121.065429688 889.587890625 123.4375 c 0,12,13
 883.150390625 128.154296875 883.150390625 128.154296875 877.970703125 131.639648438 c 0,14,15
 872.815429688 133 872.815429688 133 860.303710938 133 c 0,16,17
 848.677400701 133 848.677400701 133 834.541660874 132.030273438 c 128,-1,18
 820.405031223 131.060546875 820.405031223 131.060546875 818.042549211 131.01171875 c 0,19,20
 729.099328126 123.083984375 729.099328126 123.083984375 695.504922899 120.07421875 c 128,-1,21
 661.910517672 117.064453125 661.910517672 117.064453125 613.605546486 113.750976562 c 128,-1,22
 565.300575301 110.4375 565.300575301 110.4375 490.282205818 110.4375 c 0,23,24
 387.007483684 110.4375 387.007483684 110.4375 244.270507812 118.829101562 c 1,25,-1
 252.979492188 148.948242188 l 2,26,27
 277.797851562 234.77734375 277.797851562 234.77734375 320.432617188 309.6484375 c 0,28,29
 361.447296945 384.51953125 361.447296945 384.51953125 428.552463968 455.0546875 c 128,-1,30
 495.711020415 525.64453125 495.711020415 525.64453125 587.277441866 576.399414062 c 0,31,32
 668.423137576 621.376953125 668.423137576 621.376953125 718.877922901 651.116210938 c 0,33,34
 876.078125 741.391601562 876.078125 741.391601562 950.442382812 814.790039062 c 0,35,36
 1049.25878906 912.65625 1049.25878906 912.65625 1086.63867188 1074.63574219 c 0,37,38
 1103.52050781 1146.73535156 1103.52050781 1146.73535156 1103.52050781 1205.00097656 c 0,39,40
 1103.52050781 1302.52636719 1103.52050781 1302.52636719 1056.109375 1360.7265625 c 0,41,42
 980.125976562 1454 980.125976562 1454 792.373803976 1454 c 0,43,44
 735.624405562 1454 735.624405562 1454 673.837714993 1433.46582031 c 128,-1,45
 612.050134601 1412.93164062 612.050134601 1412.93164062 560.763364085 1379.73730469 c 128,-1,46
 509.477483392 1346.54296875 509.477483392 1346.54296875 469.036774362 1308.84277344 c 128,-1,47
 428.596955155 1271.14160156 428.596955155 1271.14160156 404.761246811 1234.8359375 c 1,48,49
 376.940907789 1176.77832031 376.940907789 1176.77832031 375.053591651 1158.5 c 1,50,51
 375.053591651 1138.16503906 375.053591651 1138.16503906 389.134162407 1127.72949219 c 0,52,53
 404.902728784 1119.15917969 404.902728784 1119.15917969 412.048013363 1116.74609375 c 128,-1,54
 419.193297941 1114.33300781 419.193297941 1114.33300781 423.935168616 1114.33300781 c 128,-1,55
 428.676149467 1114.33300781 428.676149467 1114.33300781 432.505950815 1114.828125 c 0,56,57
 450.784709944 1117.1875 450.784709944 1117.1875 489.008868055 1164.3203125 c 0,58,59
 537.829047183 1228.29296875 537.829047183 1228.29296875 614.047788882 1279.64648438 c 128,-1,60
 690.266530581 1331 690.266530581 1331 764.127239387 1331 c 0,61,62
 872.661132812 1331 872.661132812 1331 926.048828125 1275.29101562 c 0,63,64
 963.228515625 1236.49511719 963.228515625 1236.49511719 963.228515625 1169.86816406 c 0,65,66
 963.228515625 1136.546875 963.228515625 1136.546875 954.321289062 1098.19628906 c 0,67,68
 938.3046875 1030.92675781 938.3046875 1030.92675781 916.315429688 986.725585938 c 0,69,70
 875.470703125 906.110351562 875.470703125 906.110351562 784.444584689 837.495117188 c 0,71,72
 719.505248633 787.606445312 719.505248633 787.606445312 505.940434053 663.875976562 c 0,73,74
 415.14815925 610.668945312 415.14815925 610.668945312 334.4453125 523.59765625 c 0,75,76
 246.88671875 436.526367188 246.88671875 436.526367188 191.673828125 343.53515625 c 128,-1,77
 136.459960938 250.54296875 136.459960938 250.54296875 116.333007812 165.245117188 c 0,78,79
 99.0673828125 92.4296875 99.0673828125 92.4296875 99.0673828125 47.7080078125 c 0,80,81
 99.0673828125 14.390625 99.0673828125 14.390625 108.447265625 1.2646484375 c 0,82,83
 114.115234375 -6.6689453125 114.115234375 -6.6689453125 126.298828125 -8.2158203125 c 0,84,85
 177.662109375 -15 177.662109375 -15 272.565429688 -15 c 0,86,87
 365.457732511 -15 365.457732511 -15 449.542516013 -11.0087890625 c 0,0,1
EndSplineSet
Validated: 524297
EndChar

StartChar: three
Encoding: 51 51 22
Width: 934
GlyphClass: 2
Flags: W
LayerCount: 2
Fore
SplineSet
972.626953125 412.584960938 m 0,0,1
 987.686523438 478.844726562 987.686523438 478.844726562 987.686523438 529.967773438 c 0,2,3
 987.686523438 604.689453125 987.686523438 604.689453125 954.7890625 649.790039062 c 0,4,5
 927.108398438 687.740234375 927.108398438 687.740234375 882.508789062 712.108398438 c 0,6,7
 839.846976355 736.477539062 839.846976355 736.477539062 776.115746457 753.70703125 c 2,8,-1
 678.451349094 780.108398438 l 1,9,-1
 776.918867154 802.493164062 l 2,10,11
 814.952870823 811.139648438 814.952870823 811.139648438 849.55208368 824.90625 c 0,12,13
 887.147460938 838.673828125 887.147460938 838.673828125 926.284179688 862.720703125 c 128,-1,14
 965.419921875 886.768554688 965.419921875 886.768554688 996.0234375 917.372070312 c 128,-1,15
 1026.62695312 947.975585938 1026.62695312 947.975585938 1050.46484375 993.313476562 c 128,-1,16
 1074.30273438 1038.65234375 1074.30273438 1038.65234375 1086.65625 1094.72167969 c 1,17,18
 1103.00390625 1160.45019531 1103.00390625 1160.45019531 1103.00390625 1213.87890625 c 0,19,20
 1103.00390625 1307.39941406 1103.00390625 1307.39941406 1052.80566406 1363.90820312 c 0,21,22
 972.774414062 1454 972.774414062 1454 774.24502002 1454 c 0,23,24
 717.114493266 1454 717.114493266 1454 664.784238246 1437.45117188 c 128,-1,25
 612.574363462 1420.93945312 612.574363462 1420.93945312 571.677594771 1392.05859375 c 0,26,27
 492.390075143 1336.06542969 492.390075143 1336.06542969 443.750309101 1258.96972656 c 0,28,29
 416.515379131 1213.00195312 416.515379131 1213.00195312 416.515379131 1181.18945312 c 0,30,31
 416.515379131 1170.91113281 416.515379131 1170.91113281 419.437016239 1163.5859375 c 128,-1,32
 422.319112393 1156.359375 422.319112393 1156.359375 429.831893527 1151.21582031 c 0,33,34
 444.589455999 1140.96484375 444.589455999 1140.96484375 459.009602337 1140.96484375 c 0,35,36
 465.052338694 1140.96484375 465.052338694 1140.96484375 471.327048645 1142.734375 c 0,37,38
 494.862702758 1149.37109375 494.862702758 1149.37109375 527.073642033 1188.58496094 c 0,39,40
 544.288015739 1210.734375 544.288015739 1210.734375 550.850935305 1218.54980469 c 128,-1,41
 557.415612247 1226.3671875 557.415612247 1226.3671875 574.862838234 1245.75683594 c 128,-1,42
 592.309185533 1265.14746094 592.309185533 1265.14746094 602.553807199 1273.28027344 c 128,-1,43
 612.799307552 1281.41308594 612.799307552 1281.41308594 630.87215929 1295.52734375 c 128,-1,44
 648.945889715 1309.64257812 648.945889715 1309.64257812 665.066297046 1315.421875 c 0,45,46
 708.518290011 1331 708.518290011 1331 746.35195285 1331 c 0,47,48
 859.23046875 1331 859.23046875 1331 918.241210938 1280.5 c 0,49,50
 962.579101562 1242.55761719 962.579101562 1242.55761719 962.579101562 1177.90039062 c 0,51,52
 962.579101562 1150.41894531 962.579101562 1150.41894531 954.357421875 1118.31933594 c 0,53,54
 925.104492188 978.494140625 925.104492188 978.494140625 815.835952114 905.247070312 c 0,55,56
 713.369525641 832 713.369525641 832 562.79757534 832 c 0,57,58
 536.117976092 832 536.117976092 832 517.426528107 811.2265625 c 128,-1,59
 498.735958809 790.454101562 498.735958809 790.454101562 491.176607219 754.537109375 c 0,60,61
 489.244372633 744.422851562 489.244372633 744.422851562 489.244372633 735.1640625 c 0,62,63
 489.244372633 714.821289062 489.244372633 714.821289062 498.769348947 697.522460938 c 0,64,65
 505.552819164 685.202148438 505.552819164 685.202148438 514.111238842 680.6015625 c 128,-1,66
 522.668779831 676 522.668779831 676 533.104955448 676 c 0,67,68
 725.52705076 676 725.52705076 676 792.035812958 592.00390625 c 0,69,70
 836.329588884 536.063476562 836.329588884 536.063476562 836.329588884 453.555664062 c 0,71,72
 836.329588884 413.8828125 836.329588884 413.8828125 826.789674876 366.522460938 c 0,73,74
 802.482532829 248.7421875 802.482532829 248.7421875 715.289458597 173.37109375 c 128,-1,75
 628.096384366 98 628.096384366 98 518.708533683 98 c 0,76,77
 443.645745246 98 443.645745246 98 388.030273438 150.377929688 c 0,78,79
 328.484375 202.756835938 328.484375 202.756835938 298.262695312 269.59765625 c 0,80,81
 282.932617188 302.493164062 282.932617188 302.493164062 263.454101562 308.661132812 c 0,82,83
 257.458984375 310.559570312 257.458984375 310.559570312 250.43359375 310.559570312 c 0,84,85
 233.12890625 310.559570312 233.12890625 310.559570312 208.219726562 298.572265625 c 128,-1,86
 183.310546875 286.584960938 183.310546875 286.584960938 170.490234375 256.669921875 c 0,87,88
 162.599609375 238.259765625 162.599609375 238.259765625 162.599609375 220.223632812 c 128,-1,89
 162.599609375 202.188476562 162.599609375 202.188476562 166.297851562 185.911132812 c 0,90,91
 175.185546875 151.537109375 175.185546875 151.537109375 201.262695312 114.938476562 c 128,-1,92
 227.33984375 78.3388671875 227.33984375 78.3388671875 266.8125 46.7607421875 c 128,-1,93
 306.286132812 15.181640625 306.286132812 15.181640625 363.302734375 -4.9140625 c 0,94,95
 419.095206664 -25 419.095206664 -25 475.519268386 -25 c 0,96,97
 661.808122492 -25 661.808122492 -25 790.69317792 92.935546875 c 0,98,99
 926.521484375 210.870117188 926.521484375 210.870117188 972.626953125 412.584960938 c 0,0,1
EndSplineSet
Validated: 524297
EndChar

StartChar: four
Encoding: 52 52 23
Width: 935
GlyphClass: 2
Flags: W
LayerCount: 2
Fore
SplineSet
664.333671965 -1.1162109375 m 0,0,1
 681.875437229 -23 681.875437229 -23 702.869707456 -23 c 0,2,3
 729.110623862 -23 729.110623862 -23 751.423387204 13.341796875 c 0,4,5
 776.584061517 54.3212890625 776.584061517 54.3212890625 778.959740174 112.915039062 c 0,6,7
 780.02290334 156.7890625 780.02290334 156.7890625 850.181640625 479.288085938 c 1,8,9
 902.791992188 476 902.791992188 476 938.858398438 476 c 128,-1,10
 974.923828125 476 974.923828125 476 994.270507812 496.10546875 c 0,11,12
 1010.69042969 513.170898438 1010.69042969 513.170898438 1018.48144531 545.966796875 c 0,13,14
 1022.68457031 571.333007812 1022.68457031 571.333007812 1015.00195312 584.239257812 c 0,15,16
 1009.78710938 593 1009.78710938 593 979 593 c 0,17,18
 937.208007812 593 937.208007812 593 875.485351562 596.857421875 c 1,19,-1
 948.551757812 938.7421875 l 2,20,21
 970.484375 1041.92675781 970.484375 1041.92675781 998.323242188 1190.06835938 c 128,-1,22
 1026.16210938 1338.20996094 1026.16210938 1338.20996094 1031.06054688 1408.75390625 c 0,23,24
 1031.29492188 1412.26953125 1031.29492188 1412.26953125 1031.29492188 1415.59570312 c 0,25,26
 1031.29492188 1440.50976562 1031.29492188 1440.50976562 1017.5703125 1449.7421875 c 0,27,28
 1001.265625 1460.7109375 1001.265625 1460.7109375 978.502929688 1460.7109375 c 0,29,30
 973.228515625 1460.7109375 973.228515625 1460.7109375 966.294921875 1460 c 2,31,-1
 965 1460 l 2,32,33
 943.479492188 1460 943.479492188 1460 912.18359375 1442.61328125 c 128,-1,34
 880.887695312 1425.2265625 880.887695312 1425.2265625 849.786132812 1390.51074219 c 0,35,36
 775.875286073 1303.17773438 775.875286073 1303.17773438 621.592804804 1111.74804688 c 128,-1,37
 467.310323534 920.317382812 467.310323534 920.317382812 359.55859375 791.897460938 c 0,38,39
 247.500976562 663.4765625 247.500976562 663.4765625 215.745117188 607.6640625 c 0,40,41
 202.463867188 584.643554688 202.463867188 584.643554688 197.009765625 562.046875 c 128,-1,42
 191.555664062 539.450195312 191.555664062 539.450195312 191.555664062 521.401367188 c 0,43,44
 191.555664062 493.788085938 191.555664062 493.788085938 201.095703125 473.704101562 c 0,45,46
 206.333984375 462.676757812 206.333984375 462.676757812 220.096679688 457.291015625 c 0,47,48
 228.666015625 453.9375 228.666015625 453.9375 238.6484375 453.9375 c 128,-1,49
 248.629882812 453.9375 248.629882812 453.9375 259.478515625 456.38671875 c 0,50,51
 383.682617188 483.694335938 383.682617188 483.694335938 631.903352647 483.694335938 c 0,52,53
 670.628110275 483.694335938 670.628110275 483.694335938 739.854976434 482.55078125 c 1,54,55
 718.904257469 378.258789062 718.904257469 378.258789062 697.468496995 275.201171875 c 0,56,57
 661.720596232 103.336914062 661.720596232 103.336914062 650.068498723 39.5654296875 c 0,58,59
 649.730335981 36.849609375 649.730335981 36.849609375 649.730335981 34.201171875 c 0,60,61
 649.730335981 17.1025390625 649.730335981 17.1025390625 664.333671965 -1.1162109375 c 0,0,1
905.25 1310.05371094 m 1,62,-1
 891.65625 1228.84863281 l 2,63,64
 853.529296875 1001.08984375 853.529296875 1001.08984375 763.029371612 596.677734375 c 1,65,66
 683.556857529 598.143554688 683.556857529 598.143554688 628.72069472 598.142578125 c 0,67,68
 491.863842015 598.142578125 491.863842015 598.142578125 392.673828125 591.055664062 c 2,69,-1
 341.017578125 587.634765625 l 1,70,-1
 370.41796875 630.186523438 l 2,71,72
 512.677075623 851.75 512.677075623 851.75 848.802734375 1250.13476562 c 2,73,-1
 905.25 1310.05371094 l 1,62,-1
EndSplineSet
Validated: 524329
EndChar

StartChar: five
Encoding: 53 53 24
Width: 935
GlyphClass: 2
Flags: W
LayerCount: 2
Fore
SplineSet
1027.63671875 612.624023438 m 0,0,1
 1043.64160156 682.7421875 1043.64160156 682.7421875 1043.64160156 744.647460938 c 0,2,3
 1043.64160156 837.943359375 1043.64160156 837.943359375 1009.70019531 904.693359375 c 0,4,5
 983.124023438 956.9609375 983.124023438 956.9609375 929.866660081 987.48046875 c 0,6,7
 880.454477787 1018 880.454477787 1018 808.517866429 1018 c 0,8,9
 705.683185832 1018 705.683185832 1018 617.477736649 978.778320312 c 128,-1,10
 529.273183425 939.557617188 529.273183425 939.557617188 469.957957598 879.659179688 c 2,11,-1
 417.133960432 826.317382812 l 1,12,13
 447.615408371 984.616210938 447.615408371 984.616210938 457.772904484 1028.90234375 c 128,-1,14
 467.931296558 1073.18945312 467.931296558 1073.18945312 491.353477329 1171.3046875 c 128,-1,15
 514.81687225 1269.58984375 514.81687225 1269.58984375 524.830118838 1307.78710938 c 1,16,17
 638.936869525 1316 638.936869525 1316 726.863675214 1316 c 128,-1,18
 814.790480903 1316 814.790480903 1316 863.932083341 1312.46289062 c 128,-1,19
 913.073685779 1308.92578125 913.073685779 1308.92578125 977.517578125 1302.96582031 c 0,20,21
 1044.07324219 1297.00488281 1044.07324219 1297.00488281 1058.79785156 1296.48828125 c 128,-1,22
 1073.5234375 1295.97070312 1073.5234375 1295.97070312 1088.87304688 1294.48535156 c 128,-1,23
 1104.22265625 1293 1104.22265625 1293 1108.65917969 1293 c 128,-1,24
 1113.09472656 1293 1113.09472656 1293 1124.35058594 1293.80371094 c 128,-1,25
 1135.60644531 1294.60839844 1135.60644531 1294.60839844 1140.76953125 1297.01757812 c 128,-1,26
 1145.93164062 1299.42675781 1145.93164062 1299.42675781 1153.33886719 1303.30664062 c 128,-1,27
 1160.74707031 1307.18652344 1160.74707031 1307.18652344 1165.08300781 1313.69042969 c 128,-1,28
 1169.41894531 1320.1953125 1169.41894531 1320.1953125 1173.36035156 1331.15429688 c 0,29,30
 1180.29394531 1352.07324219 1180.29394531 1352.07324219 1182.06152344 1377.27246094 c 0,31,32
 1182.30761719 1380.7734375 1182.30761719 1380.7734375 1182.30761719 1384.13867188 c 0,33,34
 1182.30761719 1401.86132812 1182.30761719 1401.86132812 1175.43261719 1416.23632812 c 0,35,36
 1173.15429688 1421.00097656 1173.15429688 1421.00097656 1170.52734375 1423.00097656 c 128,-1,37
 1167.90234375 1425 1167.90234375 1425 1163 1425 c 0,38,39
 1025.78027344 1425 1025.78027344 1425 778.957465153 1429.5 c 0,40,41
 539.499668443 1434 539.499668443 1434 474.561398987 1434 c 0,42,43
 458.245971252 1434 458.245971252 1434 441.283660551 1418.20800781 c 128,-1,44
 424.321349849 1402.41503906 424.321349849 1402.41503906 413.357489927 1377.66210938 c 128,-1,45
 402.393630004 1352.90917969 402.393630004 1352.90917969 399.171758608 1323.05273438 c 0,46,47
 398.281174579 1314.80273438 398.281174579 1314.80273438 398.281174579 1307.22460938 c 0,48,49
 398.281174579 1289.22558594 398.281174579 1289.22558594 403.313780706 1274.96191406 c 2,50,-1
 405.840387308 1267.80273438 l 1,51,52
 397.662066365 1229.59765625 397.662066365 1229.59765625 376.604492188 1153.33398438 c 0,53,54
 354.026367188 1077.07128906 354.026367188 1077.07128906 335.689453125 1011.15625 c 128,-1,55
 317.352539062 945.241210938 317.352539062 945.241210938 305.518554688 884.380859375 c 128,-1,56
 293.684570312 823.51953125 293.684570312 823.51953125 293.684570312 785.381835938 c 0,57,58
 293.684570312 727.728515625 293.684570312 727.728515625 314.505859375 716.201171875 c 0,59,60
 328.291015625 709.400390625 328.291015625 709.400390625 343.639648438 709.400390625 c 0,61,62
 347.623046875 709.400390625 347.623046875 709.400390625 351.762695312 709.8515625 c 0,63,64
 395.789510409 714.801757812 395.789510409 714.801757812 428.053918325 742.459960938 c 1,65,66
 474.54975151 784.400390625 474.54975151 784.400390625 482.285468317 791.146484375 c 128,-1,67
 490.022081084 797.891601562 490.022081084 797.891601562 511.18913107 814.670898438 c 128,-1,68
 532.356181055 831.450195312 532.356181055 831.450195312 545.393291926 838.555664062 c 0,69,70
 594.419315552 865.2734375 594.419315552 865.2734375 625.481345433 872.891601562 c 0,71,72
 678.933410409 886 678.933410409 886 726.888762088 886 c 128,-1,73
 774.843217807 886 774.843217807 886 810.152097082 868.958007812 c 0,74,75
 856.623739353 846.528320312 856.623739353 846.528320312 878.37137128 796.115234375 c 0,76,77
 898.46506144 749.537109375 898.46506144 749.537109375 898.46506144 686.791015625 c 0,78,79
 898.46506144 637.262695312 898.46506144 637.262695312 885.92789613 577.419921875 c 0,80,81
 840.484815696 365.8828125 840.484815696 365.8828125 733.605772617 240.026367188 c 0,82,83
 624.033474416 111 624.033474416 111 482.818564391 111 c 0,84,85
 416.928785641 111 416.928785641 111 367.552734375 142.600585938 c 0,86,87
 301.8125 182.072265625 301.8125 182.072265625 268.731445312 268.842773438 c 0,88,89
 259.123046875 292.357421875 259.123046875 292.357421875 249.903320312 303.983398438 c 0,90,91
 244.801757812 310.415039062 244.801757812 310.415039062 239.637695312 311.041015625 c 128,-1,92
 234.47265625 311.666992188 234.47265625 311.666992188 229.021484375 311.666992188 c 0,93,94
 217.10546875 311.666992188 217.10546875 311.666992188 182.1640625 297.147460938 c 0,95,96
 153.098632812 283.217773438 153.098632812 283.217773438 141.938476562 257.55078125 c 0,97,98
 135 241.591796875 135 241.591796875 135 221.849609375 c 128,-1,99
 135 202.108398438 135 202.108398438 138.412109375 182.54296875 c 0,100,101
 148.399414062 146.887695312 148.399414062 146.887695312 169.552734375 114.482421875 c 128,-1,102
 190.706054688 82.0771484375 190.706054688 82.0771484375 227.653320312 52.8837890625 c 128,-1,103
 264.6015625 23.6904296875 264.6015625 23.6904296875 327.060546875 5.845703125 c 0,104,105
 388.796544266 -12 388.796544266 -12 462.634382293 -12 c 0,106,107
 556.006831572 -12 556.006831572 -12 642.274319734 29.0478515625 c 128,-1,108
 728.541807897 70.095703125 728.541807897 70.095703125 801.862677126 148.086914062 c 128,-1,109
 875.182650396 226.077148438 875.182650396 226.077148438 931.920199914 344.891601562 c 0,110,111
 993.345703125 463.706054688 993.345703125 463.706054688 1027.63671875 612.624023438 c 0,0,1
EndSplineSet
Validated: 524297
EndChar

StartChar: six
Encoding: 54 54 25
Width: 935
GlyphClass: 2
Flags: W
LayerCount: 2
Fore
SplineSet
1003.28222656 508.005859375 m 128,-1,1
 1028.10449219 616.778320312 1028.10449219 616.778320312 1028.10449219 698.776367188 c 0,2,3
 1028.10449219 802.7578125 1028.10449219 802.7578125 989.599609375 861.28515625 c 0,4,5
 956.229492188 912.0078125 956.229492188 912.0078125 899.525390625 936.50390625 c 128,-1,6
 842.822265625 961 842.822265625 961 765.0090333 961 c 0,7,8
 666.559744353 961 666.559744353 961 579.66843417 924.686523438 c 128,-1,9
 492.777123987 888.372070312 492.777123987 888.372070312 428.175893534 817.092773438 c 2,10,-1
 350.5546875 741.232421875 l 1,11,-1
 387.478515625 843.482421875 l 2,12,13
 414.353515625 917.907226562 414.353515625 917.907226562 466.898182798 1011.75390625 c 0,14,15
 518.053467492 1105.59960938 518.053467492 1105.59960938 567.712171958 1161.85253906 c 1,16,17
 664.328667375 1267.00683594 664.328667375 1267.00683594 747.076795195 1304.70507812 c 0,18,19
 788.637931634 1323.63964844 788.637931634 1323.63964844 819.767578125 1333.43652344 c 0,20,21
 852.768554688 1343.23339844 852.768554688 1343.23339844 898.711914062 1353.22167969 c 128,-1,22
 944.65625 1363.20898438 944.65625 1363.20898438 966.067382812 1369.02734375 c 0,23,24
 993.447265625 1377.42382812 993.447265625 1377.42382812 1019.75976562 1401.68066406 c 128,-1,25
 1046.07226562 1425.9375 1046.07226562 1425.9375 1048.15625 1441.82519531 c 0,26,27
 1048.48828125 1446.66210938 1048.48828125 1446.66210938 1048.49023438 1451.85058594 c 128,-1,28
 1048.4921875 1457.0390625 1048.4921875 1457.0390625 1045.62988281 1463.36132812 c 128,-1,29
 1042.76660156 1469.68457031 1042.76660156 1469.68457031 1035.4453125 1474.1796875 c 0,30,31
 1018.24023438 1484.74414062 1018.24023438 1484.74414062 991.172851562 1484.74414062 c 0,32,33
 984.49609375 1484.74414062 984.49609375 1484.74414062 977.23828125 1484.09863281 c 0,34,35
 864.244140625 1474.35839844 864.244140625 1474.35839844 771.4919154 1440.92773438 c 0,36,37
 685.951493016 1407.49707031 685.951493016 1407.49707031 604.619771485 1343.00488281 c 128,-1,38
 523.410466078 1278.609375 523.410466078 1278.609375 457.734215149 1184.76171875 c 0,39,40
 387.5234375 1090.9140625 387.5234375 1090.9140625 325.135742188 952.875 c 128,-1,41
 262.749023438 814.8359375 262.749023438 814.8359375 220.294921875 640.0859375 c 0,42,43
 180.4375 477.590820312 180.4375 477.590820312 180.438476562 350.163085938 c 0,44,45
 180.438476562 234.9140625 180.438476562 234.9140625 212.41015625 151.788085938 c 128,-1,46
 244.381835938 68.6611328125 244.381835938 68.6611328125 314.830078125 23.8310546875 c 128,-1,47
 385.278320312 -21 385.278320312 -21 486.934771329 -21 c 0,48,49
 566.029381285 -21 566.029381285 -21 646.043836347 20.0263671875 c 128,-1,50
 726.057429324 61.0517578125 726.057429324 61.0517578125 791.509538053 131.34375 c 0,51,52
 864.163085938 201.635742188 864.163085938 201.635742188 921.34375 300.491210938 c 128,-1,0
 978.458984375 399.233398438 978.458984375 399.233398438 1003.28222656 508.005859375 c 128,-1,1
505.289431273 773.370117188 m 0,53,54
 594.241125528 829 594.241125528 829 684.676468731 829 c 0,55,56
 741.496516494 829 741.496516494 829 780.968820044 812.94921875 c 0,57,58
 822.79296875 796.897460938 822.79296875 796.897460938 852.356445312 755.5078125 c 0,59,60
 883.044921875 712.543945312 883.044921875 712.543945312 883.043945312 635.2890625 c 0,61,62
 883.043945312 567.172851562 883.043945312 567.172851562 861.321289062 474.196289062 c 0,63,64
 840.275390625 385.80078125 840.275390625 385.80078125 785.080967333 300.540039062 c 0,65,66
 734.255861341 215.2265625 734.255861341 215.2265625 663.590722285 158.658203125 c 128,-1,67
 592.924721144 102.08984375 592.924721144 102.08984375 524.225136768 102 c 0,68,69
 522.042336571 101.956054688 522.042336571 101.956054688 519.874191827 101.955078125 c 0,70,71
 470.137899677 101.955078125 470.137899677 101.955078125 430.328520741 125.89453125 c 0,72,73
 385.782226562 149.833984375 385.782226562 149.833984375 358.9296875 189.553710938 c 128,-1,74
 332.077148438 229.2734375 332.077148438 229.2734375 317.633789062 279.021484375 c 0,75,76
 299.841796875 340.303710938 299.841796875 340.303710938 299.841796875 403.870117188 c 0,77,78
 299.841796875 439.793945312 299.841796875 439.793945312 305.306640625 474.922851562 c 0,79,80
 314.45703125 532.877929688 314.45703125 532.877929688 337.092773438 627.728515625 c 1,81,-1
 341.094726562 632.3515625 l 2,82,83
 415.029296875 717.741210938 415.029296875 717.741210938 505.289431273 773.370117188 c 0,53,54
EndSplineSet
Validated: 524329
EndChar

StartChar: seven
Encoding: 55 55 26
Width: 935
GlyphClass: 2
Flags: W
LayerCount: 2
Fore
SplineSet
1173.04980469 1292.640625 m 0,0,1
 1199.43945312 1333.62011719 1199.43945312 1333.62011719 1205 1360.99511719 c 0,2,3
 1206.84765625 1370.08886719 1206.84765625 1370.08886719 1206.84765625 1379.47851562 c 128,-1,4
 1206.84765625 1388.86816406 1206.84765625 1388.86816406 1202.68066406 1396.29492188 c 0,5,6
 1187.70019531 1423 1187.70019531 1423 1158 1423 c 0,7,8
 1149.42578125 1423 1149.42578125 1423 1049.71386719 1427.50976562 c 0,9,10
 847.089118824 1437.13378906 847.089118824 1437.13378906 777.732839365 1437.13378906 c 0,11,12
 563.435339965 1437.13378906 563.435339965 1437.13378906 467.837452501 1417.46972656 c 0,13,14
 429.565302737 1408.93164062 429.565302737 1408.93164062 412.864385958 1391.14648438 c 0,15,16
 395.780273438 1373.36035156 395.780273438 1373.36035156 391.551757812 1347.20996094 c 0,17,18
 386.564453125 1311.1796875 386.564453125 1311.1796875 396.272460938 1289.82421875 c 0,19,20
 400.099609375 1281.40332031 400.099609375 1281.40332031 407.526942591 1277.375 c 0,21,22
 411.101675785 1275.42871094 411.101675785 1275.42871094 416.471396652 1275.42871094 c 128,-1,23
 421.67524703 1275.42871094 421.67524703 1275.42871094 428.31723938 1277.22460938 c 0,24,25
 486.923317938 1293.91992188 486.923317938 1293.91992188 662.460022078 1298.99121094 c 0,26,27
 836.227739865 1304.01171875 836.227739865 1304.01171875 989.928710938 1297.98339844 c 2,28,-1
 1030.16796875 1296.51074219 l 1,29,-1
 1010.99804688 1261.11914062 l 2,30,31
 971.091796875 1187.44628906 971.091796875 1187.44628906 887.888776206 1068.98046875 c 0,32,33
 805.504938857 950.515625 805.504938857 950.515625 712.316208176 826.515625 c 128,-1,34
 619.126580897 702.516601562 619.126580897 702.516601562 473.387389414 494.360351562 c 0,35,36
 321.284179688 286.376953125 321.284179688 286.376953125 175.663085938 75.9296875 c 1,37,38
 156.249023438 36.048828125 156.249023438 36.048828125 154.7109375 18.9404296875 c 1,39,40
 154.7109375 0.4794921875 154.7109375 0.4794921875 162.158203125 -8.87890625 c 128,-1,41
 169.606445312 -18.2373046875 169.606445312 -18.2373046875 182.971679688 -21.716796875 c 0,42,43
 187.926757812 -22.85546875 187.926757812 -22.85546875 193.225585938 -22.85546875 c 0,44,45
 213.701171875 -22.85546875 213.701171875 -22.85546875 240.298828125 -6.2705078125 c 0,46,47
 278.05078125 17.2685546875 278.05078125 17.2685546875 310.005859375 66.5712890625 c 0,48,49
 454.63505815 293.268554688 454.63505815 293.268554688 600.0281631 509.259765625 c 128,-1,50
 745.408715688 725.234375 745.408715688 725.234375 841.959686017 855.434570312 c 128,-1,51
 938.510656346 985.634765625 938.510656346 985.634765625 1034.57128906 1108.6015625 c 0,52,53
 1132.64648438 1231.56835938 1132.64648438 1231.56835938 1173.04980469 1292.640625 c 0,0,1
EndSplineSet
Validated: 524329
EndChar

StartChar: eight
Encoding: 56 56 27
Width: 935
GlyphClass: 2
Flags: W
LayerCount: 2
Fore
SplineSet
996.713867188 499.055664062 m 128,-1,1
 996.713867188 531.932617188 996.713867188 531.932617188 988.974609375 570.6328125 c 128,-1,2
 981.234375 609.33203125 981.234375 609.33203125 961.079101562 645.978515625 c 128,-1,3
 940.978515625 682.525390625 940.978515625 682.525390625 899.732421875 721.426757812 c 128,-1,4
 858.487304688 760.329101562 858.487304688 760.329101562 801.047141803 790.6953125 c 2,5,-1
 764.769713127 811.1796875 l 1,6,7
 826.114257812 851.823242188 826.114257812 851.823242188 856.5859375 871.787109375 c 0,8,9
 929.081054688 919.284179688 929.081054688 919.284179688 952.549804688 939.819335938 c 0,10,11
 967.918945312 953.267578125 967.918945312 953.267578125 987.375 972.72265625 c 128,-1,12
 1006.83007812 992.178710938 1006.83007812 992.178710938 1019.10742188 1009.45703125 c 128,-1,13
 1031.36523438 1026.70898438 1031.36523438 1026.70898438 1041.80078125 1048.48730469 c 128,-1,14
 1052.23535156 1070.265625 1052.23535156 1070.265625 1057.61914062 1092.55664062 c 0,15,16
 1067.79980469 1140.21289062 1067.79980469 1140.21289062 1067.79980469 1182.40039062 c 0,17,18
 1067.79980469 1237.77246094 1067.79980469 1237.77246094 1055.984375 1278.53613281 c 0,19,20
 1047.05078125 1309.35742188 1047.05078125 1309.35742188 1026.39550781 1340.34082031 c 128,-1,21
 1005.74023438 1371.32324219 1005.74023438 1371.32324219 974.4921875 1393.64355469 c 128,-1,22
 943.157226562 1416.02539062 943.157226562 1416.02539062 889.4140625 1430.51269531 c 128,-1,23
 835.670898438 1445 835.670898438 1445 772.392224959 1445 c 0,24,25
 710.482705672 1445 710.482705672 1445 656.080618229 1430.23828125 c 128,-1,26
 601.677652313 1415.47558594 601.677652313 1415.47558594 562.700675538 1391.92675781 c 128,-1,27
 523.723698763 1368.37890625 523.723698763 1368.37890625 490.564849896 1335.77050781 c 128,-1,28
 457.270716159 1303.02929688 457.270716159 1303.02929688 435.532018706 1270.33496094 c 128,-1,29
 413.794199727 1237.64160156 413.794199727 1237.64160156 396.580517653 1201.76074219 c 128,-1,30
 379.365078634 1165.87792969 379.365078634 1165.87792969 370.467773438 1139.3671875 c 0,31,32
 361 1112.85546875 361 1112.85546875 354.991210938 1087.39746094 c 128,-1,33
 348.982421875 1061.93847656 348.982421875 1061.93847656 348.982421875 1035.08007812 c 0,34,35
 348.982421875 985.41015625 348.982421875 985.41015625 370.823242188 936.709960938 c 0,36,37
 401.426175746 861.708007812 401.426175746 861.708007812 475.943542194 814.766601562 c 2,38,-1
 520.164125414 786.91015625 l 1,39,-1
 471.910471798 769.248046875 l 2,40,41
 402.449597007 743.823242188 402.449597007 743.823242188 330.860351562 678.666992188 c 0,42,43
 256.122070312 613.509765625 256.122070312 613.509765625 207.264648438 537.349609375 c 128,-1,44
 158.40625 461.188476562 158.40625 461.188476562 143.692382812 396.631835938 c 0,45,46
 128.487304688 329.923828125 128.487304688 329.923828125 128.487304688 271.521484375 c 128,-1,47
 128.487304688 213.119140625 128.487304688 213.119140625 145.428710938 157.256835938 c 128,-1,48
 162.4140625 101.250976562 162.4140625 101.250976562 197.177734375 60.6181640625 c 128,-1,49
 231.940429688 19.986328125 231.940429688 19.986328125 297.8515625 -6.0068359375 c 128,-1,50
 363.762695312 -32 363.762695312 -32 451.763567758 -32 c 0,51,52
 538.710451311 -32 538.710451311 -32 618.135847447 -3.6884765625 c 128,-1,53
 697.62097976 24.64453125 697.62097976 24.64453125 754.820125826 69.5849609375 c 128,-1,54
 812.019271892 114.525390625 812.019271892 114.525390625 861.287109375 174.989257812 c 0,55,56
 955.049804688 287.50390625 955.049804688 287.50390625 986.671875 423.775390625 c 0,57,0
 996.713867188 466.177734375 996.713867188 466.177734375 996.713867188 499.055664062 c 128,-1,1
857.295898438 1306.375 m 0,58,59
 909.641601562 1264.72363281 909.641601562 1264.72363281 928.909179688 1201.82226562 c 0,60,61
 939.633789062 1166.80957031 939.633789062 1166.80957031 939.633789062 1135.37207031 c 128,-1,62
 939.633789062 1103.93457031 939.633789062 1103.93457031 933.40625 1076.56445312 c 0,63,64
 920.486328125 1017.02441406 920.486328125 1017.02441406 840.559570312 952.549804688 c 0,65,66
 766.799864659 888.075195312 766.799864659 888.075195312 684.369211754 852.670898438 c 2,67,-1
 675.776865525 848.979492188 l 1,68,-1
 667.332102791 853.05859375 l 2,69,70
 552.954015543 908.294921875 552.954015543 908.294921875 508.231824133 965.037109375 c 0,71,72
 471.96054477 1011.05566406 471.96054477 1011.05566406 471.96054477 1067.93554688 c 0,73,74
 471.96054477 1087.37109375 471.96054477 1087.37109375 476.240466131 1107.59375 c 0,75,76
 494.990597806 1198.64550781 494.990597806 1198.64550781 573.808090498 1273.28320312 c 128,-1,77
 652.626461663 1347.921875 652.626461663 1347.921875 740.862065379 1348 c 0,78,79
 742.44243864 1348.02636719 742.44243864 1348.02636719 744.016662589 1348.02636719 c 0,80,81
 806.666734772 1348.02636719 806.666734772 1348.02636719 857.295898438 1306.375 c 0,58,59
267.374023438 232.859375 m 0,82,83
 247.106445312 275.841796875 247.106445312 275.841796875 247.106445312 324.9140625 c 0,84,85
 247.106445312 354.833007812 247.106445312 354.833007812 254.680664062 386.813476562 c 0,86,87
 282.486328125 503.381835938 282.486328125 503.381835938 392.593127864 604.006835938 c 0,88,89
 493.483137819 704.631835938 493.483137819 704.631835938 630.921146191 745.166992188 c 2,90,-1
 638.467230856 747.392578125 l 1,91,-1
 645.611853276 743.955078125 l 2,92,93
 708.51316879 713.689453125 708.51316879 713.689453125 751.971237285 675.99609375 c 128,-1,94
 795.429305781 638.303710938 795.429305781 638.303710938 817.84267064 601.759765625 c 0,95,96
 842.291015625 565.215820312 842.291015625 565.215820312 851.501953125 525.809570312 c 128,-1,97
 860.713867188 486.403320312 860.713867188 486.403320312 860.713867188 457.112304688 c 0,98,99
 860.713867188 423.12890625 860.713867188 423.12890625 850.333984375 380.244140625 c 0,100,101
 835.135742188 314.172851562 835.135742188 314.172851562 795.641896291 257.763671875 c 0,102,103
 757.463451642 201.354492188 757.463451642 201.354492188 707.220934733 165.71484375 c 128,-1,104
 656.977539352 130.075195312 656.977539352 130.075195312 602.240753625 111.510742188 c 128,-1,105
 547.504846372 92.947265625 547.504846372 92.947265625 496.277561023 92.947265625 c 0,106,107
 423.968676163 92.947265625 423.968676163 92.947265625 364.686523438 128.46484375 c 0,108,109
 299.852539062 163.982421875 299.852539062 163.982421875 267.374023438 232.859375 c 0,82,83
EndSplineSet
Validated: 524297
EndChar

StartChar: nine
Encoding: 57 57 28
Width: 935
GlyphClass: 2
Flags: W
LayerCount: 2
Fore
SplineSet
1062.70507812 781.830078125 m 0,0,1
 1109.27832031 974.625 1109.27832031 974.625 1109.27832031 1117.43359375 c 0,2,3
 1109.27832031 1232.47851562 1109.27832031 1232.47851562 1079.05761719 1314.35351562 c 0,4,5
 1043.20996094 1411.47460938 1043.20996094 1411.47460938 962.385742188 1454.1484375 c 0,6,7
 896.377929688 1489 896.377929688 1489 808.791507347 1489 c 0,8,9
 724.707299188 1489 724.707299188 1489 644.989107545 1450.82910156 c 128,-1,10
 565.270915902 1412.65722656 565.270915902 1412.65722656 499.135014247 1345.36328125 c 0,11,12
 431.655273438 1278.06933594 431.655273438 1278.06933594 375.086914062 1181.85644531 c 128,-1,13
 318.540039062 1085.67871094 318.540039062 1085.67871094 293.395507812 975.42578125 c 0,14,15
 279.127929688 913.81640625 279.127929688 913.81640625 279.127929688 854.217773438 c 0,16,17
 279.127929688 825.85546875 279.127929688 825.85546875 282.354492188 797.891601562 c 0,18,19
 292.301757812 711.678710938 292.301757812 711.678710938 327.1015625 647.647460938 c 128,-1,20
 361.900390625 583.616210938 361.900390625 583.616210938 422.099609375 545.30859375 c 0,21,22
 478.246364886 507 478.246364886 507 546.792998682 507 c 0,23,24
 653.619929961 507 653.619929961 507 728.091747242 530.206054688 c 128,-1,25
 802.563564523 553.413085938 802.563564523 553.413085938 859.25983135 614.071289062 c 2,26,-1
 945.942382812 697.415039062 l 1,27,-1
 899.065429688 586.299804688 l 2,28,29
 871.013671875 519.807617188 871.013671875 519.807617188 819.349693968 439.282226562 c 0,30,31
 768.484380054 358.756835938 768.484380054 358.756835938 712.358731693 296.967773438 c 1,32,33
 623.292518278 203.509765625 623.292518278 203.509765625 525.098154425 162.564453125 c 0,34,35
 478.526439087 143.14453125 478.526439087 143.14453125 442.2265625 132.409179688 c 0,36,37
 401.841796875 121.674804688 401.841796875 121.674804688 352.557617188 111.220703125 c 128,-1,38
 303.274414062 100.766601562 303.274414062 100.766601562 281.299804688 94.078125 c 0,39,40
 253.626953125 85.6923828125 253.626953125 85.6923828125 227.254882812 61.79296875 c 128,-1,41
 200.883789062 37.89453125 200.883789062 37.89453125 198.8671875 21.216796875 c 0,42,43
 197.58203125 8.7666015625 197.58203125 8.7666015625 200.989257812 1.4267578125 c 128,-1,44
 204.397460938 -5.9140625 204.397460938 -5.9140625 212.177734375 -10.7431640625 c 0,45,46
 229.874023438 -21.7275390625 229.874023438 -21.7275390625 257.185546875 -21.7275390625 c 0,47,48
 263.713867188 -21.7275390625 263.713867188 -21.7275390625 270.782226562 -21.0986328125 c 0,49,50
 382.900390625 -10.375 382.900390625 -10.375 480.706829829 22.703125 c 0,51,52
 571.973501608 55.7802734375 571.973501608 55.7802734375 659.745789665 119.490234375 c 128,-1,53
 747.449149803 183.151367188 747.449149803 183.151367188 818.698805015 272.623046875 c 0,54,55
 893.170898438 362.173828125 893.170898438 362.173828125 958.775390625 491.916015625 c 128,-1,56
 1024.38085938 621.658203125 1024.38085938 621.658203125 1062.70507812 781.830078125 c 0,0,1
975.385742188 1188.97851562 m 0,57,58
 993.177734375 1127.69628906 993.177734375 1127.69628906 993.177734375 1064.12988281 c 0,59,60
 993.177734375 1026.99707031 993.177734375 1026.99707031 987.6796875 992.866210938 c 0,61,62
 967.484375 871.696289062 967.484375 871.696289062 949.6328125 804.754882812 c 1,63,-1
 945.592773438 800.271484375 l 2,64,65
 878.114257812 725.413085938 878.114257812 725.413085938 792.292432145 682.206054688 c 0,66,67
 708.025870379 639 708.025870379 639 628.096532453 639 c 0,68,69
 496.014062792 639 496.014062792 639 447.211351405 739.045898438 c 0,70,71
 418.436523438 792.391601562 418.436523438 792.391601562 418.436523438 870.974609375 c 0,72,73
 418.436523438 933.137695312 418.436523438 933.137695312 436.649414062 1011.59375 c 0,74,75
 455.410283698 1099.34960938 455.410283698 1099.34960938 506.621109711 1180.85742188 c 128,-1,76
 557.76388031 1262.25683594 557.76388031 1262.25683594 627.94122651 1314.08691406 c 128,-1,77
 698.117700204 1365.91699219 698.117700204 1365.91699219 768.148465514 1366 c 0,78,79
 770.319258698 1366.04394531 770.319258698 1366.04394531 772.476964302 1366.04492188 c 0,80,81
 821.999492561 1366.04492188 821.999492561 1366.04492188 862.289169748 1342.10546875 c 0,82,83
 907.23828125 1318.16601562 907.23828125 1318.16601562 934.090820312 1278.44628906 c 128,-1,84
 960.943359375 1238.7265625 960.943359375 1238.7265625 975.385742188 1188.97851562 c 0,57,58
EndSplineSet
Validated: 524297
EndChar

StartChar: colon
Encoding: 58 58 29
Width: 1020
GlyphClass: 2
Flags: W
LayerCount: 2
Fore
SplineSet
590.747858221 719.439181931 m 0,0,1
 589.848 712.915209829 589.848 712.915209829 589.848 703.829957493 c 128,-1,2
 589.848 694.744705157 589.848 694.744705157 594.177137808 685.208112608 c 128,-1,3
 598.506275617 675.671520059 598.506275617 675.671520059 609.577056192 668.768839384 c 0,4,5
 629.455708384 656.374411784 629.455708384 656.374411784 668.566423277 653.951624136 c 0,6,7
 670.449480966 653.826086957 670.449480966 653.826086957 672.266540643 653.826086957 c 0,8,9
 693.494525926 653.826086957 693.494525926 653.826086957 722.07216995 670.268019135 c 128,-1,10
 750.649813974 686.709951313 750.649813974 686.709951313 766.377139492 720.647864272 c 0,11,12
 801.723344867 794.206183567 801.723344867 794.206183567 812.222157852 857.415418629 c 0,13,14
 812.848771682 865.937981736 812.848771682 865.937981736 812.857142857 868.775510204 c 0,15,16
 812.857142857 897.143241323 812.857142857 897.143241323 796.052660163 906.818549541 c 0,17,18
 771.421719893 921 771.421719893 921 742 921 c 2,19,-1
 741.332046234 921 l 2,20,21
 735.903474806 921.285714286 735.903474806 921.285714286 727.473234644 921.285714286 c 0,22,23
 700.55952278 921.285714286 700.55952278 921.285714286 669.206383886 910.38027467 c 0,24,25
 651.607239339 904.258833089 651.607239339 904.258833089 638.531602678 891.183196428 c 128,-1,26
 625.455966018 878.107559768 625.455966018 878.107559768 620.18170499 858.635199255 c 0,27,28
 598.549265202 774.049033223 598.549265202 774.049033223 590.747858221 719.439181931 c 0,0,1
465.285714286 163.091836735 m 0,29,30
 465.285714286 140.355767749 465.285714286 140.355767749 481.796842257 126.871679906 c 0,31,32
 505.472443177 107.53660582 505.472443177 107.53660582 535.332709036 105.96501288 c 2,33,-1
 535.532827847 105.953682744 l 2,34,35
 537.701926453 105.822222222 537.701926453 105.822222222 539.937777778 105.822222222 c 0,36,37
 564.952201376 105.822222222 564.952201376 105.822222222 598.560888466 122.22646235 c 0,38,39
 631.921975085 138.509849866 631.921975085 138.509849866 647.508107925 170.919665431 c 0,40,41
 682.367937354 242.523639394 682.367937354 242.523639394 687.05343499 308.6514211 c 0,42,43
 687.220970592 312.803533027 687.220970592 312.803533027 687.222222222 314.197530864 c 0,44,45
 687.222222222 334.319482108 687.222222222 334.319482108 676.77676945 348.68197967 c 128,-1,46
 666.331316677 363.044477232 666.331316677 363.044477232 650.993584803 368.522238616 c 128,-1,47
 635.655852928 374 635.655852928 374 617 374 c 2,48,-1
 616.253888517 374 l 2,49,50
 612.003888517 374.25 612.003888517 374.25 604.530132257 374.25 c 0,51,52
 580.559047678 374.25 580.559047678 374.25 547.061382257 362.830341334 c 0,53,54
 530.908580721 357.323704446 530.908580721 357.323704446 518.335354866 344.010877071 c 128,-1,55
 505.762129012 330.698049696 505.762129012 330.698049696 501.126895922 311.384578487 c 1,56,57
 486.407700314 263.674230885 486.407700314 263.674230885 481.856220923 248.822109687 c 128,-1,58
 477.304741532 233.969988489 477.304741532 233.969988489 475.558377094 224.801575193 c 2,59,-1
 465.746152554 171.321859066 l 2,60,61
 465.285714286 167.038144655 465.285714286 167.038144655 465.285714286 163.091836735 c 0,29,30
EndSplineSet
Validated: 524297
EndChar

StartChar: semicolon
Encoding: 59 59 30
Width: 1023
GlyphClass: 2
Flags: W
LayerCount: 2
Fore
SplineSet
746 836 m 2,0,-1
 745.253888517 836 l 2,1,2
 741.003888517 836.25 741.003888517 836.25 733.358870478 836.25 c 128,-1,3
 725.713852439 836.25 725.713852439 836.25 709.766920499 833.916302643 c 128,-1,4
 693.819988559 831.582605286 693.819988559 831.582605286 675.241881009 825.389902769 c 128,-1,5
 656.663773459 819.197200252 656.663773459 819.197200252 643.537607803 805.696001292 c 128,-1,6
 630.411442146 792.194802331 630.411442146 792.194802331 625.114492971 773.385116871 c 0,7,8
 602.556617297 689.015707395 602.556617297 689.015707395 594.765492024 634.562526377 c 0,9,10
 594.238096057 630.557884903 594.238096057 630.557884903 594.238095238 626.861678005 c 0,11,12
 594.238095238 612.337572647 594.238095238 612.337572647 602.792903215 601.266644678 c 0,13,14
 625.434475921 571.965785881 625.434475921 571.965785881 672.881297366 567.931284381 c 0,15,16
 674.554300477 567.826087237 674.554300477 567.826087237 676.266540643 567.826086957 c 0,17,18
 697.494525926 567.826086957 697.494525926 567.826086957 726.07216995 584.268019135 c 128,-1,19
 754.649813974 600.709951313 754.649813974 600.709951313 770.377139492 634.647864272 c 0,20,21
 805.735660892 708.231814213 805.735660892 708.231814213 816.227459938 772.437831156 c 0,22,23
 816.84848871 780.580410544 816.84848871 780.580410544 816.857142857 783.326530612 c 0,24,25
 816.857142857 795.917406584 816.857142857 795.917406584 812.849264516 806.337890272 c 128,-1,26
 808.841386175 816.758373959 808.841386175 816.758373959 800.052660163 821.818549541 c 0,27,28
 775.421719893 836 775.421719893 836 746 836 c 2,0,-1
637.100523798 158.352551601 m 0,29,30
 641.0625 171.228974257 641.0625 171.228974257 641.0625 177.222298464 c 0,31,32
 641.0625 194.613701911 641.0625 194.613701911 626.038859296 202.542845616 c 0,33,34
 596.75161941 218 596.75161941 218 566 218 c 2,35,-1
 563.331464731 218 l 1,36,37
 555.695101095 219.636363636 555.695101095 219.636363636 550.464398508 219.636363636 c 0,38,39
 534.181296177 219.636363636 534.181296177 219.636363636 514.354745806 212.115947978 c 0,40,41
 505.956590647 208.930440849 505.956590647 208.930440849 493.670259187 194.266109752 c 128,-1,42
 481.383927727 179.601778654 481.383927727 179.601778654 468.797058661 151.730854293 c 0,43,44
 423.940025352 52.0485580515 423.940025352 52.0485580515 344.242370537 -137.731482478 c 128,-1,45
 264.544715721 -327.511523008 264.544715721 -327.511523008 249.795640055 -375.691836851 c 0,46,47
 245.375 -388.659047678 245.375 -388.659047678 245.375 -399.505170552 c 128,-1,48
 245.375 -410.351293425 245.375 -410.351293425 253.307114365 -417.966123216 c 0,49,50
 271.594980925 -435.522475114 271.594980925 -435.522475114 300.332709036 -437.03498712 c 2,51,-1
 300.508771923 -437.044253587 l 2,52,53
 302.635665789 -437.186046512 302.635665789 -437.186046512 304.603028664 -437.186046512 c 0,54,55
 325.098947685 -437.186046512 325.098947685 -437.186046512 349.882734142 -422.315774637 c 128,-1,56
 374.6665206 -407.445502763 374.6665206 -407.445502763 391.414703316 -372.274319059 c 0,57,58
 617.656245347 95.158646636 617.656245347 95.158646636 637.100523798 158.352551601 c 0,29,30
EndSplineSet
Validated: 524297
EndChar

StartChar: less
Encoding: 60 60 31
Width: 1035
GlyphClass: 2
Flags: W
LayerCount: 2
Fore
SplineSet
1292.13157895 1370.36495845 m 0,0,1
 1292.13157895 1375.52874887 1292.13157895 1375.52874887 1290.51765375 1381.80512466 c 0,2,3
 1285.56933133 1411.49505915 1285.56933133 1411.49505915 1261.81805684 1428.76871332 c 0,4,5
 1254.23218052 1434.28571429 1254.23218052 1434.28571429 1240.5 1434.28571429 c 0,6,7
 1216.69366098 1434.28571429 1216.69366098 1434.28571429 1184.41695088 1415.29941423 c 0,8,9
 1076.43809369 1354.87087947 1076.43809369 1354.87087947 931.602671501 1250.3504717 c 128,-1,10
 786.767249311 1145.83006394 786.767249311 1145.83006394 610.583926412 1015.19441968 c 128,-1,11
 434.400603514 884.558775415 434.400603514 884.558775415 305.038609287 797.643685544 c 1,12,13
 283.833106504 785.862850664 283.833106504 785.862850664 269.875085701 758.35733908 c 0,14,15
 255.48642207 730.003207808 255.48642207 730.003207808 255.487804878 699.254015467 c 0,16,17
 255.487804878 675.262695903 255.487804878 675.262695903 267.211855754 664.124847571 c 0,18,19
 319.386830631 613.99595014 319.386830631 613.99595014 388.985358344 529.267307707 c 128,-1,20
 458.583886056 444.538665275 458.583886056 444.538665275 520.104587788 364.511736192 c 128,-1,21
 581.625289521 284.484807109 581.625289521 284.484807109 644.037427343 207.708049432 c 128,-1,22
 706.449565166 130.931291754 706.449565166 130.931291754 761.484195256 77.8109096672 c 128,-1,23
 816.518825346 24.6905275803 816.518825346 24.6905275803 855.904471432 10.368474458 c 0,24,25
 883.045169772 -0.487804878049 883.045169772 -0.487804878049 905.784057109 -0.487804878049 c 0,26,27
 911.870733592 -0.487804878049 911.870733592 -0.487804878049 917.694048557 0.282927984938 c 0,28,29
 946.459101046 4.0900672849 946.459101046 4.0900672849 963.782874993 14.7205649343 c 128,-1,30
 981.10664894 25.3510625837 981.10664894 25.3510625837 991.997204013 41.5633785007 c 0,31,32
 1001.32856711 62.5340227682 1001.32856711 62.5340227682 1002.02898551 71.6210880067 c 0,33,34
 1002.02898551 101.994075698 1002.02898551 101.994075698 943.008455217 151.788412127 c 0,35,36
 890.366418736 195.164418383 890.366418736 195.164418383 826.408948766 269.781469189 c 128,-1,37
 762.451478795 344.398519994 762.451478795 344.398519994 709.852612361 415.031283492 c 128,-1,38
 657.253745926 485.66404699 657.253745926 485.66404699 586.264209227 573.035784465 c 128,-1,39
 515.274672528 660.407521941 515.274672528 660.407521941 457.031486117 720.625053654 c 2,40,-1
 436.327915759 742.030439957 l 1,41,42
 531.840821539 806.602545273 531.840821539 806.602545273 791.951187177 989.180013461 c 128,-1,43
 1052.06155281 1171.75748165 1052.06155281 1171.75748165 1176.4728022 1252.02280383 c 0,44,45
 1249.07016478 1298.82899813 1249.07016478 1298.82899813 1275.5221398 1331.66593263 c 0,46,47
 1292.13157895 1352.28454675 1292.13157895 1352.28454675 1292.13157895 1370.36495845 c 0,0,1
EndSplineSet
Validated: 524297
EndChar

StartChar: equal
Encoding: 61 61 32
Width: 1031
GlyphClass: 2
Flags: W
LayerCount: 2
Fore
SplineSet
480.472057075 1057.13793103 m 0,0,1
 446.989268294 1057.13793103 446.989268294 1057.13793103 427.686550143 1038.85114542 c 0,2,3
 405.115889546 1017.46841433 405.115889546 1017.46841433 399.490320709 986.929612067 c 0,4,5
 397.793103448 979.504286553 397.793103448 979.504286553 397.793103448 973.450653983 c 0,6,7
 397.793103448 959.203654392 397.793103448 959.203654392 407.149610655 948.064955336 c 0,8,9
 420.644173137 932 420.644173137 932 456 932 c 0,10,11
 518.620406418 932 518.620406418 932 652.241760266 935.98869713 c 2,12,-1
 862.274135655 941.989642849 l 2,13,14
 893.067707397 942.8 893.067707397 942.8 929.914018558 942.8 c 128,-1,15
 966.760329719 942.8 966.760329719 942.8 1009.12790399 940.930842312 c 0,16,17
 1015.43178534 940.142857143 1015.43178534 940.142857143 1023.41593312 940.142857143 c 128,-1,18
 1031.4000809 940.142857143 1031.4000809 940.142857143 1042.0648982 944.466431724 c 0,19,20
 1062.00783271 952.551405173 1062.00783271 952.551405173 1075.20294134 981.769145707 c 0,21,22
 1085.94594515 1005.55722557 1085.94594515 1005.55722557 1085.94594595 1027.17750183 c 0,23,24
 1085.94594595 1040.62853411 1085.94594595 1040.62853411 1080.95464537 1048.81426706 c 128,-1,25
 1075.96334479 1057 1075.96334479 1057 1045 1057 c 0,26,27
 1025.25326897 1057 1025.25326897 1057 924.735955765 1054.99965546 c 0,28,29
 674.849926702 1050.02679916 674.849926702 1050.02679916 486.060117329 1057.01737749 c 0,30,31
 483.16683231 1057.13793103 483.16683231 1057.13793103 480.472057075 1057.13793103 c 0,0,1
398.49134291 650.005082476 m 2,32,-1
 395.030820491 650.040816327 l 2,33,34
 357.263640252 650.040816327 357.263640252 650.040816327 334.629799636 632.601627656 c 128,-1,35
 311.995959021 615.162438985 311.995959021 615.162438985 307.495465577 588.909560564 c 0,36,37
 304.943396226 578.4177199 304.943396226 578.4177199 304.943396226 570.194375222 c 0,38,39
 304.943396226 556.089447673 304.943396226 556.089447673 312.127202519 545.621615647 c 0,40,41
 322.161644629 531 322.161644629 531 356 531 c 0,42,43
 417.579351856 531 417.579351856 531 553.458082179 535.4959874 c 0,44,45
 750.005968927 541.999410124 750.005968927 541.999410124 810.116482656 541.999705062 c 128,-1,46
 870.226996386 542 870.226996386 542 917.194968348 539.92788359 c 0,47,48
 923.213504442 539.142857143 923.213504442 539.142857143 930.806792673 539.142857143 c 128,-1,49
 938.400080904 539.142857143 938.400080904 539.142857143 948.958348742 543.423235996 c 128,-1,50
 959.51661658 547.70361485 959.51661658 547.70361485 968.044784147 558.456521782 c 0,51,52
 985.087969483 579.945755466 985.087969483 579.945755466 991.437767064 609.705629485 c 0,53,54
 995.746405914 635.362128201 995.746405914 635.362128201 988.408722191 647.897337894 c 0,55,56
 983.696153797 655.947975567 983.696153797 655.947975567 953.270961806 655.999769689 c 2,57,-1
 750.06224923 651.506210934 l 2,58,59
 629.485517594 648.8 629.485517594 648.8 544.115492158 648.8 c 128,-1,60
 458.745466722 648.8 458.745466722 648.8 398.49134291 650.005082476 c 2,32,-1
EndSplineSet
Validated: 524329
EndChar

StartChar: greater
Encoding: 62 62 33
Width: 1035
GlyphClass: 2
Flags: W
LayerCount: 2
Fore
SplineSet
505.520523498 1448.48780488 m 0,0,1
 499.543982654 1448.48780488 499.543982654 1448.48780488 493.853983123 1447.72347658 c 0,2,3
 465.434111209 1443.90588185 465.434111209 1443.90588185 447.628935236 1433.22277626 c 128,-1,4
 429.823759263 1422.53967068 429.823759263 1422.53967068 419.002437774 1406.43604233 c 0,5,6
 408.971016114 1390.3555347 408.971016114 1390.3555347 408.971014493 1376.37891199 c 0,7,8
 408.971014493 1346.0059243 408.971014493 1346.0059243 467.991544784 1296.21158787 c 0,9,10
 520.633581264 1252.83558162 520.633581264 1252.83558162 584.591051234 1178.21853081 c 128,-1,11
 648.548521205 1103.60148001 648.548521205 1103.60148001 701.147387639 1032.96871651 c 128,-1,12
 753.746254074 962.33595301 753.746254074 962.33595301 824.70237566 875.005341827 c 128,-1,13
 895.658497247 787.674730643 895.658497247 787.674730643 954.820777264 727.526412626 c 2,14,-1
 975.883591866 706.112551113 l 1,15,16
 880.159178462 641.397454727 880.159178462 641.397454727 620.048812823 458.819986539 c 128,-1,17
 359.938447185 276.24251835 359.938447185 276.24251835 235.527197799 195.977196165 c 0,18,19
 161.882743903 149.112543686 161.882743903 149.112543686 135.477860201 116.334067367 c 0,20,21
 118.868421053 95.7154532515 118.868421053 95.7154532515 118.868421053 77.6350415512 c 0,22,23
 118.868421053 72.8543283259 118.868421053 72.8543283259 121.238814319 62.4385497572 c 128,-1,24
 123.609207586 52.0227711886 123.609207586 52.0227711886 130.364592229 40.0131984906 c 128,-1,25
 137.119976871 28.0036257926 137.119976871 28.0036257926 149.181943157 19.2312866762 c 0,26,27
 156.28013475 14.0689655172 156.28013475 14.0689655172 169.344233056 14.0689655172 c 0,28,29
 194.225712633 14.0689655172 194.225712633 14.0689655172 226.552660163 32.6814504588 c 0,30,31
 334.513176246 94.0901843776 334.513176246 94.0901843776 479.370144965 198.128350915 c 128,-1,32
 624.227113685 302.166517452 624.227113685 302.166517452 800.430907781 433.31770141 c 128,-1,33
 976.634701878 564.468885369 976.634701878 564.468885369 1106.02060152 650.389209348 c 1,34,35
 1127.1668935 662.137149336 1127.1668935 662.137149336 1141.1249143 689.64266092 c 0,36,37
 1155.51418517 717.997988821 1155.51418517 717.997988821 1155.51282051 748.834976989 c 0,38,39
 1155.51282051 772.913846818 1155.51282051 772.913846818 1144.54838929 784.10095654 c 0,40,41
 1091.48890653 834.155327048 1091.48890653 834.155327048 1021.95251024 918.808330887 c 128,-1,42
 952.416113944 1003.46133473 952.416113944 1003.46133473 890.868805957 1083.52287357 c 128,-1,43
 829.321497969 1163.58441242 829.321497969 1163.58441242 767.43895485 1240.81378639 c 128,-1,44
 705.556411731 1318.04316037 705.556411731 1318.04316037 650.073231987 1370.65652047 c 128,-1,45
 594.590052242 1423.26988057 594.590052242 1423.26988057 555.095528568 1437.63152554 c 0,46,47
 527.954830228 1448.48780488 527.954830228 1448.48780488 505.520523498 1448.48780488 c 0,0,1
EndSplineSet
Validated: 524297
EndChar

StartChar: question
Encoding: 63 63 34
Width: 1032
GlyphClass: 2
Flags: W
LayerCount: 2
Fore
SplineSet
1176.99230769 1203.83298817 m 0,0,1
 1176.99230769 1302.21114053 1176.99230769 1302.21114053 1129.56231133 1360.78432881 c 0,2,3
 1054.08035319 1454 1054.08035319 1454 860 1454 c 0,4,5
 799.535311198 1454 799.535311198 1454 737.863881134 1430.93206051 c 128,-1,6
 676.192451071 1407.86412102 676.192451071 1407.86412102 625.865855229 1369.520048 c 0,7,8
 528.791165919 1295.55837995 528.791165919 1295.55837995 469.623415759 1212.86514316 c 0,9,10
 437.000002222 1163.36492203 437.000002222 1163.36492203 437 1136.5 c 0,11,12
 437 1116.16525337 437 1116.16525337 452.453328166 1105.72968613 c 0,13,14
 469.759019024 1097.15902239 469.759019024 1097.15902239 477.600767474 1094.74617786 c 128,-1,15
 485.442515924 1092.33333333 485.442515924 1092.33333333 490.646299157 1092.33333333 c 128,-1,16
 495.850082391 1092.33333333 495.850082391 1092.33333333 500.053050727 1092.8278002 c 0,17,18
 521.006776443 1095.2929444 521.006776443 1095.2929444 560.962658779 1142.19767584 c 0,19,20
 585.177911332 1170.44880381 585.177911332 1170.44880381 602.071253317 1189.38982362 c 128,-1,21
 618.964595303 1208.33084342 618.964595303 1208.33084342 648.962778928 1237.29460692 c 128,-1,22
 678.960962553 1266.25837042 678.960962553 1266.25837042 703.794335385 1284.07361615 c 128,-1,23
 728.627708217 1301.88886187 728.627708217 1301.88886187 762.217482978 1316.44443094 c 128,-1,24
 795.80725774 1331 795.80725774 1331 828 1331 c 0,25,26
 945.661541193 1331 945.661541193 1331 999.049010207 1275.29133668 c 0,27,28
 1036.22857143 1236.4952728 1036.22857143 1236.4952728 1036.22857143 1169.8677551 c 0,29,30
 1036.22857143 1137.52822129 1036.22857143 1137.52822129 1026.78970373 1096.25793302 c 128,-1,31
 1017.35083602 1054.98764474 1017.35083602 1054.98764474 992.733061418 1017.787452 c 128,-1,32
 968.115286811 980.587259262 968.115286811 980.587259262 935.029947719 950.652904845 c 128,-1,33
 901.944608626 920.718550428 901.944608626 920.718550428 864.545751264 892.416712424 c 128,-1,34
 827.146893903 864.114874421 827.146893903 864.114874421 786.657252474 833.007027188 c 128,-1,35
 746.167611045 801.899179954 746.167611045 801.899179954 709.854468831 768.006913888 c 128,-1,36
 673.541326616 734.114647821 673.541326616 734.114647821 637.524876284 687.533372058 c 128,-1,37
 601.508425952 640.952096295 601.508425952 640.952096295 576.688548673 587.493899078 c 0,38,39
 555 539.779091998 555 539.779091998 555 510 c 0,40,41
 555 488.590454806 555 488.590454806 568.761360669 477.335627688 c 0,42,43
 578.60798682 469.282494156 578.60798682 469.282494156 595.80257721 464.065759833 c 0,44,45
 612.29573213 461.027880995 612.29573213 461.027880995 618.226883437 460.927710843 c 0,46,47
 639.565037923 460.927710843 639.565037923 460.927710843 655.955004259 474.666359096 c 0,48,49
 684.911861354 498.93901872 684.911861354 498.93901872 702.600953412 545.815112672 c 0,50,51
 723.75893878 602.941673167 723.75893878 602.941673167 758.687766385 650.571892628 c 128,-1,52
 793.61659399 698.202112089 793.61659399 698.202112089 832.742403156 731.067791788 c 128,-1,53
 871.868212322 763.933471488 871.868212322 763.933471488 913.782797939 792.718186912 c 128,-1,54
 955.697383557 821.502902336 955.697383557 821.502902336 994.869699286 849.413234202 c 128,-1,55
 1034.04201502 877.323566069 1034.04201502 877.323566069 1066.14080894 908.006236731 c 128,-1,56
 1098.23960286 938.688907392 1098.23960286 938.688907392 1123.39078913 981.073313875 c 128,-1,57
 1148.54197539 1023.45772036 1148.54197539 1023.45772036 1160.66892935 1074.76406404 c 0,58,59
 1176.99230769 1145.96177808 1176.99230769 1145.96177808 1176.99230769 1203.83298817 c 0,0,1
665.838709677 174.395421436 m 0,60,61
 665.838709677 206.639487082 665.838709677 206.639487082 649.005281389 230.687241781 c 0,62,63
 626.955100635 262.1875 626.955100635 262.1875 579.236328125 262.1875 c 0,64,65
 520.641267974 262.1875 520.641267974 262.1875 464.7229966 219.173445097 c 0,66,67
 413.274349358 179.597562603 413.274349358 179.597562603 400.321682355 125.19636119 c 0,68,69
 395.721649485 105.64622149 395.721649485 105.64622149 395.721649485 88.1474120523 c 0,70,71
 395.721649485 54.14118976 395.721649485 54.14118976 413.413327093 27.1954038637 c 0,72,73
 433.969378378 -4.11304347826 433.969378378 -4.11304347826 478.470926276 -4.11304347826 c 0,74,75
 486.460586318 -4.11304347826 486.460586318 -4.11304347826 495.250802009 -3.14973216961 c 0,76,77
 557.504083132 3.96492853013 557.504083132 3.96492853013 602.986506835 43.2652752248 c 128,-1,78
 648.468930538 82.5656219195 648.468930538 82.5656219195 661.638990107 139.635880053 c 0,79,80
 665.838709677 158.114646164 665.838709677 158.114646164 665.838709677 174.395421436 c 0,60,61
EndSplineSet
Validated: 524297
EndChar

StartChar: at
Encoding: 64 64 35
Width: 1036
GlyphClass: 2
Flags: W
LayerCount: 2
Fore
SplineSet
929.75 100.875 m 0,0,1
 929.75 102.754356666 929.75 102.754356666 929.485310147 104.077805931 c 0,2,3
 927.654698078 113.230866277 927.654698078 113.230866277 923.990120051 117.872665111 c 128,-1,4
 920.325542024 122.514463945 920.325542024 122.514463945 911.498278148 126.297577035 c 0,5,6
 903.5 130.296716109 903.5 130.296716109 896.704540967 126.898986592 c 128,-1,7
 889.909081934 123.501257076 889.909081934 123.501257076 884.800989337 119.852619507 c 0,8,9
 878.255814096 115.177494334 878.255814096 115.177494334 862.878751471 97.7501566929 c 0,10,11
 851.449092708 84.7965434283 851.449092708 84.7965434283 836.469287846 65.3234317369 c 0,12,13
 811.020786617 33.7672902122 811.020786617 33.7672902122 791.143987627 11.7981965919 c 128,-1,14
 771.267188637 -10.1708970285 771.267188637 -10.1708970285 739.355859659 -36.2318156939 c 128,-1,15
 707.444530681 -62.2927343594 707.444530681 -62.2927343594 674.351732475 -78.0253761294 c 128,-1,16
 641.258934269 -93.7580178994 641.258934269 -93.7580178994 595.115575657 -104.365686546 c 128,-1,17
 548.856312131 -115 548.856312131 -115 496.110511002 -115 c 128,-1,18
 443.364709872 -115 443.364709872 -115 398.793013063 -93.8570156159 c 128,-1,19
 354.221316253 -72.7140312318 354.221316253 -72.7140312318 318.959462278 -21.474149675 c 128,-1,20
 283.697608304 29.7657318818 283.697608304 29.7657318818 266.636061224 103.876827008 c 0,21,22
 254.622222222 156.061940174 254.622222222 156.061940174 254.622222222 229.330123457 c 0,23,24
 254.622222222 367.187763255 254.622222222 367.187763255 295.627393218 546.58538636 c 0,25,26
 332.162032132 707.946708234 332.162032132 707.946708234 393.779606887 845.440470083 c 128,-1,27
 455.397181641 982.934231931 455.397181641 982.934231931 528.632383957 1077.31480956 c 128,-1,28
 601.867586272 1171.6953872 601.867586272 1171.6953872 685.7505707 1225.8476936 c 128,-1,29
 769.633555127 1280 769.633555127 1280 852 1280 c 0,30,31
 870.488733871 1280 870.488733871 1280 885.120160084 1279.43725284 c 128,-1,32
 899.751586298 1278.87450568 899.751586298 1278.87450568 927.491537924 1271.51492667 c 128,-1,33
 955.231489551 1264.15534767 955.231489551 1264.15534767 975.131899281 1251.27861196 c 128,-1,34
 995.032309011 1238.40187625 995.032309011 1238.40187625 1019.36694167 1212.93540022 c 128,-1,35
 1043.70157432 1187.46892418 1043.70157432 1187.46892418 1056.44659954 1152.55863772 c 128,-1,36
 1069.19162475 1117.64835127 1069.19162475 1117.64835127 1078.4480851 1068.44295677 c 128,-1,37
 1087.70454545 1019.23756228 1087.70454545 1019.23756228 1087.70454545 964.32231405 c 0,38,39
 1087.70454545 895.784476146 1087.70454545 895.784476146 1074.66037288 800.127210617 c 128,-1,40
 1061.61620031 704.469945087 1061.61620031 704.469945087 1037.36100989 599.364119947 c 0,41,42
 1022.54185392 533.736429227 1022.54185392 533.736429227 996.167741322 456.432995739 c 0,43,44
 980.673967004 411.020208944 980.673967004 411.020208944 961.494155452 381.428499692 c 0,45,46
 936.58679454 343 936.58679454 343 907 343 c 0,47,48
 889.693188018 343 889.693188018 343 876.351653627 350.623733938 c 0,49,50
 859.098772405 360.482523208 859.098772405 360.482523208 851.170537515 381.00266057 c 0,51,52
 845.25 396.326404726 845.25 396.326404726 845.25 420.171523487 c 128,-1,53
 845.25 444.016642248 845.25 444.016642248 849.744041355 476.003642481 c 0,54,55
 858.555121277 538.717799569 858.555121277 538.717799569 895.254940636 649.836697075 c 0,56,57
 897.03030303 655.096475173 897.03030303 655.096475173 897.03030303 657.922865014 c 0,58,59
 896.508567556 658.824371551 896.508567556 658.824371551 895.236429948 659.432784957 c 0,60,61
 886.715587383 663.564102564 886.715587383 663.564102564 874.715318869 663.564102564 c 0,62,63
 853.992435718 663.564102564 853.992435718 663.564102564 824.201567663 651.750482473 c 0,64,65
 783.238536629 635.519847536 783.238536629 635.519847536 778.206113334 615.730981125 c 0,66,67
 747.011739463 495.11273549 747.011739463 495.11273549 707.179128721 440.746604613 c 0,68,69
 662.67171544 380 662.67171544 380 590 380 c 0,70,71
 550.777325828 380 550.777325828 380 529.255676037 407.670692589 c 0,72,73
 510.438590719 431.864087997 510.438590719 431.864087997 508.533797173 468.690096565 c 0,74,75
 508 479.010175235 508 479.010175235 508 493.859898765 c 0,76,77
 508 529.200256257 508 529.200256257 519.647097888 579.847607795 c 128,-1,78
 531.294195775 630.494959333 531.294195775 630.494959333 552.337688579 672.581944941 c 128,-1,79
 573.381181384 714.66893055 573.381181384 714.66893055 599.403294599 741.244705748 c 128,-1,80
 625.425407814 767.820480947 625.425407814 767.820480947 655.314328779 785.638876138 c 128,-1,81
 685.203249745 803.457271329 685.203249745 803.457271329 715.982805469 805.919635787 c 0,82,83
 724.130215278 806.571428571 724.130215278 806.571428571 738.203824042 806.571428571 c 128,-1,84
 752.277432805 806.571428571 752.277432805 806.571428571 772.200367006 802.240355919 c 1,85,86
 820.617577131 788 820.617577131 788 838.277777778 788 c 0,87,88
 847.748891007 788 847.748891007 788 865.090096301 793.381753367 c 0,89,90
 883.474075438 799.087126203 883.474075438 799.087126203 901.539095026 825.36351833 c 0,91,92
 905.876712329 831.387986807 905.876712329 831.387986807 905.876712329 837.720155627 c 128,-1,93
 905.876712329 844.052324448 905.876712329 844.052324448 900.108897717 853.561424214 c 0,94,95
 885.534631229 877.589268964 885.534631229 877.589268964 852.402545586 893.353741424 c 0,96,97
 810.183331339 912.890625 810.183331339 912.890625 761.612792969 912.890625 c 0,98,99
 726.307535187 912.890625 726.307535187 912.890625 687.195281503 901.535454576 c 128,-1,100
 648.083027819 890.180284151 648.083027819 890.180284151 606.585646498 860.339470617 c 128,-1,101
 565.088265177 830.498657083 565.088265177 830.498657083 528.591269677 787.365844219 c 128,-1,102
 492.235711805 744.400184916 492.235711805 744.400184916 462.50119759 681.094444973 c 128,-1,103
 432.766683374 617.78870503 432.766683374 617.78870503 416.383341687 547.007571746 c 128,-1,104
 400 476.226438462 400 476.226438462 400 425.827160494 c 0,105,106
 400 366.068545782 400 366.068545782 421.527800949 329.710481956 c 0,107,108
 459.251112634 266 459.251112634 266 558 266 c 0,109,110
 665.123926499 266 665.123926499 266 734.013107285 392.901122501 c 2,111,-1
 799.672465558 513.852571951 l 1,112,-1
 780.76194014 377.539201235 l 2,113,114
 777.444444444 353.625586427 777.444444444 353.625586427 777.444444444 333.537722908 c 0,115,116
 777.444444444 286.063671805 777.444444444 286.063671805 795.68554513 261.714054377 c 0,117,118
 817.196189334 233 817.196189334 233 870 233 c 0,119,120
 913.74354197 233 913.74354197 233 954.888629479 263.52700041 c 128,-1,121
 996.033716989 294.054000821 996.033716989 294.054000821 1028.69982571 349.444359087 c 0,122,123
 1092.72441858 458.007799167 1092.72441858 458.007799167 1126.05285032 603.755802539 c 0,124,125
 1191 887.775088605 1191 887.775088605 1191 1065 c 0,126,127
 1191 1148.83400953 1191 1148.83400953 1175.39156539 1209.84879937 c 128,-1,128
 1159.78313078 1270.86358921 1159.78313078 1270.86358921 1134.94301078 1309.25286558 c 128,-1,129
 1110.10289077 1347.64214195 1110.10289077 1347.64214195 1071.87562607 1371.0282333 c 128,-1,130
 1033.64836137 1394.41432464 1033.64836137 1394.41432464 987.015800994 1404.20716232 c 128,-1,131
 940.383240619 1414 940.383240619 1414 879 1414 c 0,132,133
 799.605757877 1414 799.605757877 1414 716.093425155 1374.61634309 c 128,-1,134
 632.581092432 1335.23268618 632.581092432 1335.23268618 552.090324415 1254.74191817 c 128,-1,135
 471.599556398 1174.25115015 471.599556398 1174.25115015 398.979468622 1060.90493206 c 128,-1,136
 326.359380845 947.558713981 326.359380845 947.558713981 265.142990303 793.530376488 c 128,-1,137
 203.926599761 639.502038994 203.926599761 639.502038994 162.347362335 461.305307171 c 0,138,139
 130.404761905 322.311829621 130.404761905 322.311829621 130.404761905 201.959183673 c 0,140,141
 130.404761905 50.0393712855 130.404761905 50.0393712855 175.421589074 -53.0111969332 c 0,142,143
 214.117000989 -141.591055534 214.117000989 -141.591055534 284.014942853 -190.795527767 c 128,-1,144
 353.912884716 -240 353.912884716 -240 446 -240 c 2,145,-1
 446.431227018 -240 l 2,146,147
 451.836843427 -240.091620617 451.836843427 -240.091620617 457.192743764 -240.095238095 c 0,148,149
 507.940489778 -240.095238095 507.940489778 -240.095238095 557.186666902 -231.431558786 c 128,-1,150
 606.432844026 -222.767879478 606.432844026 -222.767879478 644.623549437 -208.62317377 c 128,-1,151
 682.814254848 -194.478468062 682.814254848 -194.478468062 718.419567412 -171.691068021 c 128,-1,152
 754.024879976 -148.90366798 754.024879976 -148.90366798 778.485962476 -127.735423509 c 128,-1,153
 802.947044975 -106.567179039 802.947044975 -106.567179039 826.982844432 -76.7627877116 c 128,-1,154
 851.01864389 -46.9583963844 851.01864389 -46.9583963844 866.049178111 -25.6247349094 c 128,-1,155
 880.945779399 -4.48117179056 880.945779399 -4.48117179056 897.509246903 23.7741551276 c 0,156,157
 916.311913535 54.7985550717 916.311913535 54.7985550717 923.030956768 73.4625640502 c 128,-1,158
 929.75 92.1265730288 929.75 92.1265730288 929.75 100.875 c 0,0,1
897.213143994 658.320868676 m 1,159,-1
 897.213143994 658.320868676 l 1,159,-1
EndSplineSet
Validated: 524297
EndChar

StartChar: A
Encoding: 65 65 36
Width: 937
GlyphClass: 2
Flags: W
LayerCount: 2
Fore
SplineSet
799.866210938 564.974609375 m 2,0,1
 813.403320312 590.580078125 813.403320312 590.580078125 826.940429688 566.185546875 c 1,2,3
 818.318359375 322.096679688 818.318359375 322.096679688 818.318359375 229.0234375 c 128,-1,4
 818.318359375 135.950195312 818.318359375 135.950195312 821.782226562 111.317382812 c 0,5,6
 828.348632812 58.7880859375 828.348632812 58.7880859375 849.874023438 45.12109375 c 0,7,8
 860.791015625 38.189453125 860.791015625 38.189453125 872.326171875 38.189453125 c 0,9,10
 883.291015625 38.189453125 883.291015625 38.189453125 897.729492188 44.22265625 c 0,11,12
 917.6796875 52.2021484375 917.6796875 52.2021484375 934.407226562 69.7451171875 c 128,-1,13
 951.123046875 87.2763671875 951.123046875 87.2763671875 960.350585938 114.12109375 c 0,14,15
 964.5 126.19140625 964.5 126.19140625 964.5 139.814453125 c 128,-1,16
 964.5 153.436523438 964.5 153.436523438 959.124023438 172.151367188 c 0,17,18
 946.692382812 215.423828125 946.692382812 215.423828125 946.692382812 412.118164062 c 0,19,20
 946.692382812 533.110351562 946.692382812 533.110351562 951.508789062 712.681640625 c 0,21,22
 964.026367188 1179.3359375 964.026367188 1179.3359375 984.078125 1433.98535156 c 0,23,24
 984.551757812 1439.63964844 984.551757812 1439.63964844 984.551757812 1443.90917969 c 0,25,26
 984.551757812 1466.95507812 984.551757812 1466.95507812 973.150390625 1475.39160156 c 0,27,28
 959.205078125 1485.7109375 959.205078125 1485.7109375 938.776367188 1485.7109375 c 0,29,30
 933.942382812 1485.7109375 933.942382812 1485.7109375 927.364257812 1485 c 2,31,-1
 926 1485 l 2,32,33
 906.859375 1485 906.859375 1485 884.774414062 1469.58203125 c 128,-1,34
 862.689453125 1454.16503906 862.689453125 1454.16503906 827.701171875 1415.4140625 c 0,35,36
 665.121787226 1219.81152344 665.121787226 1219.81152344 329.422412469 627.766601562 c 1,37,38
 325.399338344 651.416015625 325.399338344 651.416015625 321.376264219 625.065429688 c 2,39,40
 286.898299128 613.489257812 286.898299128 613.489257812 259.966796875 591.490234375 c 128,-1,41
 232.986328125 569.491210938 232.986328125 569.491210938 229.446289062 549.666015625 c 0,42,43
 227.868164062 543.528320312 227.868164062 543.528320312 227.868164062 539.038085938 c 0,44,45
 227.868164062 526.071289062 227.868164062 526.071289062 240.923828125 515.267578125 c 2,46,47
 249.29296875 533.340820312 249.29296875 533.340820312 257.663085938 501.4140625 c 1,48,49
 91.3818359375 230.673828125 91.3818359375 230.673828125 64.998046875 166.1796875 c 1,50,51
 40.6953125 111.831054688 40.6953125 111.831054688 40.6953125 79.162109375 c 0,52,53
 40.6953125 66.1796875 40.6953125 66.1796875 44.7666015625 57.267578125 c 128,-1,54
 48.8388671875 48.3544921875 48.8388671875 48.3544921875 58.38671875 43.271484375 c 128,-1,55
 67.9345703125 38.189453125 67.9345703125 38.189453125 79.703125 38.189453125 c 128,-1,56
 91.4716796875 38.189453125 91.4716796875 38.189453125 107.84375 46.375 c 0,57,58
 140.518554688 62.712890625 140.518554688 62.712890625 169.913085938 119.719726562 c 1,59,60
 279.424804688 344.205078125 279.424804688 344.205078125 378.735188596 518.690429688 c 1,61,62
 570.929091073 553.908203125 570.929091073 553.908203125 799.866210938 564.974609375 c 2,0,1
810.844726562 1249.05859375 m 2,63,-1
 857.8828125 1305.09472656 l 1,64,-1
 832.051757812 654.627929688 l 1,65,-1
 808.672851562 654.008789062 l 2,66,67
 666.809279958 650.040039062 666.809279958 650.040039062 488.667557703 626.180664062 c 2,68,-1
 443.929214712 620.188476562 l 1,69,-1
 466.439963242 663.4765625 l 2,70,71
 698.84701976 1110.375 698.84701976 1110.375 810.844726562 1249.05859375 c 2,63,-1
EndSplineSet
Validated: 524297
EndChar

StartChar: B
Encoding: 66 66 37
Width: 935
GlyphClass: 2
Flags: W
LayerCount: 2
Fore
SplineSet
967.61328125 412.526367188 m 0,0,1
 969.987304688 422.671875 969.987304688 422.671875 969.987304688 433.083984375 c 0,2,3
 969.987304688 462.467773438 969.987304688 462.467773438 951.499023438 496.625976562 c 0,4,5
 924.21875 547.024414062 924.21875 547.024414062 876.109375 588.127929688 c 128,-1,6
 828 629.23046875 828 629.23046875 774.553652734 650.697265625 c 2,7,8
 747.705526259 637.228515625 747.705526259 637.228515625 720.856513385 673.759765625 c 1,9,10
 747.631068778 660.499023438 747.631068778 660.499023438 774.40651057 697.23828125 c 2,11,12
 864.928710938 733.9140625 864.928710938 733.9140625 932.361328125 814.078125 c 128,-1,13
 999.885742188 894.352539062 999.885742188 894.352539062 1024.57519531 1007.35253906 c 0,14,15
 1036.25 1061.13964844 1036.25 1061.13964844 1036.25 1108.75 c 0,16,17
 1036.25 1168.93457031 1036.25 1168.93457031 1017.55371094 1219.31152344 c 0,18,19
 984.686523438 1307.87011719 984.686523438 1307.87011719 902.487304688 1355.43554688 c 128,-1,20
 820.287109375 1403 820.287109375 1403 706.539403582 1403 c 2,21,-1
 687.024452528 1403 l 1,22,-1
 652.07907506 1403 l 2,23,24
 637.188465378 1403 637.188465378 1403 608.842325309 1401.53613281 c 0,25,26
 558.267081746 1398.92382812 558.267081746 1398.92382812 498.704643018 1386.90917969 c 0,27,28
 467.833153406 1380.68164062 467.833153406 1380.68164062 436.80831684 1370 c 1,29,-1
 433.330088827 1370 l 1,30,-1
 426.06871169 1370 l 2,31,32
 399.1053534 1370 399.1053534 1370 374.974038561 1347.0390625 c 128,-1,33
 350.841837324 1324.07714844 350.841837324 1324.07714844 339.042985876 1276.41503906 c 2,34,35
 325.663685767 1196.70214844 325.663685767 1196.70214844 312.285272056 1166.98925781 c 2,36,37
 292.247070312 1087.87597656 292.247070312 1087.87597656 281.34375 1041.2890625 c 128,-1,38
 270.431640625 994.665039062 270.431640625 994.665039062 242.520507812 857.107421875 c 0,39,40
 192.47265625 599.866210938 192.47265625 599.866210938 138.8359375 357.24609375 c 128,-1,41
 85.19921875 114.626953125 85.19921875 114.626953125 58.9111328125 28.6865234375 c 0,42,43
 53.181640625 9.9697265625 53.181640625 9.9697265625 53.181640625 -4.20703125 c 128,-1,44
 53.181640625 -18.38671875 53.181640625 -18.38671875 59.044921875 -27.5068359375 c 0,45,46
 69.6474609375 -44 69.6474609375 -44 94 -44 c 2,47,-1
 101 -44 l 1,48,-1
 103.49609375 -44 l 1,49,50
 121.49609375 -47.599609375 121.49609375 -47.599609375 140.478515625 -47.599609375 c 0,51,52
 171.736328125 -47.599609375 171.736328125 -47.599609375 231.487304688 -41.625 c 2,53,54
 264.505859375 -63.373046875 264.505859375 -63.373046875 297.524414062 -35.12109375 c 1,55,56
 330.814547893 -56.6181640625 330.814547893 -56.6181640625 363.973832231 -28.115234375 c 2,57,58
 482.675011166 -16.4033203125 482.675011166 -16.4033203125 588.175942504 27.3662109375 c 128,-1,59
 693.677760241 71.1357421875 693.677760241 71.1357421875 767.30291238 132.454101562 c 0,60,61
 845.953125 193.693359375 845.953125 193.693359375 898.817382812 266.559570312 c 128,-1,62
 951.680664062 339.42578125 951.680664062 339.42578125 967.61328125 412.526367188 c 0,0,1
475.923313211 1288.25585938 m 2,63,64
 573.023845243 1315 573.023845243 1315 668.417173616 1315 c 0,65,66
 741.639900802 1315 741.639900802 1315 803.168945312 1277.83886719 c 0,67,68
 841.188476562 1256.59277344 841.188476562 1256.59277344 868.264648438 1224.33203125 c 128,-1,69
 895.340820312 1192.0703125 895.340820312 1192.0703125 905.055664062 1141.2109375 c 0,70,71
 909.024414062 1120.43554688 909.024414062 1120.43554688 909.024414062 1093.640625 c 128,-1,72
 909.024414062 1066.84570312 909.024414062 1066.84570312 902.034179688 1035.91796875 c 128,-1,73
 895.043945312 1004.99023438 895.043945312 1004.99023438 885.99609375 979.443359375 c 128,-1,74
 876.948242188 953.896484375 876.948242188 953.896484375 860.432617188 922.99609375 c 128,-1,75
 843.916992188 892.096679688 843.916992188 892.096679688 822.268554688 865.577148438 c 128,-1,76
 800.62109375 839.05859375 800.62109375 839.05859375 769.924879369 813.2578125 c 0,77,78
 740.164047172 787.458007812 740.164047172 787.458007812 704.617691469 769.75390625 c 128,-1,79
 669.070449367 752.05078125 669.070449367 752.05078125 621.781085326 741.525390625 c 128,-1,80
 574.491721285 731 574.491721285 731 519.558942321 731 c 0,81,82
 446.421309399 731 446.421309399 731 339.170627271 736.37109375 c 1,83,84
 364.93912028 866.704101562 364.93912028 866.704101562 386.78529959 962.477539062 c 0,85,86
 408.055319824 1055.7265625 408.055319824 1055.7265625 462.917186902 1284.67285156 c 1,87,-1
 475.923313211 1288.25585938 l 2,63,64
757.344224377 535.232421875 m 0,88,89
 823.713867188 479.439453125 823.713867188 479.439453125 823.713867188 421.979492188 c 0,90,91
 823.713867188 411.293945312 823.713867188 411.293945312 821.29296875 401.079101562 c 0,92,93
 810.856445312 358.170898438 810.856445312 358.170898438 771.739337254 311.209960938 c 0,94,95
 734.503505865 264.248046875 734.503505865 264.248046875 679.367741627 221.83203125 c 128,-1,96
 624.232863788 179.416015625 624.232863788 179.416015625 544.884236042 150.276367188 c 128,-1,97
 465.665908887 121.184570312 465.665908887 121.184570312 382.513744851 117.020507812 c 0,98,99
 359.599455257 116.010742188 359.599455257 116.010742188 315.620789898 115.01171875 c 0,100,101
 268.866210938 114.012695312 268.866210938 114.012695312 216.383789062 111.513671875 c 1,102,103
 249.485351562 281.92578125 249.485351562 281.92578125 319.354300701 631.0703125 c 1,104,105
 376.518144881 634 376.518144881 634 503.220843764 634 c 2,106,-1
 505.076962383 634 l 1,107,108
 592.500681158 618.295898438 592.500681158 618.295898438 657.415194488 592.1953125 c 128,-1,109
 722.329707819 566.09375 722.329707819 566.09375 757.344224377 535.232421875 c 0,88,89
EndSplineSet
Validated: 524329
EndChar

StartChar: C
Encoding: 67 67 38
Width: 936
GlyphClass: 2
Flags: W
LayerCount: 2
Fore
SplineSet
432.957203887 -64.1220703125 m 0,0,1
 726.92586316 -64.1220703125 726.92586316 -64.1220703125 908.938699722 130.251953125 c 0,2,3
 960.744807555 185.174804688 960.744807555 185.174804688 960.744807555 221.461914062 c 0,4,5
 960.744807555 236.370117188 960.744807555 236.370117188 948.670936587 250.00390625 c 0,6,7
 942.066371894 256.735351562 942.066371894 256.735351562 932.311826641 256.735351562 c 0,8,9
 917.188304478 256.735351562 917.188304478 256.735351562 900.80569396 248.262695312 c 128,-1,10
 884.423083442 239.791015625 884.423083442 239.791015625 860.141569016 222.405273438 c 0,11,12
 826.910855873 195.9609375 826.910855873 195.9609375 790.312329943 173.153320312 c 128,-1,13
 753.713804012 150.344726562 753.713804012 150.344726562 704.484624322 126.875976562 c 128,-1,14
 655.2563485 103.408203125 655.2563485 103.408203125 595.592010827 88.91015625 c 128,-1,15
 535.926769286 74.412109375 535.926769286 74.412109375 476.95931397 74.412109375 c 0,16,17
 401.658057017 74.412109375 401.658057017 74.412109375 349.159179688 140.077148438 c 0,18,19
 296.431640625 202.481445312 296.431640625 202.481445312 281.810546875 297.573242188 c 0,20,21
 276.217773438 333.9453125 276.217773438 333.9453125 276.217773438 371.307617188 c 0,22,23
 276.217773438 429.185546875 276.217773438 429.185546875 289.638671875 489.258789062 c 0,24,25
 318.213867188 621.020507812 318.213867188 621.020507812 377.313271819 751.544921875 c 0,26,27
 432.964434833 882.069335938 432.964434833 882.069335938 501.79580345 985.189453125 c 128,-1,28
 570.628075936 1088.30859375 570.628075936 1088.30859375 646.041412542 1168.76269531 c 128,-1,29
 721.455653016 1249.21777344 721.455653016 1249.21777344 796.191992366 1294.46191406 c 128,-1,30
 870.927427847 1339.70605469 870.927427847 1339.70605469 932.335327213 1339.70605469 c 0,31,32
 964.452474774 1339.70605469 964.452474774 1339.70605469 993.076171875 1320.3984375 c 0,33,34
 1007.6875 1311.11132812 1007.6875 1311.11132812 1015.01660156 1304.70605469 c 0,35,36
 1042.43359375 1280.74316406 1042.43359375 1280.74316406 1051.67382812 1271.19921875 c 2,37,38
 1056.79980469 1283.83203125 1056.79980469 1283.83203125 1061.92480469 1260.61132812 c 1,39,40
 1039.32714844 1174.61816406 1039.32714844 1174.61816406 1035.30761719 1158.0546875 c 0,41,42
 1033.55078125 1146.92773438 1033.55078125 1146.92773438 1033.5 1143.06933594 c 0,43,44
 1033.5 1125.33300781 1033.5 1125.33300781 1046.98925781 1113.72265625 c 0,45,46
 1064.23828125 1098.87597656 1064.23828125 1098.87597656 1083.2890625 1098.87597656 c 0,47,48
 1083.77734375 1098.87597656 1083.77734375 1098.87597656 1094.56640625 1099.95410156 c 0,49,50
 1115.90917969 1102.08691406 1115.90917969 1102.08691406 1149.98046875 1141.2890625 c 128,-1,51
 1184.05175781 1180.49023438 1184.05175781 1180.49023438 1192.890625 1220.66015625 c 0,52,53
 1194.81835938 1226.6328125 1194.81835938 1226.6328125 1205.171875 1270.86425781 c 128,-1,54
 1215.52441406 1315.09570312 1215.52441406 1315.09570312 1220.38964844 1343.23535156 c 0,55,56
 1232 1410.39257812 1232 1410.39257812 1232 1460.5546875 c 0,57,58
 1232 1491.49414062 1232 1491.49414062 1214.44433594 1505.93359375 c 0,59,60
 1200.15917969 1517.30957031 1200.15917969 1517.30957031 1184.72558594 1517.30957031 c 0,61,62
 1184.18359375 1517.30957031 1184.18359375 1517.30957031 1173.78613281 1516.15429688 c 0,63,64
 1153.41113281 1513.88964844 1153.41113281 1513.88964844 1132.1875 1498.27246094 c 0,65,66
 1110.96386719 1482.12890625 1110.96386719 1482.12890625 1099.66796875 1457.11035156 c 2,67,68
 1095.02929688 1470.94628906 1095.02929688 1470.94628906 1090.390625 1436.56054688 c 1,69,70
 1079.94238281 1463.83984375 1079.94238281 1463.83984375 1069.49414062 1443.36132812 c 2,71,72
 1019.14160156 1459.74609375 1019.14160156 1459.74609375 955.03868782 1459.74609375 c 0,73,74
 893.385840181 1459.74609375 893.385840181 1459.74609375 818.528382497 1425.61425781 c 128,-1,75
 743.670924813 1391.48144531 743.670924813 1391.48144531 665.211552486 1328.53515625 c 128,-1,76
 586.753084027 1265.58984375 586.753084027 1265.58984375 507.672754269 1170.16894531 c 128,-1,77
 428.592424511 1074.74804688 428.592424511 1074.74804688 360.873046875 960.748046875 c 0,78,79
 288.056640625 846.830078125 288.056640625 846.830078125 227.4140625 703.62890625 c 128,-1,80
 166.853515625 560.620117188 166.853515625 560.620117188 133.375 408.966796875 c 0,81,82
 118.7890625 344.486328125 118.7890625 344.486328125 118.7890625 284.231445312 c 0,83,84
 118.7890625 207.502929688 118.7890625 207.502929688 140.942382812 143.896484375 c 128,-1,85
 163.095703125 80.2900390625 163.095703125 80.2900390625 198.89453125 34.7470703125 c 128,-1,86
 234.693359375 -10.7958984375 234.693359375 -10.7958984375 292.06640625 -37.837890625 c 0,87,88
 349.438476562 -64 349.438476562 -64 417.723409809 -64 c 2,89,-1
 418.070495184 -64 l 2,90,91
 425.551811999 -64.119140625 425.551811999 -64.119140625 432.957203887 -64.1220703125 c 0,0,1
EndSplineSet
Validated: 524297
EndChar

StartChar: D
Encoding: 68 68 39
Width: 936
GlyphClass: 2
Flags: W
LayerCount: 2
Fore
SplineSet
498.653950751 1407.82128906 m 1,0,1
 498.653950751 1312.91015625 498.653950751 1312.91015625 498.653950751 1268 c 1,2,-1
 505.036708814 1268 l 1,3,4
 505.036708814 1242 505.036708814 1242 505.036708814 1266 c 1,5,-1
 509.595821717 1266 l 1,6,7
 509.595821717 1240 509.595821717 1240 509.595821717 1264 c 1,8,-1
 514.154934619 1264 l 1,9,10
 514.154934619 1237.5 514.154934619 1237.5 514.154934619 1261 c 1,11,-1
 520.537692682 1261 l 1,12,13
 520.537692682 1231.18457031 520.537692682 1231.18457031 520.537692682 1251.36914062 c 1,14,15
 677.260760501 1175.66210938 677.260760501 1175.66210938 754.780817518 1106.29003906 c 0,16,17
 937.64453125 949.708984375 937.64453125 949.708984375 937.64453125 690.721679688 c 0,18,19
 937.64453125 598.412109375 937.64453125 598.412109375 913.35546875 493.338867188 c 0,20,21
 896.73046875 421.646484375 896.73046875 421.646484375 860.626953125 346.860351562 c 128,-1,22
 824.651894099 272.07421875 824.651894099 272.07421875 782.303790309 208.931640625 c 128,-1,23
 739.954796068 145.7890625 739.954796068 145.7890625 684.390607573 103.89453125 c 128,-1,24
 628.826419078 62 628.826419078 62 573.423402347 62 c 0,25,26
 471.868271999 62 471.868271999 62 394.82816847 78.068359375 c 128,-1,27
 317.788955392 94.13671875 317.788955392 94.13671875 245.342773438 132.8828125 c 2,28,29
 237.174804688 112.19921875 237.174804688 112.19921875 229.006835938 141.516601562 c 1,30,31
 249.473632812 249.870117188 249.473632812 249.870117188 286.010742188 426.545898438 c 2,32,33
 312.872771343 534.2578125 312.872771343 534.2578125 337.712813046 691.970703125 c 2,34,35
 391.613637693 984.533203125 391.613637693 984.533203125 453.766278603 1252.18066406 c 2,36,37
 471.977797563 1305.60253906 471.977797563 1305.60253906 490.189316523 1409.02441406 c 1,38,39
 460.629880605 1413 460.629880605 1413 436.650015282 1413 c 0,40,41
 409.450276471 1413 409.450276471 1413 385.282525831 1390.51074219 c 128,-1,42
 361.113884739 1368.02050781 361.113884739 1368.02050781 349.287795197 1320.65917969 c 0,43,44
 345.507827567 1304.12304688 345.507827567 1304.12304688 326.90361939 1228.48144531 c 128,-1,45
 308.251953125 1152.89648438 308.251953125 1152.89648438 299.849609375 1116.81542969 c 128,-1,46
 291.415039062 1080.59570312 291.415039062 1080.59570312 267.493164062 966.970703125 c 0,47,48
 209.456054688 674.788085938 209.456054688 674.788085938 153.83984375 423.262695312 c 128,-1,49
 98.2236328125 171.737304688 98.2236328125 171.737304688 68.9765625 72.9033203125 c 0,50,51
 63.181640625 53.5869140625 63.181640625 53.5869140625 63.181640625 39.1943359375 c 128,-1,52
 63.181640625 24.9521484375 63.181640625 24.9521484375 68.9326171875 16.166015625 c 0,53,54
 79.513671875 0 79.513671875 0 104 0 c 0,55,56
 114.408203125 0 114.408203125 0 153.875976562 -10.9052734375 c 128,-1,57
 193.342773438 -21.810546875 193.342773438 -21.810546875 242.860351562 -34.0673828125 c 128,-1,58
 292.37890625 -46.32421875 292.37890625 -46.32421875 369.314054801 -55.2099609375 c 0,59,60
 444.789634625 -64.095703125 444.789634625 -64.095703125 521.416568548 -64.095703125 c 0,61,62
 529.489404011 -64.095703125 529.489404011 -64.095703125 537.618337934 -64.0009765625 c 2,63,-1
 537.86232171 -64.0009765625 l 2,64,65
 604.232142055 -64.0009765625 604.232142055 -64.0009765625 670.642032727 -32.314453125 c 128,-1,66
 737.051032948 -0.626953125 737.051032948 -0.626953125 791.823609848 52.2333984375 c 0,67,68
 848.588867188 105.09375 848.588867188 105.09375 900.056640625 173.0703125 c 128,-1,69
 951.513671875 241.032226562 951.513671875 241.032226562 985.8671875 313.126953125 c 0,70,71
 1019.61914062 383.958007812 1019.61914062 383.958007812 1035.65917969 453.720703125 c 0,72,73
 1071.7421875 607.60546875 1071.7421875 607.60546875 1071.74023438 742.912109375 c 0,74,75
 1071.74023438 850.620117188 1071.74023438 850.620117188 1050.18261719 934.559570312 c 128,-1,76
 1028.62402344 1018.49902344 1028.62402344 1018.49902344 986.373046875 1091.95800781 c 128,-1,77
 944.123046875 1165.41601562 944.123046875 1165.41601562 892.91796875 1214.22753906 c 128,-1,78
 841.713867188 1263.0390625 841.713867188 1263.0390625 783.956468736 1300.71191406 c 0,79,80
 727.586421417 1338.38378906 727.586421417 1338.38378906 676.44065445 1359.17675781 c 128,-1,81
 625.29399703 1379.96972656 625.29399703 1379.96972656 573.76800717 1392.63574219 c 0,82,83
 532.700372981 1402.73046875 532.700372981 1402.73046875 498.653950751 1407.82128906 c 1,0,1
498.653950751 1457.82128906 m 1,84,85
 494.365535178 1458.46191406 494.365535178 1458.46191406 490.189316523 1459.02441406 c 1,86,87
 494.421633637 1502.25 494.421633637 1502.25 498.653950751 1495.47558594 c 1,88,89
 498.653950751 1501.6484375 498.653950751 1501.6484375 498.653950751 1457.82128906 c 1,84,85
EndSplineSet
Validated: 524325
EndChar

StartChar: E
Encoding: 69 69 40
Width: 935
GlyphClass: 2
Flags: W
LayerCount: 2
Fore
SplineSet
819.15487367 -12.97265625 m 128,-1,1
 825.945749188 -13.6943359375 825.945749188 -13.6943359375 830.745431031 -13.6943359375 c 0,2,3
 858.429358721 -13.6943359375 858.429358721 -13.6943359375 876.803550895 5.81640625 c 0,4,5
 900.806485551 31.3037109375 900.806485551 31.3037109375 908.106925632 64.07421875 c 0,6,7
 910.19767899 73.0966796875 910.19767899 73.0966796875 910.19767899 80.5830078125 c 128,-1,8
 910.19767899 88.068359375 910.19767899 88.068359375 908.954088031 96.7890625 c 128,-1,9
 907.710497073 105.509765625 907.710497073 105.509765625 904.849513798 109.30859375 c 128,-1,10
 901.988530523 113.108398438 901.988530523 113.108398438 894.826568912 118.053710938 c 128,-1,11
 887.663702212 123 887.663702212 123 873.926276035 123 c 128,-1,12
 860.18794477 123 860.18794477 123 836.289095238 119.350585938 c 0,13,14
 765.575472246 104.061523438 765.575472246 104.061523438 533.092749709 93.0244140625 c 0,15,16
 434.549479853 88.345703125 434.549479853 88.345703125 377.387739991 88.345703125 c 128,-1,17
 320.226000128 88.345703125 320.226000128 88.345703125 290.110351562 90.9169921875 c 0,18,19
 259.78125 93.48828125 259.78125 93.48828125 245.251953125 98.2255859375 c 2,20,21
 237.774414062 75.6640625 237.774414062 75.6640625 230.295898438 103.102539062 c 1,22,23
 227.428710938 124.607421875 227.428710938 124.607421875 227.428710938 136.8203125 c 0,24,25
 227.428710938 183.515625 227.428710938 183.515625 270.088867188 376.4140625 c 0,26,27
 297.588867188 500.412109375 297.588867188 500.412109375 327.102859009 637.7890625 c 1,28,29
 336.312129753 612.893554688 336.312129753 612.893554688 345.522305585 637.999023438 c 2,30,31
 432.804470124 638.990234375 432.804470124 638.990234375 677.543894814 658.995117188 c 128,-1,32
 922.284224593 679 922.284224593 679 954.669921875 679 c 0,33,34
 989.299804688 679 989.299804688 679 1008.38671875 699.021484375 c 0,35,36
 1024.76269531 716.19921875 1024.76269531 716.19921875 1032.56152344 749.3046875 c 0,37,38
 1037.53613281 774.58203125 1037.53613281 774.58203125 1030.00195312 787.239257812 c 0,39,40
 1024.78710938 796 1024.78710938 796 994.784179688 796 c 128,-1,41
 964.78125 796 964.78125 796 738.113291124 781.002929688 c 0,42,43
 512.477559563 766.005859375 512.477559563 766.005859375 382.084241798 765.000976562 c 2,44,45
 367.486076901 739.887695312 367.486076901 739.887695312 352.887912004 764.775390625 c 1,46,47
 402.054104176 1000.03320312 402.054104176 1000.03320312 459.903710944 1230.33398438 c 1,48,49
 467.394219512 1206.53222656 467.394219512 1206.53222656 474.885633167 1232.72949219 c 2,50,51
 601.380736771 1252.94921875 601.380736771 1252.94921875 771.92104445 1257.99023438 c 0,52,53
 816.750959852 1259.31542969 816.750959852 1259.31542969 861.171775463 1259.31542969 c 0,54,55
 988.322265625 1259.31542969 988.322265625 1259.31542969 1119.63476562 1248.87011719 c 0,56,57
 1125.21386719 1248.14257812 1125.21386719 1248.14257812 1132.9375 1248.14257812 c 128,-1,58
 1140.66113281 1248.14257812 1140.66113281 1248.14257812 1151.734375 1252.51367188 c 0,59,60
 1171.98828125 1260.50878906 1171.98828125 1260.50878906 1185.203125 1289.76953125 c 0,61,62
 1191.09179688 1302.80859375 1191.09179688 1302.80859375 1193.77050781 1315.5 c 128,-1,63
 1196.45019531 1328.19238281 1196.45019531 1328.19238281 1196.45019531 1336.8828125 c 128,-1,64
 1196.45019531 1345.57324219 1196.45019531 1345.57324219 1193.47753906 1349.80273438 c 0,65,66
 1185.82128906 1360.69921875 1185.82128906 1360.69921875 1152.59667969 1365.23046875 c 0,67,68
 1089.78613281 1374.0625 1089.78613281 1374.0625 979.09375 1378.01660156 c 0,69,70
 928.585447484 1379.8828125 928.585447484 1379.8828125 869.551985568 1379.8828125 c 0,71,72
 648.811875182 1379.8828125 648.811875182 1379.8828125 501.993924867 1357.25195312 c 2,73,74
 493.528636487 1330.94726562 493.528636487 1330.94726562 485.063348107 1354.64257812 c 1,75,76
 481.402267011 1337.98144531 481.402267011 1337.98144531 477.741185914 1371.3203125 c 2,77,78
 472.663642044 1382.88574219 472.663642044 1382.88574219 463.702365422 1387.55273438 c 128,-1,79
 454.741993887 1392.21972656 454.741993887 1392.21972656 441.497840689 1392.21972656 c 2,80,81
 438.120957234 1367.109375 438.120957234 1367.109375 434.74407378 1392 c 2,82,83
 407.21220088 1392 407.21220088 1392 382.60376233 1369.06933594 c 128,-1,84
 357.995323779 1346.13769531 357.995323779 1346.13769531 345.945886785 1298.66015625 c 0,85,86
 341.193269519 1278.19140625 341.193269519 1278.19140625 321.826195772 1201.57226562 c 0,87,88
 301.268554688 1124.953125 301.268554688 1124.953125 292.350585938 1085.31445312 c 128,-1,89
 283.431640625 1045.67578125 283.431640625 1045.67578125 257.48828125 922.944335938 c 0,90,91
 218.3984375 727.509765625 218.3984375 727.509765625 180.360351562 571.853515625 c 128,-1,92
 142.322265625 416.197265625 142.322265625 416.197265625 110.501953125 277.975585938 c 0,93,94
 71.775390625 109.755859375 71.775390625 109.755859375 71.775390625 69.6923828125 c 128,-1,95
 71.775390625 29.6279296875 71.775390625 29.6279296875 94.01171875 -0.021484375 c 0,96,97
 119.952148438 -34.607421875 119.952148438 -34.607421875 153.051757812 -37.0830078125 c 0,98,99
 192.163085938 -40.2666015625 192.163085938 -40.2666015625 251.48046875 -40.2666015625 c 0,100,101
 367.858973171 -40.2666015625 367.858973171 -40.2666015625 661.636067532 -19.056640625 c 0,102,103
 755.909132045 -12.25 755.909132045 -12.25 797.271655189 -12.25 c 0,104,0
 812.363998153 -12.25 812.363998153 -12.25 819.15487367 -12.97265625 c 128,-1,1
EndSplineSet
Validated: 524297
EndChar

StartChar: F
Encoding: 70 70 41
Width: 935
GlyphClass: 2
Flags: W
LayerCount: 2
Fore
SplineSet
1158.46582031 1387.12695312 m 0,0,1
 1064.52636719 1396.59960938 1064.52636719 1396.59960938 926.692864327 1396.59960938 c 0,2,3
 724.200302738 1396.59960938 724.200302738 1396.59960938 490.039410845 1376.70507812 c 1,4,5
 486.642907785 1359.625 486.642907785 1359.625 483.246404724 1392.54492188 c 2,6,7
 478.302736897 1404.07128906 478.302736897 1404.07128906 469.419016628 1408.72167969 c 128,-1,8
 460.53529636 1413.37207031 460.53529636 1413.37207031 447.257809641 1413.37207031 c 0,9,10
 443.845880304 1413.37207031 443.845880304 1413.37207031 439.265183683 1413 c 2,11,-1
 438.376811657 1413 l 2,12,13
 410.658515505 1413 410.658515505 1413 385.997344336 1390.48046875 c 128,-1,14
 361.336173167 1367.96191406 361.336173167 1367.96191406 349.286436553 1320.41503906 c 2,15,16
 335.589718092 1240.70214844 335.589718092 1240.70214844 321.893907059 1210.98925781 c 2,17,18
 302.013066674 1131.87597656 302.013066674 1131.87597656 291.34375 1085.2890625 c 0,19,20
 280.427734375 1038.6484375 280.427734375 1038.6484375 252.500976562 901.009765625 c 0,21,22
 199.469726562 630.849609375 199.469726562 630.849609375 142.840820312 375.267578125 c 128,-1,23
 86.2119140625 119.686523438 86.2119140625 119.686523438 58.9501953125 28.814453125 c 0,24,25
 53.181640625 9.970703125 53.181640625 9.970703125 53.181640625 -4.20703125 c 128,-1,26
 53.181640625 -18.38671875 53.181640625 -18.38671875 59.044921875 -27.5068359375 c 0,27,28
 69.6474609375 -44 69.6474609375 -44 94 -44 c 2,29,-1
 94.619140625 -44 l 2,30,31
 97.552734375 -44.1435546875 97.552734375 -44.1435546875 99.849609375 -44.142578125 c 0,32,33
 130.334960938 -44.142578125 130.334960938 -44.142578125 161.41015625 -23.6884765625 c 128,-1,34
 192.485351562 -3.2333984375 192.485351562 -3.2333984375 204.828125 31.615234375 c 1,35,36
 266.8984375 313.376953125 266.8984375 313.376953125 326.843019453 645.137695312 c 1,37,38
 334.88646138 621.431640625 334.88646138 621.431640625 342.928995879 647.724609375 c 2,39,40
 422.488654539 660.518554688 422.488654539 660.518554688 538.699330732 660.518554688 c 0,41,42
 662.203913312 660.518554688 662.203913312 660.518554688 760.790522594 652.716796875 c 128,-1,43
 859.377131877 644.916015625 859.377131877 644.916015625 912.455318769 634.827148438 c 0,44,45
 915.897193231 634.555664062 915.897193231 634.555664062 919.120377541 634.555664062 c 0,46,47
 944.743422406 634.555664062 944.743422406 634.555664062 958.732421875 652.423828125 c 0,48,49
 977.75 675.403320312 977.75 675.403320312 984.418945312 704.658203125 c 0,50,51
 985.41015625 714.059570312 985.41015625 714.059570312 985.428710938 717.142578125 c 0,52,53
 985.428710938 729.317382812 985.428710938 729.317382812 980.951171875 735.764648438 c 0,54,55
 978.888671875 738.734375 978.888671875 738.734375 969.93359375 743.465820312 c 128,-1,56
 960.977539062 748.196289062 960.977539062 748.196289062 941.174508022 752.479492188 c 0,57,58
 889.355831214 763.229492188 889.355831214 763.229492188 798.852590691 772.127929688 c 128,-1,59
 708.349350168 781.02734375 708.349350168 781.02734375 593.449907457 784.0078125 c 0,60,61
 572.032791442 784.5625 572.032791442 784.5625 551.338895556 784.5625 c 0,62,63
 461.864678402 784.5625 461.864678402 784.5625 385.557241748 774.197265625 c 2,64,65
 369.215370623 746.977539062 369.215370623 746.977539062 352.872592069 769.7578125 c 1,66,67
 376.721615164 886.680664062 376.721615164 886.680664062 394.914639441 966.002929688 c 128,-1,68
 413.13851627 1045.45605469 413.13851627 1045.45605469 463.772999518 1251.42089844 c 1,69,70
 704.752305516 1273.44726562 704.752305516 1273.44726562 904.389191142 1273.44726562 c 0,71,72
 1011.26074219 1273.44726562 1011.26074219 1273.44726562 1114.92675781 1267.98632812 c 0,73,74
 1116.63671875 1267.96484375 1116.63671875 1267.96484375 1117.20507812 1267.96484375 c 0,75,76
 1150.61621094 1267.96484375 1150.61621094 1267.96484375 1169.82617188 1287.17382812 c 0,77,78
 1192.05859375 1309.40722656 1192.05859375 1309.40722656 1199.50390625 1340.07519531 c 0,79,80
 1203.56738281 1363.91210938 1203.56738281 1363.91210938 1196.4375 1375.03417969 c 0,81,82
 1190.66503906 1384.04003906 1190.66503906 1384.04003906 1158.46582031 1387.12695312 c 0,0,1
EndSplineSet
Validated: 524297
EndChar

StartChar: G
Encoding: 71 71 42
Width: 936
GlyphClass: 2
Flags: W
LayerCount: 2
Fore
SplineSet
1187.01953125 1406.203125 m 128,-1,1
 1164.19140625 1421.75292969 1164.19140625 1421.75292969 1116.31933594 1443.87597656 c 0,2,3
 1031.65917969 1483 1031.65917969 1483 962.775477499 1483 c 0,4,5
 897.703028562 1483 897.703028562 1483 822.489430484 1448.37890625 c 128,-1,6
 747.274929123 1413.7578125 747.274929123 1413.7578125 668.872744916 1349.28417969 c 128,-1,7
 590.470560708 1284.80957031 590.470560708 1284.80957031 510.951016432 1187.28125 c 128,-1,8
 431.430568874 1089.75195312 431.430568874 1089.75195312 363.469726562 973.12890625 c 0,9,10
 290.124023438 856.5703125 290.124023438 856.5703125 228.961914062 710.196289062 c 0,11,12
 169.361328125 567.559570312 169.361328125 567.559570312 133.314453125 408.8515625 c 0,13,14
 118.7890625 346.125976562 118.7890625 346.125976562 118.7890625 284.33984375 c 0,15,16
 118.7890625 207.5859375 118.7890625 207.5859375 140.942382812 143.958007812 c 128,-1,17
 163.095703125 80.3291015625 163.095703125 80.3291015625 198.89453125 34.771484375 c 128,-1,18
 234.693359375 -10.787109375 234.693359375 -10.787109375 292.06640625 -37.837890625 c 0,19,20
 349.438476562 -64 349.438476562 -64 417.688936924 -64 c 2,21,-1
 418.030377592 -64 l 2,22,23
 419.951658809 -64.0302734375 419.951658809 -64.0302734375 421.879263002 -64.033203125 c 0,24,25
 479.305428203 -64.033203125 479.305428203 -64.033203125 543.083473762 -36.5458984375 c 0,26,27
 606.860616038 -8.123046875 606.860616038 -8.123046875 663.684292019 40.8955078125 c 128,-1,28
 720.507968 89.9140625 720.507968 89.9140625 774.890072223 151.721679688 c 128,-1,29
 829.128554577 213.366210938 829.128554577 213.366210938 870.797865264 278.176757812 c 128,-1,30
 912.467175951 342.987304688 912.467175951 342.987304688 941.632351287 400.169921875 c 128,-1,31
 970.797526624 457.353515625 970.797526624 457.353515625 984.23046875 500.4375 c 0,32,33
 989.30859375 517.219726562 989.30859375 517.219726562 998.216796875 544.341796875 c 128,-1,34
 1007.125 571.463867188 1007.125 571.463867188 1012.48242188 590.8515625 c 1,35,36
 1018.52734375 588.665039062 1018.52734375 588.665039062 1024.57226562 595.333007812 c 2,37,38
 1045.3046875 603.018554688 1045.3046875 603.018554688 1056.01074219 622.444335938 c 128,-1,39
 1066.71582031 641.870117188 1066.71582031 641.870117188 1070.13867188 670.954101562 c 0,40,41
 1070.5 675.075195312 1070.5 675.075195312 1070.5 678.745117188 c 0,42,43
 1070.5 693.49609375 1070.5 693.49609375 1065.03613281 699.333984375 c 0,44,45
 1062.58300781 701.955078125 1062.58300781 701.955078125 1052.38476562 705.543945312 c 0,46,47
 1033.25292969 712.276367188 1033.25292969 712.276367188 954.503219207 712.276367188 c 0,48,49
 879.684355445 712.276367188 879.684355445 712.276367188 758.272389781 700.34375 c 0,50,51
 594.055687719 684.205078125 594.055687719 684.205078125 541.121544846 656.072265625 c 1,52,53
 466.332489397 618.715820312 466.332489397 618.715820312 461.069064078 553.14453125 c 0,54,55
 460.864922303 550.484375 460.864922303 550.484375 460.864922303 547.897460938 c 0,56,57
 460.864922303 529.24609375 460.864922303 529.24609375 473.034843243 518.08984375 c 0,58,59
 478.651451898 512.94140625 478.651451898 512.94140625 485.856933924 512.94140625 c 128,-1,60
 493.06241595 512.94140625 493.06241595 512.94140625 504.0400044 519.418945312 c 0,61,62
 553.88311562 548.393554688 553.88311562 548.393554688 665.95785329 566.3671875 c 128,-1,63
 778.03259096 584.340820312 778.03259096 584.340820312 891.032289592 590.60546875 c 2,64,65
 910.254134586 587.194335938 910.254134586 587.194335938 929.476882863 592.736328125 c 1,66,67
 921.308502022 568.178710938 921.308502022 568.178710938 913.1392179 553.825195312 c 2,68,69
 891.293338145 501.795898438 891.293338145 501.795898438 857.282957144 440.541015625 c 128,-1,70
 823.272576142 379.286132812 823.272576142 379.286132812 777.571013761 315.02734375 c 128,-1,71
 731.849579172 250.7421875 731.849579172 250.7421875 684.040659443 197.830078125 c 128,-1,72
 636.231739714 144.91796875 636.231739714 144.91796875 580.927384376 109.271484375 c 128,-1,73
 525.62393232 73.625 525.62393232 73.625 476.8864385 73.625 c 0,74,75
 401.633999287 73.625 401.633999287 73.625 349.159179688 139.362304688 c 0,76,77
 296.431640625 201.834960938 296.431640625 201.834960938 281.810546875 297.030273438 c 0,78,79
 276.217773438 333.442382812 276.217773438 333.442382812 276.217773438 370.845703125 c 0,80,81
 276.217773438 428.787109375 276.217773438 428.787109375 289.638671875 488.926757812 c 0,82,83
 319.201171875 624.901367188 319.201171875 624.901367188 378.64456428 758.62109375 c 0,84,85
 434.685094603 892.340820312 434.685094603 892.340820312 503.894575967 998.1328125 c 128,-1,86
 573.104057332 1103.92480469 573.104057332 1103.92480469 648.91562822 1187.0859375 c 128,-1,87
 724.727199108 1270.24707031 724.727199108 1270.24707031 799.930861082 1316.65039062 c 128,-1,88
 875.134523056 1363.05273438 875.134523056 1363.05273438 936.59203667 1363.05273438 c 0,89,90
 975.666217626 1363.05273438 975.666217626 1363.05273438 1017.32421875 1339.88476562 c 0,91,92
 1059.40429688 1316.71582031 1059.40429688 1316.71582031 1093.55273438 1290.35742188 c 128,-1,93
 1127.70117188 1263.99902344 1127.70117188 1263.99902344 1138.00488281 1258.54199219 c 0,94,95
 1149.28515625 1255.51074219 1149.28515625 1255.51074219 1157.11914062 1255.43554688 c 128,-1,96
 1164.95410156 1255.36035156 1164.95410156 1255.36035156 1177.29296875 1260.42382812 c 0,97,98
 1199.90722656 1269.703125 1199.90722656 1269.703125 1208.8125 1288.11914062 c 0,99,100
 1226.62890625 1322.0546875 1226.62890625 1322.0546875 1226.62890625 1347.46777344 c 0,101,102
 1226.62890625 1366.16894531 1226.62890625 1366.16894531 1216.61328125 1381.18066406 c 0,103,0
 1209.84667969 1390.65429688 1209.84667969 1390.65429688 1187.01953125 1406.203125 c 128,-1,1
EndSplineSet
Validated: 524297
EndChar

StartChar: H
Encoding: 72 72 43
Width: 935
GlyphClass: 2
Flags: W
LayerCount: 2
Fore
SplineSet
355.550123221 638 m 1,0,-1
 373.022678636 638 l 2,1,2
 450.057515499 638 450.057515499 638 642.833671291 668.443359375 c 128,-1,3
 835.610731694 698.885742188 835.610731694 698.885742188 866.214615837 700.951171875 c 2,4,5
 881.62918194 676.991210938 881.62918194 676.991210938 897.044652653 703.03125 c 1,6,7
 893.659599463 661.767578125 893.659599463 661.767578125 890.273641663 670.502929688 c 2,8,9
 816.000581226 313.698242188 816.000581226 313.698242188 737.972481829 28.90625 c 0,10,11
 732.603617403 9.6474609375 732.603617403 9.6474609375 732.603617403 -4.369140625 c 128,-1,12
 732.603617403 -18.38671875 732.603617403 -18.38671875 738.034899966 -27.5068359375 c 0,13,14
 747.856258192 -44 747.856258192 -44 770.414534888 -44 c 2,15,-1
 770.988058063 -44 l 2,16,17
 773.705508566 -44.1435546875 773.705508566 -44.1435546875 775.83043907 -44.142578125 c 0,18,19
 803.964736039 -44.142578125 803.964736039 -44.142578125 832.301665801 -23.7490234375 c 128,-1,20
 860.638595564 -3.35546875 860.638595564 -3.35546875 871.231586706 31.541015625 c 0,21,22
 884.56735745 96.931640625 884.56735745 96.931640625 941.436523438 328.8125 c 0,23,24
 1002.64160156 560.693359375 1002.64160156 560.693359375 1031.52734375 703.130859375 c 1,25,26
 1068.60742188 875.50390625 1068.60742188 875.50390625 1090.16113281 967.232421875 c 128,-1,27
 1111.7109375 1058.94238281 1111.7109375 1058.94238281 1141.69921875 1179.39257812 c 128,-1,28
 1171.68652344 1299.84375 1171.68652344 1299.84375 1178.2578125 1328.26367188 c 128,-1,29
 1184.828125 1356.68359375 1184.828125 1356.68359375 1184.828125 1372.93359375 c 128,-1,30
 1184.828125 1389.18457031 1184.828125 1389.18457031 1177.06542969 1398.18261719 c 0,31,32
 1164.15625 1413.14550781 1164.15625 1413.14550781 1137.14355469 1413.14550781 c 2,33,34
 1134.07128906 1388.07226562 1134.07128906 1388.07226562 1131 1413 c 2,35,36
 1102.06542969 1413 1102.06542969 1413 1075.15332031 1390.50683594 c 0,37,38
 1048.94433594 1368.60058594 1048.94433594 1368.60058594 1036.09179688 1320.30273438 c 0,39,40
 1031.14160156 1302.48242188 1031.14160156 1302.48242188 1008.72363281 1216.796875 c 128,-1,41
 986.305664062 1131.11035156 986.305664062 1131.11035156 977.405273438 1091.06054688 c 2,42,43
 958.830078125 981.46484375 958.830078125 981.46484375 940.25390625 921.869140625 c 2,44,45
 936.595136489 908.376953125 936.595136489 908.376953125 932.030470964 880.288085938 c 128,-1,46
 927.465805438 852.19921875 927.465805438 852.19921875 921.018645074 819.717773438 c 1,47,48
 873.183736568 815.161132812 873.183736568 815.161132812 791.30832792 802.177734375 c 128,-1,49
 709.432014661 789.194335938 709.432014661 789.194335938 608.603202904 777.603515625 c 128,-1,50
 507.775295757 766.013671875 507.775295757 766.013671875 414.016921128 765.000976562 c 2,51,52
 399.154167544 739.840820312 399.154167544 739.840820312 384.292318572 764.680664062 c 1,53,54
 404.170233803 853.583007812 404.170233803 853.583007812 425.921597766 962.497070312 c 128,-1,55
 447.672961729 1071.41113281 447.672961729 1071.41113281 459.353294916 1127.39746094 c 128,-1,56
 471.033628104 1183.38476562 471.033628104 1183.38476562 490.044926297 1250.96289062 c 128,-1,57
 509.05622449 1318.54101562 509.05622449 1318.54101562 513.212910596 1337.61132812 c 128,-1,58
 517.369596701 1356.68164062 517.369596701 1356.68164062 517.369596701 1372.93261719 c 128,-1,59
 517.369596701 1389.18457031 517.369596701 1389.18457031 510.178846352 1398.18261719 c 0,60,61
 498.220797684 1413.14550781 498.220797684 1413.14550781 473.994418882 1413.14550781 c 2,62,63
 471.214550241 1388.07226562 471.214550241 1388.07226562 468.43377699 1413 c 2,64,65
 440.801538952 1413 440.801538952 1413 416.234121921 1390.49609375 c 128,-1,66
 391.665800279 1367.9921875 391.665800279 1367.9921875 379.652570359 1320.54394531 c 0,67,68
 374.048507155 1297.359375 374.048507155 1297.359375 362.502056349 1252.48632812 c 128,-1,69
 350.955605543 1207.61328125 350.955605543 1207.61328125 345.006885667 1181.92578125 c 0,70,71
 342.235158523 1169.95898438 342.235158523 1169.95898438 321.545807506 1064.6640625 c 0,72,73
 295.376953125 940.4296875 295.376953125 940.4296875 280.321289062 877.196289062 c 128,-1,74
 265.276367188 814.005859375 265.276367188 814.005859375 232.264648438 684.458984375 c 0,75,76
 164.713867188 419.375 164.713867188 419.375 138.022460938 302.803710938 c 0,77,78
 87.4853515625 82.08984375 87.4853515625 82.08984375 70.828125 28.416015625 c 0,79,80
 64.685546875 9.6064453125 64.685546875 9.6064453125 64.685546875 -4.2578125 c 128,-1,81
 64.685546875 -18.1220703125 64.685546875 -18.1220703125 70.701171875 -26.9873046875 c 0,82,83
 82.24609375 -44 82.24609375 -44 106 -44 c 2,84,-1
 106.634765625 -44 l 2,85,86
 109.495117188 -44.142578125 109.495117188 -44.142578125 111.711914062 -44.142578125 c 0,87,88
 141.334960938 -44.142578125 141.334960938 -44.142578125 172.400390625 -23.6943359375 c 128,-1,89
 203.466796875 -3.2451171875 203.466796875 -3.2451171875 215.8125 31.572265625 c 1,90,91
 283.819335938 374.38671875 283.819335938 374.38671875 339.63621202 577.872070312 c 0,92,93
 342.577101362 588.1328125 342.577101362 588.1328125 345.723337331 600.448242188 c 128,-1,94
 348.87047791 612.763671875 348.87047791 612.763671875 355.550123221 638 c 1,0,-1
EndSplineSet
Validated: 524297
EndChar

StartChar: I
Encoding: 73 73 44
Width: 936
GlyphClass: 2
Flags: W
LayerCount: 2
Fore
SplineSet
691.626168389 -13.5 m 0,0,1
 797.224676597 -14.009765625 797.224676597 -14.009765625 843.720138666 -22.3408203125 c 0,2,3
 849.676949642 -23.4541015625 849.676949642 -23.4541015625 856.605670917 -23.4541015625 c 128,-1,4
 863.53530052 -23.4541015625 863.53530052 -23.4541015625 873.022780033 -19.6962890625 c 128,-1,5
 882.511167873 -15.9384765625 882.511167873 -15.9384765625 890.723355741 -4.9013671875 c 0,6,7
 906.639976468 16.48828125 906.639976468 16.48828125 912.832044237 47.7041015625 c 0,8,9
 914.206343567 60.12109375 914.206343567 60.12109375 914.235410043 64.23046875 c 0,10,11
 914.235410043 77.93359375 914.235410043 77.93359375 909.510290998 86.4658203125 c 128,-1,12
 904.78608028 94.998046875 904.78608028 94.998046875 876.150151212 94.998046875 c 0,13,14
 662.220886027 97 662.220886027 97 592.461343032 97 c 2,15,-1
 563.017002593 97 l 1,16,17
 579.203396553 170.08984375 579.203396553 170.08984375 632.177049515 386.411132812 c 128,-1,18
 685.150702477 602.732421875 685.150702477 602.732421875 712.930078824 747.083007812 c 0,19,20
 754.393407191 964.729492188 754.393407191 964.729492188 802.002478631 1164.22265625 c 2,21,22
 815.290399913 1195.15234375 815.290399913 1195.15234375 828.578321195 1276.08203125 c 1,23,24
 1067.07421875 1262.54296875 1067.07421875 1262.54296875 1117.32714844 1252.4296875 c 0,25,26
 1123.22460938 1251.1484375 1123.22460938 1251.1484375 1130.41503906 1251.1484375 c 128,-1,27
 1137.60449219 1251.1484375 1137.60449219 1251.1484375 1145.94140625 1254.60449219 c 0,28,29
 1160.859375 1260.79003906 1160.859375 1260.79003906 1172.00683594 1273.92773438 c 0,30,31
 1195.5859375 1301.71777344 1195.5859375 1301.71777344 1202.46679688 1331.87207031 c 0,32,33
 1203.77929688 1339.68261719 1203.77929688 1339.68261719 1203.77929688 1346.27148438 c 0,34,35
 1203.77929688 1365.24121094 1203.77929688 1365.24121094 1191.96777344 1373.97949219 c 128,-1,36
 1180.15527344 1382.71777344 1180.15527344 1382.71777344 1155.546875 1385.11914062 c 2,37,38
 1155.4609375 1360.12695312 1155.4609375 1360.12695312 1155.375 1385.13574219 c 1,39,40
 977.259765625 1405 977.259765625 1405 722.782705944 1405 c 0,41,42
 595.994736551 1405 595.994736551 1405 447.16801987 1400.01269531 c 2,43,44
 447.036312399 1375.00878906 447.036312399 1375.00878906 446.904604929 1400.00488281 c 2,45,46
 408.808446169 1399.18554688 408.808446169 1399.18554688 386.795132048 1378.62304688 c 128,-1,47
 364.754568106 1358.03417969 364.754568106 1358.03417969 360.429113109 1330.13574219 c 0,48,49
 358.695116135 1321.97753906 358.695116135 1321.97753906 358.695116135 1315.609375 c 0,50,51
 358.695116135 1302.17871094 358.695116135 1302.17871094 366.205166936 1292.44824219 c 0,52,53
 376.616415397 1278.95898438 376.616415397 1278.95898438 407.4859215 1278.95898438 c 0,54,55
 408.914720473 1278.95898438 408.914720473 1278.95898438 434.184388261 1279.97949219 c 128,-1,56
 459.453147721 1281 459.453147721 1281 524.001616522 1281 c 128,-1,57
 588.549176994 1281 588.549176994 1281 697.576621073 1278.29003906 c 1,58,59
 694.504657865 1238.42578125 694.504657865 1238.42578125 691.431786329 1248.56054688 c 2,60,61
 689.419841176 1238.82519531 689.419841176 1238.82519531 673.127172912 1177.76953125 c 128,-1,62
 656.835412975 1116.71289062 656.835412975 1116.71289062 650.92311004 1089.33300781 c 0,63,64
 630.949899221 995.444335938 630.949899221 995.444335938 624.016636309 962.650390625 c 0,65,66
 621.136330178 949.024414062 621.136330178 949.024414062 604.072491966 856.922851562 c 0,67,68
 528.551428382 463.984375 528.551428382 463.984375 429.637301383 95.4638671875 c 1,69,70
 221.114257812 90.01953125 221.114257812 90.01953125 139.380859375 86.037109375 c 0,71,72
 98.0185546875 83.525390625 98.0185546875 83.525390625 75.6103515625 63.8212890625 c 128,-1,73
 53.201171875 44.1162109375 53.201171875 44.1162109375 48.5244140625 16.0576171875 c 0,74,75
 46.6728515625 8.1875 46.6728515625 8.1875 46.6728515625 2.4033203125 c 0,76,77
 46.6728515625 -8.654296875 46.6728515625 -8.654296875 53.3984375 -15.552734375 c 0,78,79
 65.5341796875 -28 65.5341796875 -28 108.057617188 -28 c 128,-1,80
 150.581054688 -28 150.581054688 -28 271.6640625 -24.013671875 c 2,81,82
 379.85006088 -45.263671875 379.85006088 -45.263671875 486.584886644 -16.513671875 c 2,83,84
 574.870674938 -13.4375 574.870674938 -13.4375 626.739801802 -13.4375 c 128,-1,85
 678.609836994 -13.4375 678.609836994 -13.4375 691.626168389 -13.5 c 0,0,1
EndSplineSet
Validated: 524325
EndChar

StartChar: J
Encoding: 74 74 45
Width: 936
GlyphClass: 2
Flags: W
LayerCount: 2
Fore
SplineSet
513.351263569 106.586914062 m 128,-1,1
 493.629150238 86 493.629150238 86 471.914804038 86 c 0,2,3
 412.26686497 86 412.26686497 86 368.029296875 112.831054688 c 0,4,5
 320.647460938 139.662109375 320.647460938 139.662109375 298.469726562 178.8984375 c 128,-1,6
 276.291992188 218.135742188 276.291992188 218.135742188 267.3828125 261.637695312 c 128,-1,7
 258.47265625 305.140625 258.47265625 305.140625 258.47265625 337.96875 c 0,8,9
 258.47265625 373.278320312 258.47265625 373.278320312 264.5703125 401.327148438 c 0,10,11
 266.892578125 411.651367188 266.892578125 411.651367188 266.892578125 420.215820312 c 0,12,13
 266.892578125 435.912109375 266.892578125 435.912109375 259.442382812 445.911132812 c 128,-1,14
 251.9921875 455.91015625 251.9921875 455.91015625 235.009765625 455.91015625 c 0,15,16
 228.248046875 455.91015625 228.248046875 455.91015625 219.133789062 454.340820312 c 0,17,18
 195.630859375 450.423828125 195.630859375 450.423828125 178.842773438 436.758789062 c 128,-1,19
 162.053710938 423.092773438 162.053710938 423.092773438 152.66015625 403.87890625 c 128,-1,20
 143.266601562 384.665039062 143.266601562 384.665039062 136.133789062 362.373046875 c 128,-1,21
 129 340.081054688 129 340.081054688 129 326 c 2,22,23
 129 300.450195312 129 300.450195312 129 324.900390625 c 2,24,25
 128.529296875 319.48828125 128.529296875 319.48828125 128.529296875 307.772460938 c 128,-1,26
 128.529296875 296.056640625 128.529296875 296.056640625 133.939453125 264.010742188 c 128,-1,27
 139.350585938 231.96484375 139.350585938 231.96484375 154.14453125 186.1484375 c 128,-1,28
 168.939453125 140.333007812 168.939453125 140.333007812 196.012695312 94.736328125 c 128,-1,29
 223.155273438 49.021484375 223.155273438 49.021484375 258.001953125 11.3876953125 c 128,-1,30
 292.848632812 -26.2470703125 292.848632812 -26.2470703125 344.170898438 -49.1591796875 c 0,31,32
 393.725300675 -72 393.725300675 -72 448.826908424 -72 c 0,33,34
 496.374445325 -72 496.374445325 -72 542.199408765 -27.79296875 c 128,-1,35
 588.023470334 16.4130859375 588.023470334 16.4130859375 638.796097655 127.827148438 c 128,-1,36
 689.567823104 239.240234375 689.567823104 239.240234375 742.566267861 422.24609375 c 0,37,38
 766.387384536 510.568359375 766.387384536 510.568359375 793.032259068 631.947265625 c 128,-1,39
 819.678035472 753.325195312 819.678035472 753.325195312 837.600916313 851.8515625 c 2,40,41
 857.4547028 936.34375 857.4547028 936.34375 877.309391157 1070.83691406 c 2,42,43
 899.088672063 1191.26171875 899.088672063 1191.26171875 916.492075253 1272.02734375 c 1,44,45
 1071.81738281 1263.88964844 1071.81738281 1263.88964844 1136.82714844 1252.5390625 c 0,46,47
 1143.22460938 1251.1484375 1143.22460938 1251.1484375 1150.41503906 1251.1484375 c 128,-1,48
 1157.60449219 1251.1484375 1157.60449219 1251.1484375 1165.94140625 1254.60449219 c 0,49,50
 1180.859375 1260.79003906 1180.859375 1260.79003906 1192.00683594 1273.92773438 c 0,51,52
 1215.5859375 1301.71777344 1215.5859375 1301.71777344 1222.46679688 1331.87207031 c 0,53,54
 1223.77929688 1339.68261719 1223.77929688 1339.68261719 1223.77929688 1346.27148438 c 0,55,56
 1223.77929688 1365.24121094 1223.77929688 1365.24121094 1211.96777344 1373.97949219 c 128,-1,57
 1200.15527344 1382.71777344 1200.15527344 1382.71777344 1175.546875 1385.11914062 c 2,58,59
 1175.4609375 1360.12695312 1175.4609375 1360.12695312 1175.375 1385.13574219 c 1,60,61
 997.259765625 1405 997.259765625 1405 744.454785573 1405 c 0,62,63
 618.568034736 1405 618.568034736 1405 470.799189707 1400.01269531 c 2,64,65
 470.672927778 1375.00878906 470.672927778 1375.00878906 470.546665849 1400.00488281 c 2,66,67
 433.534785063 1399.1875 433.534785063 1399.1875 411.175601154 1378.49121094 c 128,-1,68
 388.953501625 1357.921875 388.953501625 1357.921875 384.676829711 1330.13574219 c 0,69,70
 382.95515812 1321.97753906 382.95515812 1321.97753906 382.95515812 1315.609375 c 0,71,72
 382.95515812 1302.17871094 382.95515812 1302.17871094 390.411826906 1292.44824219 c 0,73,74
 400.749071419 1278.95898438 400.749071419 1278.95898438 431.399154718 1278.95898438 c 0,75,76
 432.862891226 1278.95898438 432.862891226 1278.95898438 465.780278024 1279.97949219 c 128,-1,77
 498.696762951 1281 498.696762951 1281 584.278000394 1281.04199219 c 128,-1,78
 669.860139707 1281.08300781 669.860139707 1281.08300781 812.312455648 1275.96582031 c 1,79,80
 748.387844666 992.392578125 748.387844666 992.392578125 700.36682553 748.899414062 c 0,81,82
 650.627742286 496.696289062 650.627742286 496.696289062 642.029304912 459.71875 c 0,83,84
 594.224734797 259.978515625 594.224734797 259.978515625 552.790079008 169.9921875 c 0,85,0
 533.073376901 127.173828125 533.073376901 127.173828125 513.351263569 106.586914062 c 128,-1,1
EndSplineSet
Validated: 524325
EndChar

StartChar: K
Encoding: 75 75 46
Width: 935
GlyphClass: 2
Flags: W
LayerCount: 2
Fore
SplineSet
53.181640625 20.79296875 m 0,0,1
 53.181640625 -1.6142578125 53.181640625 -1.6142578125 59.044921875 -16.0263671875 c 0,2,3
 69.6474609375 -44 69.6474609375 -44 94 -44 c 2,4,-1
 94.619140625 -44 l 2,5,6
 97.552734375 -44.1435546875 97.552734375 -44.1435546875 99.849609375 -44.142578125 c 0,7,8
 130.334960938 -44.142578125 130.334960938 -44.142578125 161.399414062 -19.5771484375 c 0,9,10
 192.46484375 5.505859375 192.46484375 5.505859375 204.810546875 48.2099609375 c 1,11,-1
 308.739224204 586.405273438 l 1,12,-1
 332.196388021 690.845703125 l 1,13,-1
 360.678802237 633.907226562 l 2,14,15
 400.403280741 549.01953125 400.403280741 549.01953125 495.143819313 401.857421875 c 0,16,17
 589.885257179 263.921875 589.885257179 263.921875 673.279413453 148.490234375 c 0,18,19
 756.673569727 36.1748046875 756.673569727 36.1748046875 770.509195602 8.9736328125 c 0,20,21
 789.7504729 -43.587890625 789.7504729 -43.587890625 813.02867737 -43.587890625 c 0,22,23
 827.003693691 -43.587890625 827.003693691 -43.587890625 848.09751498 -25.984375 c 0,24,25
 867.774949479 -10.205078125 867.774949479 -10.205078125 880.460379352 19.35546875 c 0,26,27
 894.200195312 48.96875 894.200195312 48.96875 894.200195312 82.4697265625 c 0,28,29
 894.200195312 81.2255859375 894.200195312 81.2255859375 894.1171875 79.9501953125 c 0,30,31
 885.134765625 109.61328125 885.134765625 109.61328125 809.19499046 216.440429688 c 0,32,33
 733.593209761 335.5390625 733.593209761 335.5390625 623.349755721 500.865234375 c 0,34,35
 513.107200974 657.647460938 513.107200974 657.647460938 469.325111554 731.4921875 c 2,36,-1
 458.348338761 750.006835938 l 1,37,38
 626.58451336 911.4609375 626.58451336 911.4609375 825.593601954 1109.51855469 c 0,39,40
 1036.95214844 1296.25976562 1036.95214844 1296.25976562 1073.32617188 1332.45507812 c 0,41,42
 1126.62304688 1374.51855469 1126.62304688 1374.51855469 1126.62304688 1402.92285156 c 0,43,44
 1126.62304688 1422.41894531 1126.62304688 1422.41894531 1120.18457031 1439.765625 c 0,45,46
 1110.4765625 1463.5859375 1110.4765625 1463.5859375 1097.66503906 1463.5859375 c 0,47,48
 1088.83105469 1463.5859375 1088.83105469 1463.5859375 1075.90136719 1457.99316406 c 0,49,50
 1053.43554688 1449.61035156 1053.43554688 1449.61035156 1024.60839844 1422.3828125 c 1,51,52
 995.591796875 1400.20703125 995.591796875 1400.20703125 895.57421875 1315.49316406 c 2,53,54
 768.728595067 1219.37792969 768.728595067 1219.37792969 643.046974671 1085.00878906 c 1,55,-1
 352.468255325 799.975585938 l 1,56,57
 392.681949329 986.334960938 392.681949329 986.334960938 432.260742335 1155.23535156 c 0,58,59
 471.838636047 1320.6796875 471.838636047 1320.6796875 481.887338259 1369.14453125 c 0,60,61
 485.77498276 1384.34765625 485.77498276 1384.34765625 485.77498276 1397.93261719 c 0,62,63
 485.77498276 1424.6953125 485.77498276 1424.6953125 478.626501117 1439.51367188 c 0,64,65
 466.738744312 1463.14550781 466.738744312 1463.14550781 442.654773135 1463.14550781 c 2,66,67
 439.891245133 1488.07226562 439.891245133 1488.07226562 437.126817838 1463 c 2,68,69
 409.657007764 1463 409.657007764 1463 385.280766297 1434.60253906 c 0,70,71
 360.90452483 1408.13183594 360.90452483 1408.13183594 348.958313967 1352.53222656 c 0,72,73
 344.115620088 1329.58398438 344.115620088 1329.58398438 322.120707013 1242.49316406 c 0,74,75
 300.158168494 1154.81640625 300.158168494 1154.81640625 289.852539062 1108.33300781 c 0,76,77
 279.443359375 1060.796875 279.443359375 1060.796875 252.509765625 926.049804688 c 0,78,79
 199.46484375 653.05078125 199.46484375 653.05078125 142.837890625 394.850585938 c 0,80,81
 86.2119140625 137.870117188 86.2119140625 137.870117188 58.9501953125 46.4970703125 c 0,82,83
 53.181640625 31.8291015625 53.181640625 31.8291015625 53.181640625 20.79296875 c 0,0,1
EndSplineSet
Validated: 524297
EndChar

StartChar: L
Encoding: 76 76 47
Width: 935
GlyphClass: 2
Flags: W
LayerCount: 2
Fore
SplineSet
909.872070312 147.497070312 m 0,0,1
 904.44921875 160.666992188 904.44921875 160.666992188 888.8515625 160.666992188 c 0,2,3
 882.763671875 160.666992188 882.763671875 160.666992188 875.07421875 158.744140625 c 0,4,5
 797.341796875 139.311523438 797.341796875 139.311523438 598.662489547 118.072265625 c 0,6,7
 414.989045049 96.8330078125 414.989045049 96.8330078125 278.055664062 96.8330078125 c 0,8,9
 264.173828125 96.8330078125 264.173828125 96.8330078125 219.659179688 97.3896484375 c 1,10,11
 223.149414062 87.5126953125 223.149414062 87.5126953125 226.638671875 127.635742188 c 2,12,13
 247.82421875 219.4375 247.82421875 219.4375 297.37109375 383.594726562 c 0,14,15
 341.558202787 547.751953125 341.558202787 547.751953125 360.826831518 632.2734375 c 2,16,17
 392.106849544 742.3203125 392.106849544 742.3203125 423.386007402 902.366210938 c 1,18,19
 453.333624826 1006.6171875 453.333624826 1006.6171875 483.282102417 1160.86914062 c 2,20,21
 506.996940778 1263.08203125 506.996940778 1263.08203125 519.266380545 1321.78515625 c 0,22,23
 522.866184627 1339.07519531 522.866184627 1339.07519531 522.866184627 1355.14355469 c 128,-1,24
 522.866184627 1371.21289062 522.866184627 1371.21289062 515.670017136 1380.65332031 c 0,25,26
 503.863347882 1396.14257812 503.863347882 1396.14257812 480.710199381 1396.14257812 c 2,27,28
 478.11163113 1371.07128906 478.11163113 1371.07128906 475.513062879 1396 c 2,29,30
 450.119176115 1396 450.119176115 1396 426.805176154 1373.54101562 c 128,-1,31
 403.490316025 1351.08203125 403.490316025 1351.08203125 392.049218272 1302.86230469 c 0,32,33
 387.374203891 1280.375 387.374203891 1280.375 340.852864831 1035.72558594 c 0,34,35
 293.301757812 791.076171875 293.301757812 791.076171875 266.049804688 698.151367188 c 0,36,37
 209.899414062 494.626953125 209.899414062 494.626953125 138.266601562 275.727539062 c 2,38,39
 100.055664062 133.599609375 100.055664062 133.599609375 61.845703125 41.4716796875 c 2,40,41
 56.181640625 22.88671875 56.181640625 22.88671875 56.181640625 8.79296875 c 128,-1,42
 56.181640625 -5.38671875 56.181640625 -5.38671875 62.044921875 -14.5068359375 c 0,43,44
 72.6474609375 -31 72.6474609375 -31 97 -31 c 0,45,46
 219.42578125 -31 219.42578125 -31 462.030785894 -19.0556640625 c 0,47,48
 697.9609375 -7.111328125 697.9609375 -7.111328125 832.112304688 19.521484375 c 0,49,50
 875.357421875 27.705078125 875.357421875 27.705078125 891.748046875 44.0966796875 c 128,-1,51
 908.138671875 60.4873046875 908.138671875 60.4873046875 915.513671875 90.1357421875 c 0,52,53
 920.733398438 121.120117188 920.733398438 121.120117188 909.872070312 147.497070312 c 0,0,1
EndSplineSet
Validated: 524293
EndChar

StartChar: M
Encoding: 77 77 48
Width: 937
GlyphClass: 2
Flags: W
LayerCount: 2
Fore
SplineSet
462.576533342 -15.2353515625 m 2,0,1
 466.604097501 -40.1171875 466.604097501 -40.1171875 470.631661661 -15 c 1,2,3
 537.491393522 -15 537.491393522 -15 560.242029984 34.9736328125 c 0,4,5
 585.672292186 79.44140625 585.672292186 79.44140625 656.796131989 292.401367188 c 128,-1,6
 727.920874631 505.438476562 727.920874631 505.438476562 794.302101896 743.352539062 c 0,7,8
 862.085437913 998.193359375 862.085437913 998.193359375 982.90234375 1308.48535156 c 1,9,10
 1006.70410156 1325.12011719 1006.70410156 1325.12011719 1030.50488281 1293.9375 c 1,11,12
 829.998544788 254.915039062 829.998544788 254.915039062 829.998544788 90.0712890625 c 0,13,14
 829.998544788 83.80078125 829.998544788 83.80078125 830.225157342 78.91796875 c 0,15,16
 833.197302873 12.0703125 833.197302873 12.0703125 851.698276815 -4.984375 c 0,17,18
 861.61235035 -16.111328125 861.61235035 -16.111328125 872.394052029 -16.111328125 c 128,-1,19
 883.17485087 -16.111328125 883.17485087 -16.111328125 895.336914062 -9.185546875 c 0,20,21
 955.26953125 22.076171875 955.26953125 22.076171875 957.002929688 147.006835938 c 0,22,23
 958.028320312 219.858398438 958.028320312 219.858398438 1045.47265625 757.872070312 c 0,24,25
 1132.91699219 1298.07226562 1132.91699219 1298.07226562 1140.11230469 1361.25878906 c 0,26,27
 1140.49609375 1366.38085938 1140.49609375 1366.38085938 1140.5 1368.0703125 c 0,28,29
 1140.5 1385.76953125 1140.5 1385.76953125 1136.98535156 1399.55175781 c 0,30,31
 1133.47167969 1417.48632812 1133.47167969 1417.48632812 1129.12988281 1424.23828125 c 128,-1,32
 1124.78808594 1430.99609375 1124.78808594 1430.99609375 1112.40429688 1436.90917969 c 0,33,34
 1100.02050781 1441.04296875 1100.02050781 1441.04296875 1091.69335938 1441.55273438 c 128,-1,35
 1083.36523438 1442 1083.36523438 1442 1068 1442 c 2,36,-1
 1010 1442 l 1,37,-1
 1058.9453125 1442 l 2,38,39
 1051.56054688 1442.61523438 1051.56054688 1442.61523438 1040.76757812 1442.61523438 c 128,-1,40
 1029.97363281 1442.61523438 1029.97363281 1442.61523438 1011.12109375 1439.06152344 c 0,41,42
 992.268554688 1435.21875 992.268554688 1435.21875 968.900390625 1417.01269531 c 0,43,44
 945.53125 1398.01074219 945.53125 1398.01074219 933.587890625 1367.19824219 c 0,45,46
 891.163169113 1275.2578125 891.163169113 1275.2578125 827.187104574 1104.015625 c 0,47,48
 763.234513845 929.108398438 763.234513845 929.108398438 711.710402879 754.22265625 c 0,49,50
 640.609134048 511.5859375 640.609134048 511.5859375 561.201747694 209.352539062 c 1,51,52
 538.630776165 189.717773438 538.630776165 189.717773438 516.058901798 219.112304688 c 1,53,54
 524.402035714 311.330078125 524.402035714 311.330078125 554.911669348 596.868164062 c 0,55,56
 622.411513962 1187.60058594 622.411513962 1187.60058594 622.411513962 1350.45605469 c 0,57,58
 622.411513962 1359.18457031 622.411513962 1359.18457031 622.256225678 1366.99023438 c 2,59,60
 622.256225678 1366.50488281 622.256225678 1366.50488281 622.256225678 1366.88085938 c 2,61,62
 621.900507167 1410.50585938 621.900507167 1410.50585938 607.480364877 1426.78515625 c 0,63,64
 593.061125426 1442 593.061125426 1442 564.931375029 1442 c 2,65,-1
 563.929223893 1442 l 2,66,67
 559.708452217 1442.39160156 559.708452217 1442.39160156 556.332737716 1442.39160156 c 0,68,69
 532.059914934 1442.39160156 532.059914934 1442.39160156 498.373191347 1424.04296875 c 0,70,71
 464.687370599 1405.23339844 464.687370599 1405.23339844 441.590044014 1363.20703125 c 0,72,73
 408.960544734 1311.92871094 408.960544734 1311.92871094 334.970191547 1062.50292969 c 0,74,75
 296.655515958 931.514648438 296.655515958 931.514648438 271.372070312 843.559570312 c 2,76,-1
 176.00390625 531.997070312 l 2,77,78
 159.424804688 473.770507812 159.424804688 473.770507812 125.108398438 364.09375 c 0,79,80
 90.791015625 259.629882812 90.791015625 259.629882812 71.96875 200.754882812 c 0,81,82
 53.146484375 143.060546875 53.146484375 143.060546875 47.3388671875 119.422851562 c 0,83,84
 36.6669921875 76.6337890625 36.6669921875 76.6337890625 36.6669921875 51.966796875 c 0,85,86
 36.6669921875 -5.4326171875 36.6669921875 -5.4326171875 48.966796875 -15.068359375 c 0,87,88
 52.4169921875 -19.36328125 52.4169921875 -19.36328125 57.8994140625 -20.0126953125 c 2,89,90
 58.423828125 -48.2392578125 58.423828125 -48.2392578125 58.947265625 -20.025390625 c 2,91,92
 85.291015625 -20.025390625 85.291015625 -20.025390625 113.470703125 16.994140625 c 0,93,94
 144.770507812 54.0927734375 144.770507812 54.0927734375 155.416015625 119.741210938 c 0,95,96
 159.9140625 141.911132812 159.9140625 141.911132812 176.521484375 194.663085938 c 0,97,98
 193.127929688 249.040039062 193.127929688 249.040039062 222.594726562 341.2421875 c 0,99,100
 247.720703125 423.404296875 247.720703125 423.404296875 276.000976562 526.021484375 c 0,101,102
 325.019101619 705.508789062 325.019101619 705.508789062 357.175513337 824.869140625 c 0,103,104
 411.740385587 1031.84375 411.740385587 1031.84375 456.029145921 1183.36914062 c 2,105,106
 488.590029448 1300.06835938 488.590029448 1300.06835938 521.150912975 1401.39550781 c 1,107,108
 511.093288062 1289.83203125 511.093288062 1289.83203125 501.03476031 1167.97460938 c 2,109,110
 472.39219744 842.030273438 472.39219744 842.030273438 446.093404254 488.951171875 c 0,111,112
 419.793708229 136.90625 419.793708229 136.90625 418.859270007 38.625 c 0,113,114
 418.885452334 13.3544921875 418.885452334 13.3544921875 429.65451427 -2.611328125 c 0,115,116
 440.424479045 -15.2353515625 440.424479045 -15.2353515625 462.576533342 -15.2353515625 c 2,0,1
EndSplineSet
Validated: 524293
EndChar

